Catamaran-Bold.ufo
<glyph name="exclam" format="2">
  <advance width="207"/>
  <unicode hex="0021"/>
  <outline>
    <contour>
      <point x="52" y="244" type="line"/>
      <point x="35" y="702" type="line"/>
      <point x="171" y="702" type="line"/>
      <point x="156" y="196" type="line"/>
    </contour>
    <contour>
      <point x="103" y="146" type="qcurve" smooth="yes"/>
      <point x="133.59701492537312" y="146.0"/>
      <point x="177.0" y="103.59701492537313"/>
      <point x="177" y="73" type="qcurve" smooth="yes"/>
      <point x="177.0" y="42.40298507462687"/>
      <point x="133.59701492537312" y="0.0"/>
      <point x="103" y="0" type="qcurve" smooth="yes"/>
      <point x="73.1492537313433" y="0.0"/>
      <point x="30.0" y="42.40298507462687"/>
      <point x="30" y="73" type="qcurve" smooth="yes"/>
      <point x="30.0" y="103.59701492537313"/>
      <point x="73.1492537313433" y="146.0"/>
    </contour>
  </outline>
</glyph>
<glyph name="quotedbl" format="2">
  <advance width="394"/>
  <unicode hex="0022"/>
  <outline>
    <contour>
      <point x="290" y="742" type="qcurve" smooth="yes"/>
      <point x="320.5970149253731" y="742.0"/>
      <point x="364.0" y="692.5522388059701"/>
      <point x="364" y="653" type="qcurve" smooth="yes"/>
      <point x="364.0" y="597.0298507462687"/>
      <point x="289.7164179104478" y="475.08955223880594"/>
      <point x="233" y="443" type="qcurve"/>
      <point x="204" y="504" type="line"/>
      <point x="228.62686567164178" y="525.6417910447761"/>
      <point x="265.2835820895522" y="564.9104477611941"/>
      <point x="272" y="597" type="qcurve"/>
      <point x="254.08955223880596" y="597.0"/>
      <point x="216.0" y="641.1343283582089"/>
      <point x="216" y="668" type="qcurve" smooth="yes"/>
      <point x="216.0" y="694.1194029850747"/>
      <point x="259.4029850746269" y="742.0"/>
    </contour>
    <contour>
      <point x="104" y="742" type="qcurve" smooth="yes"/>
      <point x="134.59701492537312" y="742.0"/>
      <point x="180.0" y="692.5522388059701"/>
      <point x="180" y="653" type="qcurve" smooth="yes"/>
      <point x="180.0" y="597.0298507462687"/>
      <point x="104.71641791044776" y="475.08955223880594"/>
      <point x="48" y="443" type="qcurve"/>
      <point x="20" y="504" type="line"/>
      <point x="44.62686567164179" y="525.6417910447761"/>
      <point x="80.28358208955224" y="564.9104477611941"/>
      <point x="87" y="597" type="qcurve"/>
      <point x="69.83582089552239" y="597.0"/>
      <point x="31.0" y="641.1343283582089"/>
      <point x="31" y="668" type="qcurve" smooth="yes"/>
      <point x="31.0" y="694.1194029850747"/>
      <point x="73.40298507462687" y="742.0"/>
    </contour>
  </outline>
</glyph>
<glyph name="numbersign" format="2">
  <advance width="584"/>
  <unicode hex="0023"/>
  <outline>
    <contour>
      <point x="412" y="520" type="line"/>
      <point x="524" y="517" type="line"/>
      <point x="500" y="408" type="line"/>
      <point x="544" y="408" type="line"/>
      <point x="554" y="311" type="line"/>
      <point x="478" y="311" type="line"/>
      <point x="452" y="199" type="line"/>
      <point x="544" y="199" type="line"/>
      <point x="554" y="103" type="line"/>
      <point x="430" y="103" type="line"/>
      <point x="404" y="-15" type="line"/>
      <point x="293" y="-10" type="line"/>
      <point x="318" y="103" type="line"/>
      <point x="198" y="103" type="line"/>
      <point x="171" y="-15" type="line"/>
      <point x="61" y="-10" type="line"/>
      <point x="86" y="103" type="line"/>
      <point x="41" y="103" type="line"/>
      <point x="30" y="199" type="line"/>
      <point x="108" y="199" type="line"/>
      <point x="133" y="311" type="line"/>
      <point x="41" y="311" type="line"/>
      <point x="30" y="408" type="line"/>
      <point x="156" y="408" type="line"/>
      <point x="182" y="520" type="line"/>
      <point x="293" y="517" type="line"/>
      <point x="267" y="408" type="line"/>
      <point x="387" y="408" type="line"/>
    </contour>
    <contour>
      <point x="365" y="311" type="line"/>
      <point x="246" y="311" type="line"/>
      <point x="221" y="199" type="line"/>
      <point x="339" y="199" type="line"/>
    </contour>
  </outline>
</glyph>
<glyph name="dollar" format="2">
  <advance width="527"/>
  <unicode hex="0024"/>
  <outline>
    <contour>
      <point x="145" y="-128" type="line"/>
      <point x="233" y="-128" type="line"/>
      <point x="233" y="-13" type="line"/>
      <point x="248" y="-13" type="line" smooth="yes"/>
      <point x="259.1940298507463" y="-13.0"/>
      <point x="280.2985074626866" y="-11.746268656716417"/>
      <point x="290" y="-11" type="qcurve"/>
      <point x="290" y="-128" type="line"/>
      <point x="379" y="-128" type="line"/>
      <point x="379" y="8" type="line"/>
      <point x="438.7014925373134" y="31.134328358208954"/>
      <point x="502.0" y="118.77611940298507"/>
      <point x="502" y="174" type="qcurve" smooth="yes"/>
      <point x="502.0" y="260.56716417910445"/>
      <point x="369.3880597014925" y="354.7164179104478"/>
      <point x="297" y="398" type="qcurve" smooth="yes"/>
      <point x="247.0" y="427.85074626865674"/>
      <point x="169.0" y="475.94029850746267"/>
      <point x="169" y="514" type="qcurve" smooth="yes"/>
      <point x="169.0" y="549.0746268656717"/>
      <point x="228.46268656716418" y="583.0"/>
      <point x="271" y="583" type="qcurve" smooth="yes"/>
      <point x="315.02985074626866" y="583.0"/>
      <point x="387.4029850746269" y="555.9253731343283"/>
      <point x="418" y="541" type="qcurve"/>
      <point x="461" y="645" type="line"/>
      <point x="445.32835820895525" y="652.4626865671642"/>
      <point x="408.4029850746269" y="668.0298507462686"/>
      <point x="389" y="674" type="qcurve"/>
      <point x="389" y="808" type="line"/>
      <point x="300" y="794" type="line"/>
      <point x="300" y="694" type="line"/>
      <point x="292.53731343283584" y="694.7462686567164"/>
      <point x="276" y="696.0"/>
      <point x="269" y="696" type="qcurve" smooth="yes"/>
      <point x="260" y="696"/>
      <point x="252" y="695"/>
      <point x="243" y="695" type="qcurve"/>
      <point x="243" y="808" type="line"/>
      <point x="155" y="794" type="line"/>
      <point x="155" y="677" type="line"/>
      <point x="96.7910447761194" y="655.3582089552239"/>
      <point x="35.0" y="568.4776119402985"/>
      <point x="35" y="514" type="qcurve" smooth="yes"/>
      <point x="35.0" y="435.64179104477614"/>
      <point x="166.3582089552239" y="331.2835820895522"/>
      <point x="238" y="288" type="qcurve" smooth="yes"/>
      <point x="284.2686567164179" y="260.3880597014925"/>
      <point x="368.0" y="209.5820895522388"/>
      <point x="368" y="176" type="qcurve" smooth="yes"/>
      <point x="368.0" y="140.17910447761193"/>
      <point x="306.44776119402985" y="102.0"/>
      <point x="246" y="102" type="qcurve" smooth="yes"/>
      <point x="203.46268656716418" y="102.0"/>
      <point x="106.59701492537313" y="134.32835820895522"/>
      <point x="76" y="150" type="qcurve"/>
      <point x="47" y="45" type="line"/>
      <point x="63.417910447761194" y="34.55223880597015"/>
      <point x="116.64179104477611" y="13.208955223880597"/>
      <point x="145" y="5" type="qcurve"/>
    </contour>
  </outline>
</glyph>
<glyph name="percent" format="2">
  <advance width="932"/>
  <unicode hex="0025"/>
  <outline>
    <contour>
      <point x="547" y="710" type="line"/>
      <point x="678" y="706" type="line"/>
      <point x="380" y="-4" type="line"/>
      <point x="249" y="0" type="line"/>
    </contour>
    <contour>
      <point x="25" y="533" type="qcurve" smooth="yes"/>
      <point x="25.0" y="610.6119402985074"/>
      <point x="128.3134328358209" y="702.0"/>
      <point x="191" y="702" type="qcurve" smooth="yes"/>
      <point x="254.43283582089552" y="702.0"/>
      <point x="357.0" y="612.8507462686567"/>
      <point x="357" y="533" type="qcurve" smooth="yes"/>
      <point x="357.0" y="455.3880597014926"/>
      <point x="253.6865671641791" y="363.0"/>
      <point x="191" y="363" type="qcurve" smooth="yes"/>
      <point x="128.3134328358209" y="363.0"/>
      <point x="25.0" y="453.14925373134326"/>
    </contour>
    <contour>
      <point x="134" y="534" type="qcurve" smooth="yes"/>
      <point x="134.0" y="494.44776119402985"/>
      <point x="166.37313432835822" y="456.0"/>
      <point x="191" y="456" type="qcurve" smooth="yes"/>
      <point x="212.6417910447761" y="456.0"/>
      <point x="249.0" y="495.43283582089555"/>
      <point x="249" y="532" type="qcurve" smooth="yes"/>
      <point x="249.0" y="568.5671641791045"/>
      <point x="214.88059701492537" y="608.0"/>
      <point x="191" y="608" type="qcurve" smooth="yes"/>
      <point x="169.3582089552239" y="608.0"/>
      <point x="134.0" y="569.820895522388"/>
    </contour>
    <contour>
      <point x="577" y="169" type="qcurve" smooth="yes"/>
      <point x="577.0" y="248.8507462686567"/>
      <point x="680.3134328358209" y="338.0"/>
      <point x="743" y="338" type="qcurve" smooth="yes"/>
      <point x="805.6865671641791" y="338.0"/>
      <point x="907.0" y="250.59701492537312"/>
      <point x="907" y="170" type="qcurve" smooth="yes"/>
      <point x="907.0" y="92.38805970149255"/>
      <point x="804.9402985074627" y="0.0"/>
      <point x="743" y="0" type="qcurve" smooth="yes"/>
      <point x="680.3134328358209" y="0.0"/>
      <point x="577.0" y="89.1492537313433"/>
    </contour>
    <contour>
      <point x="685" y="171" type="qcurve" smooth="yes"/>
      <point x="685.0" y="131.44776119402985"/>
      <point x="718.3731343283582" y="92.0"/>
      <point x="743" y="92" type="qcurve" smooth="yes"/>
      <point x="764.6417910447761" y="92.0"/>
      <point x="800.0" y="132.43283582089552"/>
      <point x="800" y="169" type="qcurve" smooth="yes"/>
      <point x="800.0" y="205.56716417910448"/>
      <point x="766.1343283582089" y="245.0"/>
      <point x="743" y="245" type="qcurve" smooth="yes"/>
      <point x="721.3582089552239" y="245.0"/>
      <point x="685.0" y="206.82089552238807"/>
    </contour>
  </outline>
</glyph>
<glyph name="ampersand" format="2">
  <advance width="683"/>
  <unicode hex="0026"/>
  <outline>
    <contour>
      <point x="411" y="140" type="qcurve"/>
      <point x="266" y="273" type="line" smooth="yes"/>
      <point x="248" y="289"/>
      <point x="231" y="305"/>
      <point x="213" y="321" type="qcurve"/>
      <point x="194" y="299"/>
      <point x="173" y="249"/>
      <point x="172" y="221" type="qcurve" smooth="yes"/>
      <point x="172" y="161"/>
      <point x="251" y="106"/>
      <point x="301" y="106" type="qcurve" smooth="yes"/>
      <point x="333" y="106"/>
      <point x="389" y="124"/>
    </contour>
    <contour>
      <point x="580" y="-15" type="line"/>
      <point x="504" y="55" type="line"/>
      <point x="467" y="24"/>
      <point x="364" y="-11.0"/>
      <point x="301" y="-11" type="qcurve" smooth="yes"/>
      <point x="191" y="-10"/>
      <point x="35.0" y="107"/>
      <point x="35" y="220" type="qcurve" smooth="yes"/>
      <point x="35.0" y="274"/>
      <point x="89" y="375"/>
      <point x="131" y="412" type="qcurve"/>
      <point x="118" y="431"/>
      <point x="103.0" y="478"/>
      <point x="103" y="505" type="qcurve" smooth="yes"/>
      <point x="103.0" y="582"/>
      <point x="218" y="696.0"/>
      <point x="314" y="696" type="qcurve" smooth="yes"/>
      <point x="363" y="696.0"/>
      <point x="460" y="667"/>
      <point x="500" y="645" type="qcurve"/>
      <point x="456" y="541" type="line"/>
      <point x="425" y="558"/>
      <point x="358" y="583.0"/>
      <point x="315" y="583" type="qcurve" smooth="yes"/>
      <point x="278" y="583.0"/>
      <point x="237.0" y="540"/>
      <point x="237" y="510" type="qcurve" smooth="yes"/>
      <point x="237.0" y="481"/>
      <point x="277" y="423"/>
      <point x="319" y="386" type="qcurve" smooth="yes"/>
      <point x="479" y="241" type="line"/>
      <point x="491" y="271"/>
      <point x="506" y="344"/>
      <point x="508" y="386" type="qcurve"/>
      <point x="625" y="339" type="line"/>
      <point x="622" y="288"/>
      <point x="598" y="192"/>
      <point x="579" y="151" type="qcurve"/>
      <point x="658" y="82" type="line"/>
    </contour>
  </outline>
</glyph>
<glyph name="quotesingle" format="2">
  <advance width="210"/>
  <unicode hex="0027"/>
  <outline>
    <contour>
      <point x="104" y="742" type="curve" smooth="yes"/>
      <point x="145" y="742"/>
      <point x="180" y="706"/>
      <point x="180" y="653" type="curve" smooth="yes"/>
      <point x="180" y="578"/>
      <point x="124" y="486"/>
      <point x="48" y="443" type="curve"/>
      <point x="20" y="504" type="line"/>
      <point x="53" y="533"/>
      <point x="78" y="554"/>
      <point x="87" y="597" type="curve"/>
      <point x="64" y="597"/>
      <point x="31" y="632"/>
      <point x="31" y="668" type="curve" smooth="yes"/>
      <point x="31" y="703"/>
      <point x="63" y="742"/>
    </contour>
  </outline>
</glyph>
<glyph name="parenleft" format="2">
  <advance width="308"/>
  <unicode hex="0028"/>
  <outline>
    <contour>
      <point x="277" y="-1" type="curve"/>
      <point x="177" y="-39" type="line"/>
      <point x="98" y="65"/>
      <point x="50" y="189"/>
      <point x="50" y="321" type="curve" smooth="yes"/>
      <point x="50" y="450"/>
      <point x="96" y="566"/>
      <point x="177" y="682" type="curve"/>
      <point x="278" y="645" type="line"/>
      <point x="221" y="566"/>
      <point x="170" y="422"/>
      <point x="170" y="322" type="curve" smooth="yes"/>
      <point x="170" y="219"/>
      <point x="220" y="68"/>
    </contour>
  </outline>
</glyph>
<glyph name="parenright" format="2">
  <advance width="308"/>
  <unicode hex="0029"/>
  <outline>
    <contour>
      <point x="31" y="643" type="qcurve"/>
      <point x="131" y="682" type="line"/>
      <point x="188.46268656716418" y="604.3880597014926"/>
      <point x="258.0" y="419.5074626865671"/>
      <point x="258" y="321" type="qcurve" smooth="yes"/>
      <point x="258.0" y="225.47761194029852"/>
      <point x="189.7014925373134" y="47.567164179104466"/>
      <point x="130" y="-39" type="qcurve"/>
      <point x="30" y="-2" type="line"/>
      <point x="72.53731343283582" y="56.95522388059701"/>
      <point x="136.0" y="246.37313432835822"/>
      <point x="136" y="321" type="qcurve" smooth="yes"/>
      <point x="136.0" y="396.3731343283582"/>
      <point x="73.53731343283582" y="592.2537313432836"/>
    </contour>
  </outline>
</glyph>
<glyph name="asterisk" format="2">
  <advance width="388"/>
  <unicode hex="002A"/>
  <outline>
    <contour>
      <point x="245" y="767" type="line"/>
      <point x="246" y="668" type="line"/>
      <point x="348" y="690" type="line"/>
      <point x="378" y="599" type="line"/>
      <point x="277" y="579" type="line"/>
      <point x="346" y="481" type="line"/>
      <point x="268" y="420" type="line"/>
      <point x="194" y="519" type="line"/>
      <point x="121" y="420" type="line"/>
      <point x="42" y="481" type="line"/>
      <point x="111" y="578" type="line"/>
      <point x="10" y="599" type="line"/>
      <point x="40" y="690" type="line"/>
      <point x="141" y="668" type="line"/>
      <point x="143" y="767" type="line"/>
    </contour>
  </outline>
</glyph>
<glyph name="plus" format="2">
  <advance width="538"/>
  <unicode hex="002B"/>
  <outline>
    <contour>
      <point x="498" y="324" type="line"/>
      <point x="508" y="225" type="line"/>
      <point x="335" y="225" type="line"/>
      <point x="335" y="4" type="line"/>
      <point x="213" y="8" type="line"/>
      <point x="213" y="225" type="line"/>
      <point x="38" y="225" type="line"/>
      <point x="30" y="324" type="line"/>
      <point x="213" y="324" type="line"/>
      <point x="213" y="534" type="line"/>
      <point x="335" y="531" type="line"/>
      <point x="335" y="324" type="line"/>
    </contour>
  </outline>
</glyph>
<glyph name="comma" format="2">
  <advance width="211"/>
  <unicode hex="002C"/>
  <outline>
    <contour>
      <point x="105" y="146" type="curve" smooth="yes"/>
      <point x="146" y="146"/>
      <point x="181" y="109"/>
      <point x="181" y="56" type="curve" smooth="yes"/>
      <point x="181" y="-17"/>
      <point x="125" y="-111"/>
      <point x="49" y="-154" type="curve"/>
      <point x="20" y="-92" type="line"/>
      <point x="55" y="-63"/>
      <point x="79" y="-43"/>
      <point x="88" y="0" type="curve"/>
      <point x="65" y="0"/>
      <point x="33" y="36"/>
      <point x="33" y="72" type="curve" smooth="yes"/>
      <point x="33" y="108"/>
      <point x="65" y="146"/>
    </contour>
  </outline>
</glyph>
<glyph name="hyphen" format="2">
  <advance width="332"/>
  <unicode hex="002D"/>
  <outline>
    <contour>
      <point x="292" y="325" type="line"/>
      <point x="302" y="223" type="line"/>
      <point x="41" y="223" type="line"/>
      <point x="30" y="325" type="line"/>
    </contour>
  </outline>
</glyph>
<glyph name="period" format="2">
  <advance width="206"/>
  <unicode hex="002E"/>
  <outline>
    <contour>
      <point x="104" y="0" type="curve" smooth="yes"/>
      <point x="63" y="0"/>
      <point x="30" y="32"/>
      <point x="30" y="73" type="curve" smooth="yes"/>
      <point x="30" y="114"/>
      <point x="63" y="146"/>
      <point x="104" y="146" type="curve" smooth="yes"/>
      <point x="145" y="146"/>
      <point x="176" y="114"/>
      <point x="176" y="73" type="curve" smooth="yes"/>
      <point x="176" y="32"/>
      <point x="145" y="0"/>
    </contour>
  </outline>
</glyph>
<glyph name="zero" format="2">
  <advance width="606"/>
  <unicode hex="0030"/>
  <outline>
    <contour>
      <point x="25" y="285" type="qcurve" smooth="yes"/>
      <point x="25.0" y="412.6119402985074"/>
      <point x="183.1044776119403" y="579.0"/>
      <point x="304" y="579" type="qcurve" smooth="yes"/>
      <point x="424.14925373134326" y="579.0"/>
      <point x="581.0" y="413.1194029850746"/>
      <point x="581" y="287" type="qcurve" smooth="yes"/>
      <point x="581.0" y="157.1492537313433"/>
      <point x="423.14925373134326" y="-13.0"/>
      <point x="303" y="-13" type="qcurve" smooth="yes"/>
      <point x="182.85074626865674" y="-13.0"/>
      <point x="25.0" y="155.8955223880597"/>
    </contour>
    <contour>
      <point x="144" y="288" type="qcurve" smooth="yes"/>
      <point x="144.0" y="205.91044776119404"/>
      <point x="234.59701492537314" y="98.0"/>
      <point x="304" y="98" type="qcurve" smooth="yes"/>
      <point x="373.4029850746268" y="98.0"/>
      <point x="464.0" y="203.1492537313433"/>
      <point x="464" y="283" type="qcurve" smooth="yes"/>
      <point x="464.0" y="363.5970149253731"/>
      <point x="372.4029850746268" y="469.0"/>
      <point x="303" y="469" type="qcurve" smooth="yes"/>
      <point x="234.34328358208955" y="469.0"/>
      <point x="144.0" y="366.35820895522386"/>
    </contour>
  </outline>
</glyph>
<glyph name="one" format="2">
  <advance width="368"/>
  <unicode hex="0031"/>
  <outline>
    <contour>
      <point x="303" y="0" type="line"/>
      <point x="173" y="0" type="line"/>
      <point x="173" y="422" type="line"/>
      <point x="59" y="378" type="line"/>
      <point x="10" y="475" type="line"/>
      <point x="216" y="566" type="line"/>
      <point x="303" y="566" type="line"/>
    </contour>
  </outline>
</glyph>
<glyph name="two" format="2">
  <advance width="487"/>
  <unicode hex="0032"/>
  <outline>
    <contour>
      <point x="231" y="579" type="curve" smooth="yes"/>
      <point x="359" y="579"/>
      <point x="436" y="503"/>
      <point x="436" y="403" type="curve" smooth="yes"/>
      <point x="436" y="310"/>
      <point x="394" y="259"/>
      <point x="297" y="178" type="curve" smooth="yes"/>
      <point x="202" y="99" type="line"/>
      <point x="455" y="99" type="line"/>
      <point x="467" y="0" type="line"/>
      <point x="25" y="0" type="line"/>
      <point x="25" y="87" type="line"/>
      <point x="227" y="259" type="line" smooth="yes"/>
      <point x="295" y="317"/>
      <point x="327" y="359"/>
      <point x="327" y="398" type="curve" smooth="yes"/>
      <point x="327" y="448"/>
      <point x="283" y="474"/>
      <point x="218" y="474" type="curve" smooth="yes"/>
      <point x="158" y="474"/>
      <point x="96" y="443"/>
      <point x="61" y="423" type="curve"/>
      <point x="38" y="527" type="line"/>
      <point x="75" y="549"/>
      <point x="142" y="579"/>
    </contour>
  </outline>
</glyph>
<glyph name="three" format="2">
  <advance width="484"/>
  <unicode hex="0033"/>
  <outline>
    <contour>
      <point x="232" y="579" type="qcurve" smooth="yes"/>
      <point x="336.4776119402985" y="579.0"/>
      <point x="442.0" y="474.4029850746268"/>
      <point x="442" y="405" type="qcurve" smooth="yes"/>
      <point x="442.0" y="359.4776119402985"/>
      <point x="390.1044776119403" y="285.6865671641791"/>
      <point x="361" y="273" type="qcurve"/>
      <point x="388.6119402985075" y="266.2835820895522"/>
      <point x="454.0" y="182.94029850746267"/>
      <point x="454" y="121" type="qcurve" smooth="yes"/>
      <point x="454.0" y="38.164179104477626"/>
      <point x="325.46268656716416" y="-76.0"/>
      <point x="218" y="-76" type="qcurve" smooth="yes"/>
      <point x="163.52238805970148" y="-76.0"/>
      <point x="45.52238805970149" y="-36.88059701492537"/>
      <point x="0" y="-13" type="qcurve"/>
      <point x="66" y="74" type="line"/>
      <point x="105.55223880597015" y="50.11940298507463"/>
      <point x="175.97014925373134" y="29.0"/>
      <point x="220" y="29" type="qcurve" smooth="yes"/>
      <point x="264.02985074626866" y="29.0"/>
      <point x="335.0" y="77.46268656716418"/>
      <point x="335" y="120" type="qcurve" smooth="yes"/>
      <point x="335.0" y="165.52238805970148"/>
      <point x="263.35820895522386" y="220.0"/>
      <point x="185" y="220" type="qcurve" smooth="yes"/>
      <point x="143" y="220" type="line"/>
      <point x="125" y="321" type="line"/>
      <point x="191" y="321" type="line" smooth="yes"/>
      <point x="251.44776119402985" y="321.0"/>
      <point x="323.0" y="366.43283582089555"/>
      <point x="323" y="403" type="qcurve" smooth="yes"/>
      <point x="323.0" y="432.1044776119403"/>
      <point x="271.53731343283584" y="474.0"/>
      <point x="229" y="474" type="qcurve" smooth="yes"/>
      <point x="184.22388059701493" y="474.0"/>
      <point x="106.86567164179104" y="440.65671641791045"/>
      <point x="80" y="422" type="qcurve"/>
      <point x="19" y="509" type="line"/>
      <point x="67.50746268656715" y="541.0895522388059"/>
      <point x="172.2985074626866" y="579.0"/>
    </contour>
  </outline>
</glyph>
<glyph name="four" format="2">
  <advance width="560"/>
  <unicode hex="0034"/>
  <outline>
    <contour>
      <point x="540" y="166" type="line"/>
      <point x="527" y="59" type="line"/>
      <point x="435" y="59" type="line"/>
      <point x="435" y="-69" type="line"/>
      <point x="304" y="-69" type="line"/>
      <point x="304" y="59" type="line"/>
      <point x="27" y="59" type="line"/>
      <point x="10" y="166" type="line"/>
      <point x="338" y="571" type="line"/>
      <point x="435" y="571" type="line"/>
      <point x="435" y="166" type="line"/>
    </contour>
    <contour>
      <point x="304" y="363" type="line"/>
      <point x="150" y="166" type="line"/>
      <point x="304" y="166" type="line"/>
    </contour>
  </outline>
</glyph>
<glyph name="five" format="2">
  <advance width="512"/>
  <unicode hex="0035"/>
  <outline>
    <contour>
      <point x="183" y="206" type="qcurve"/>
      <point x="68" y="206" type="line"/>
      <point x="86" y="566" type="line"/>
      <point x="452" y="566" type="line"/>
      <point x="438" y="461" type="line"/>
      <point x="196" y="461" type="line"/>
      <point x="190" y="342" type="line"/>
      <point x="205.67164179104478" y="350.2089552238806"/>
      <point x="243.8507462686567" y="357.0"/>
      <point x="264" y="357" type="qcurve" smooth="yes"/>
      <point x="375.19402985074623" y="357.0"/>
      <point x="486.25373134328356" y="230.5820895522388"/>
      <point x="487" y="147" type="qcurve" smooth="yes"/>
      <point x="487.0" y="49.23880597014926"/>
      <point x="354.43283582089555" y="-76.0"/>
      <point x="241" y="-76" type="qcurve" smooth="yes"/>
      <point x="185.02985074626866" y="-76.0"/>
      <point x="69.02985074626865" y="-37.88059701492537"/>
      <point x="25" y="-14" type="qcurve"/>
      <point x="89" y="77" type="line"/>
      <point x="128.55223880597015" y="55.35820895522389"/>
      <point x="199.22388059701493" y="33.0"/>
      <point x="244" y="33" type="qcurve" smooth="yes"/>
      <point x="296.98507462686564" y="33.0"/>
      <point x="369.0" y="94.01492537313433"/>
      <point x="369" y="147" type="qcurve" smooth="yes"/>
      <point x="369.0" y="195.50746268656715"/>
      <point x="311.53731343283584" y="253.0"/>
      <point x="269" y="253" type="qcurve" smooth="yes"/>
      <point x="233.92537313432837" y="253.0"/>
      <point x="189.71641791044777" y="221.67164179104478"/>
    </contour>
  </outline>
</glyph>
<glyph name="six" format="2">
  <advance width="525"/>
  <unicode hex="0036"/>
  <outline>
    <contour>
      <point x="79" y="300" type="line"/>
      <point x="122.28358208955223" y="341.7910447761194"/>
      <point x="214.5820895522388" y="402.0"/>
      <point x="281" y="402" type="qcurve" smooth="yes"/>
      <point x="375.77611940298505" y="402.0"/>
      <point x="500.0" y="280.07462686567163"/>
      <point x="500" y="195" type="qcurve" smooth="yes"/>
      <point x="500.0" y="103.20895522388061"/>
      <point x="377.2835820895522" y="-13.0"/>
      <point x="284" y="-13" type="qcurve" smooth="yes"/>
      <point x="172.05970149253733" y="-13.0"/>
      <point x="25.0" y="122.1492537313433"/>
      <point x="25" y="252" type="qcurve" smooth="yes"/>
      <point x="25.0" y="427.3731343283582"/>
      <point x="294.85074626865674" y="618.3283582089553"/>
      <point x="415" y="634" type="qcurve"/>
      <point x="433" y="527" type="line"/>
      <point x="335.9850746268657" y="500.8805970149254"/>
      <point x="146.0" y="380.4029850746268"/>
      <point x="146" y="261" type="qcurve" smooth="yes"/>
      <point x="146.0" y="173.6865671641791"/>
      <point x="221.7910447761194" y="94.0"/>
      <point x="280" y="94" type="qcurve" smooth="yes"/>
      <point x="324.02985074626866" y="94.0"/>
      <point x="384.0" y="150.44776119402985"/>
      <point x="384" y="190" type="qcurve" smooth="yes"/>
      <point x="384.0" y="237.01492537313433"/>
      <point x="323.5223880597015" y="300.0"/>
      <point x="278" y="300" type="qcurve" smooth="yes"/>
      <point x="227.2537313432836" y="300.0"/>
      <point x="139.07462686567163" y="261.2835820895522"/>
      <point x="104" y="218" type="qcurve"/>
    </contour>
  </outline>
</glyph>
<glyph name="seven" format="2">
  <advance width="474"/>
  <unicode hex="0037"/>
  <outline>
    <contour>
      <point x="258" y="-69" type="line"/>
      <point x="137" y="-34" type="line"/>
      <point x="311" y="461" type="line"/>
      <point x="26" y="461" type="line"/>
      <point x="10" y="566" type="line"/>
      <point x="416" y="566" type="line"/>
      <point x="454" y="514" type="line"/>
    </contour>
  </outline>
</glyph>
<glyph name="eight" format="2">
  <advance width="514"/>
  <unicode hex="0038"/>
  <outline>
    <contour>
      <point x="258" y="643" type="curve" smooth="yes"/>
      <point x="385" y="643"/>
      <point x="464" y="563"/>
      <point x="464" y="468" type="curve" smooth="yes"/>
      <point x="464" y="412"/>
      <point x="428" y="363"/>
      <point x="377" y="340" type="curve"/>
      <point x="433" y="321"/>
      <point x="489" y="253"/>
      <point x="489" y="185" type="curve" smooth="yes"/>
      <point x="489" y="77"/>
      <point x="402" y="-13"/>
      <point x="258" y="-13" type="curve" smooth="yes"/>
      <point x="111" y="-13"/>
      <point x="25" y="77"/>
      <point x="25" y="185" type="curve" smooth="yes"/>
      <point x="25" y="253"/>
      <point x="81" y="321"/>
      <point x="137" y="340" type="curve"/>
      <point x="86" y="363"/>
      <point x="51" y="412"/>
      <point x="51" y="468" type="curve" smooth="yes"/>
      <point x="51" y="563"/>
      <point x="130" y="643"/>
    </contour>
    <contour>
      <point x="256" y="537" type="curve" smooth="yes"/>
      <point x="207" y="537"/>
      <point x="167" y="505"/>
      <point x="167" y="468" type="curve" smooth="yes"/>
      <point x="166" y="423"/>
      <point x="198" y="394"/>
      <point x="258" y="385" type="curve"/>
      <point x="317" y="394"/>
      <point x="347" y="423"/>
      <point x="347" y="468" type="curve" smooth="yes"/>
      <point x="347" y="505"/>
      <point x="308" y="537"/>
    </contour>
    <contour>
      <point x="258" y="288" type="curve"/>
      <point x="181" y="276"/>
      <point x="142" y="231"/>
      <point x="142" y="183" type="curve" smooth="yes"/>
      <point x="142" y="126"/>
      <point x="198" y="92"/>
      <point x="257" y="92" type="curve" smooth="yes"/>
      <point x="315" y="92"/>
      <point x="373" y="126"/>
      <point x="373" y="183" type="curve" smooth="yes"/>
      <point x="373" y="231"/>
      <point x="333" y="276"/>
    </contour>
  </outline>
</glyph>
<glyph name="nine" format="2">
  <advance width="525"/>
  <unicode hex="0039"/>
  <outline>
    <contour>
      <point x="446" y="266" type="line"/>
      <point x="402.7164179104478" y="224.2089552238806"/>
      <point x="310.4179104477612" y="164.0"/>
      <point x="244" y="164" type="qcurve" smooth="yes"/>
      <point x="149.22388059701495" y="164.0"/>
      <point x="25.0" y="285.92537313432837"/>
      <point x="25" y="371" type="qcurve" smooth="yes"/>
      <point x="25.0" y="462.7910447761194"/>
      <point x="147.71641791044777" y="579.0"/>
      <point x="241" y="579" type="qcurve" smooth="yes"/>
      <point x="352.94029850746267" y="579.0"/>
      <point x="500.0" y="443.85074626865674"/>
      <point x="500" y="314" type="qcurve" smooth="yes"/>
      <point x="500.0" y="138.6268656716418"/>
      <point x="230.14925373134326" y="-52.32835820895522"/>
      <point x="110" y="-68" type="qcurve"/>
      <point x="92" y="39" type="line"/>
      <point x="189.0149253731343" y="65.11940298507463"/>
      <point x="379.0" y="185.59701492537314"/>
      <point x="379" y="305" type="qcurve" smooth="yes"/>
      <point x="379.0" y="392.3134328358209"/>
      <point x="303.2089552238806" y="472.0"/>
      <point x="245" y="472" type="qcurve" smooth="yes"/>
      <point x="200.97014925373134" y="472.0"/>
      <point x="141.0" y="415.55223880597015"/>
      <point x="141" y="376" type="qcurve" smooth="yes"/>
      <point x="141.0" y="328.9850746268657"/>
      <point x="201.47761194029852" y="266.0"/>
      <point x="247" y="266" type="qcurve" smooth="yes"/>
      <point x="297.74626865671644" y="266.0"/>
      <point x="385.92537313432837" y="304.7164179104478"/>
      <point x="421" y="348" type="qcurve"/>
    </contour>
  </outline>
</glyph>
<glyph name="colon" format="2">
  <advance width="206"/>
  <unicode hex="003A"/>
  <outline>
    <contour>
      <point x="104" y="327" type="curve" smooth="yes"/>
      <point x="63" y="327"/>
      <point x="30" y="360"/>
      <point x="30" y="401" type="curve" smooth="yes"/>
      <point x="30" y="441"/>
      <point x="63" y="474"/>
      <point x="104" y="474" type="curve" smooth="yes"/>
      <point x="145" y="474"/>
      <point x="176" y="441"/>
      <point x="176" y="401" type="curve" smooth="yes"/>
      <point x="176" y="360"/>
      <point x="145" y="327"/>
    </contour>
    <contour>
      <point x="104" y="0" type="curve" smooth="yes"/>
      <point x="63" y="0"/>
      <point x="30" y="32"/>
      <point x="30" y="73" type="curve" smooth="yes"/>
      <point x="30" y="114"/>
      <point x="63" y="146"/>
      <point x="104" y="146" type="curve" smooth="yes"/>
      <point x="145" y="146"/>
      <point x="176" y="114"/>
      <point x="176" y="73" type="curve" smooth="yes"/>
      <point x="176" y="32"/>
      <point x="145" y="0"/>
    </contour>
  </outline>
</glyph>
<glyph name="semicolon" format="2">
  <advance width="212"/>
  <unicode hex="003B"/>
  <outline>
    <contour>
      <point x="109" y="327" type="curve" smooth="yes"/>
      <point x="68" y="327"/>
      <point x="34" y="360"/>
      <point x="34" y="401" type="curve" smooth="yes"/>
      <point x="34" y="441"/>
      <point x="68" y="474"/>
      <point x="109" y="474" type="curve" smooth="yes"/>
      <point x="150" y="474"/>
      <point x="182" y="441"/>
      <point x="182" y="401" type="curve" smooth="yes"/>
      <point x="182" y="360"/>
      <point x="150" y="327"/>
    </contour>
    <contour>
      <point x="105" y="146" type="curve" smooth="yes"/>
      <point x="146" y="146"/>
      <point x="181" y="109"/>
      <point x="181" y="56" type="curve" smooth="yes"/>
      <point x="181" y="-17"/>
      <point x="125" y="-111"/>
      <point x="49" y="-154" type="curve"/>
      <point x="20" y="-92" type="line"/>
      <point x="55" y="-63"/>
      <point x="79" y="-43"/>
      <point x="88" y="0" type="curve"/>
      <point x="65" y="0"/>
      <point x="33" y="36"/>
      <point x="33" y="72" type="curve" smooth="yes"/>
      <point x="33" y="108"/>
      <point x="65" y="146"/>
    </contour>
  </outline>
</glyph>
<glyph name="less" format="2">
  <advance width="348"/>
  <unicode hex="003C"/>
  <outline>
    <contour>
      <point x="328" y="127" type="line"/>
      <point x="305" y="19" type="line"/>
      <point x="30" y="216" type="line"/>
      <point x="30" y="274" type="line"/>
      <point x="305" y="470" type="line"/>
      <point x="328" y="363" type="line"/>
      <point x="160" y="245" type="line"/>
    </contour>
  </outline>
</glyph>
<glyph name="equal" format="2">
  <advance width="516"/>
  <unicode hex="003D"/>
  <outline>
    <contour>
      <point x="477" y="408" type="line"/>
      <point x="486" y="311" type="line"/>
      <point x="41" y="311" type="line"/>
      <point x="30" y="408" type="line"/>
    </contour>
    <contour>
      <point x="477" y="199" type="line"/>
      <point x="486" y="103" type="line"/>
      <point x="41" y="103" type="line"/>
      <point x="30" y="199" type="line"/>
    </contour>
  </outline>
</glyph>
<glyph name="greater" format="2">
  <advance width="348"/>
  <unicode hex="003E"/>
  <outline>
    <contour>
      <point x="318" y="274" type="line"/>
      <point x="318" y="216" type="line"/>
      <point x="43" y="19" type="line"/>
      <point x="20" y="127" type="line"/>
      <point x="188" y="245" type="line"/>
      <point x="20" y="363" type="line"/>
      <point x="43" y="470" type="line"/>
    </contour>
  </outline>
</glyph>
<glyph name="question" format="2">
  <advance width="435"/>
  <unicode hex="003F"/>
  <outline>
    <contour>
      <point x="204" y="701" type="qcurve" smooth="yes"/>
      <point x="303.25373134328356" y="701.0"/>
      <point x="405.0" y="601.8507462686567"/>
      <point x="405" y="522" type="qcurve" smooth="yes"/>
      <point x="405.0" y="468.2686567164179"/>
      <point x="309.4029850746268" y="352.56716417910445"/>
      <point x="240" y="316" type="qcurve"/>
      <point x="223" y="179" type="line"/>
      <point x="131" y="218" type="line"/>
      <point x="123" y="383" type="line"/>
      <point x="193.8955223880597" y="406.13432835820896"/>
      <point x="286.0" y="478.95522388059703"/>
      <point x="286" y="520" type="qcurve" smooth="yes"/>
      <point x="286.0" y="553.5820895522388"/>
      <point x="236.82089552238807" y="593.0"/>
      <point x="201" y="593" type="qcurve" smooth="yes"/>
      <point x="170.40298507462688" y="593.0"/>
      <point x="77.0" y="562.5820895522388"/>
      <point x="27" y="529" type="qcurve"/>
      <point x="10" y="645" type="line"/>
      <point x="55.52238805970149" y="674.1044776119403"/>
      <point x="150.26865671641792" y="701.0"/>
    </contour>
    <contour>
      <point x="170" y="146" type="qcurve" smooth="yes"/>
      <point x="200.59701492537312" y="146.0"/>
      <point x="243.0" y="103.59701492537313"/>
      <point x="243" y="73" type="qcurve" smooth="yes"/>
      <point x="243.0" y="42.40298507462687"/>
      <point x="200.59701492537312" y="0.0"/>
      <point x="170" y="0" type="qcurve" smooth="yes"/>
      <point x="139.40298507462688" y="0.0"/>
      <point x="96.0" y="42.40298507462687"/>
      <point x="96" y="73" type="qcurve" smooth="yes"/>
      <point x="96.0" y="103.59701492537313"/>
      <point x="139.40298507462688" y="146.0"/>
    </contour>
  </outline>
</glyph>
<glyph name="at" format="2">
  <advance width="765"/>
  <unicode hex="0040"/>
  <outline>
    <contour>
      <point x="557" y="389" type="line"/>
      <point x="534" y="194" type="line" smooth="yes"/>
      <point x="532" y="179"/>
      <point x="544" y="162"/>
      <point x="556" y="162" type="qcurve" smooth="yes"/>
      <point x="584" y="162"/>
      <point x="632.0" y="236.32835820895522"/>
      <point x="632" y="302" type="qcurve" smooth="yes"/>
      <point x="632.0" y="388.56716417910445"/>
      <point x="511.53731343283584" y="499.0"/>
      <point x="419" y="499" type="qcurve" smooth="yes"/>
      <point x="313.7761194029851" y="499.0"/>
      <point x="140.0" y="350.3731343283582"/>
      <point x="140" y="225" type="qcurve" smooth="yes"/>
      <point x="140.0" y="124.25373134328359"/>
      <point x="277.44776119402985" y="8.0"/>
      <point x="367" y="8" type="qcurve" smooth="yes"/>
      <point x="402.07462686567163" y="8.0"/>
      <point x="492.2089552238806" y="22.358208955223883"/>
      <point x="534" y="44" type="qcurve"/>
      <point x="566" y="-55" type="line"/>
      <point x="512.2686567164179" y="-82.61194029850746"/>
      <point x="407.0" y="-97.0"/>
      <point x="357" y="-97" type="qcurve" smooth="yes"/>
      <point x="233.86567164179104" y="-97.0"/>
      <point x="25.0" y="79.47761194029852"/>
      <point x="25" y="225" type="qcurve" smooth="yes"/>
      <point x="25.0" y="377.2388059701492"/>
      <point x="240.8955223880597" y="603.0"/>
      <point x="420" y="603" type="qcurve" smooth="yes"/>
      <point x="556.5671641791045" y="603.0"/>
      <point x="740.0" y="434.6119402985074"/>
      <point x="740" y="307" type="qcurve" smooth="yes"/>
      <point x="740.0" y="184.61194029850748"/>
      <point x="630.5970149253732" y="59.0"/>
      <point x="550" y="59" type="qcurve" smooth="yes"/>
      <point x="528.3582089552239" y="59.0"/>
      <point x="486.67164179104475" y="72.05970149253731"/>
      <point x="471" y="84" type="qcurve"/>
      <point x="453.8358208955224" y="74.29850746268657"/>
      <point x="408.64179104477614" y="60.0"/>
      <point x="387" y="60" type="qcurve" smooth="yes"/>
      <point x="296.70149253731347" y="60.0"/>
      <point x="209.0" y="151.3582089552239"/>
      <point x="209" y="223" type="qcurve" smooth="yes"/>
      <point x="209.0" y="318.5223880597015"/>
      <point x="351.44776119402985" y="434.0"/>
      <point x="441" y="434" type="qcurve" smooth="yes"/>
      <point x="521" y="434" type="line"/>
    </contour>
    <contour>
      <point x="387" y="159" type="qcurve" smooth="yes"/>
      <point x="398" y="159"/>
      <point x="418" y="166"/>
      <point x="426" y="173" type="qcurve"/>
      <point x="425" y="182"/>
      <point x="426" y="200"/>
      <point x="427" y="208" type="qcurve" smooth="yes"/>
      <point x="444" y="337" type="line"/>
      <point x="440" y="337" type="line" smooth="yes"/>
      <point x="393.0" y="337.0"/>
      <point x="323" y="275"/>
      <point x="323" y="223" type="qcurve" smooth="yes"/>
      <point x="323" y="196"/>
      <point x="353" y="159"/>
    </contour>
  </outline>
</glyph>
<glyph name="A" format="2">
  <advance width="659"/>
  <unicode hex="0041"/>
  <anchor x="586" y="4" name="bottom"/>
  <anchor x="327" y="680" name="topU"/>
  <outline>
    <contour>
      <point x="418" y="265" type="line"/>
      <point x="327" y="502" type="line"/>
      <point x="238" y="265" type="line"/>
    </contour>
    <contour>
      <point x="275" y="680" type="line"/>
      <point x="385" y="680" type="line"/>
      <point x="649" y="8" type="line"/>
      <point x="519" y="-10" type="line"/>
      <point x="458" y="160" type="line"/>
      <point x="200" y="160" type="line"/>
      <point x="140" y="0" type="line"/>
      <point x="10" y="0" type="line"/>
    </contour>
  </outline>
</glyph>
<glyph name="B" format="2">
  <advance width="629"/>
  <unicode hex="0042"/>
  <outline>
    <contour>
      <point x="364" y="0" type="qcurve" smooth="yes"/>
      <point x="85" y="0" type="line"/>
      <point x="85" y="680" type="line"/>
      <point x="349" y="680" type="line" smooth="yes"/>
      <point x="447.5074626865671" y="680.0"/>
      <point x="572.0" y="592.2388059701492"/>
      <point x="572" y="490" type="qcurve" smooth="yes"/>
      <point x="572.0" y="451.94029850746267"/>
      <point x="526.6119402985074" y="390.64179104477614"/>
      <point x="499" y="369" type="qcurve"/>
      <point x="544.5223880597015" y="345.11940298507466"/>
      <point x="604.0" y="262.6865671641791"/>
      <point x="604" y="200" type="qcurve" smooth="yes"/>
      <point x="604.0" y="106.71641791044777"/>
      <point x="472.2089552238806" y="0.0"/>
    </contour>
    <contour>
      <point x="330" y="572" type="qcurve" smooth="yes"/>
      <point x="214" y="572" type="line"/>
      <point x="214" y="403" type="line"/>
      <point x="310" y="403" type="line" smooth="yes"/>
      <point x="363.7313432835821" y="403.0"/>
      <point x="435.0" y="443.97014925373134"/>
      <point x="435" y="488" type="qcurve" smooth="yes"/>
      <point x="435.0" y="535.7611940298507"/>
      <point x="378.5074626865672" y="572.0"/>
    </contour>
    <contour>
      <point x="363" y="298" type="qcurve" smooth="yes"/>
      <point x="214" y="298" type="line"/>
      <point x="214" y="107" type="line"/>
      <point x="354" y="107" type="line" smooth="yes"/>
      <point x="405.4925373134328" y="107.0"/>
      <point x="469.0" y="154.97014925373134"/>
      <point x="469" y="199" type="qcurve" smooth="yes"/>
      <point x="469.0" y="246.76119402985074"/>
      <point x="410.76119402985074" y="298.0"/>
    </contour>
  </outline>
</glyph>
<glyph name="C" format="2">
  <advance width="564"/>
  <unicode hex="0043"/>
  <anchor x="357" y="0" name="bottom"/>
  <anchor x="364" y="680" name="topU"/>
  <outline>
    <contour>
      <point x="543" y="650" type="curve"/>
      <point x="503" y="557" type="line"/>
      <point x="444" y="574"/>
      <point x="418" y="585"/>
      <point x="359" y="585" type="curve" smooth="yes"/>
      <point x="251" y="585"/>
      <point x="170" y="491"/>
      <point x="170" y="338" type="curve" smooth="yes"/>
      <point x="170" y="206"/>
      <point x="235" y="95"/>
      <point x="351" y="95" type="curve" smooth="yes"/>
      <point x="408" y="95"/>
      <point x="459" y="109"/>
      <point x="500" y="126" type="curve"/>
      <point x="549" y="30" type="line"/>
      <point x="497" y="3"/>
      <point x="414" y="-14"/>
      <point x="358" y="-14" type="curve" smooth="yes"/>
      <point x="146" y="-14"/>
      <point x="35" y="141"/>
      <point x="35" y="337" type="curve" smooth="yes"/>
      <point x="35" y="546"/>
      <point x="164" y="694"/>
      <point x="363" y="694" type="curve" smooth="yes"/>
      <point x="403" y="694"/>
      <point x="484" y="682"/>
    </contour>
  </outline>
</glyph>
<glyph name="D" format="2">
  <advance width="691"/>
  <unicode hex="0044"/>
  <anchor x="327" y="680" name="topU"/>
  <outline>
    <contour>
      <point x="343" y="0" type="qcurve" smooth="yes"/>
      <point x="85" y="0" type="line"/>
      <point x="85" y="680" type="line"/>
      <point x="343" y="680" type="line" smooth="yes"/>
      <point x="501.2089552238806" y="680.0"/>
      <point x="656.0" y="489.5223880597015"/>
      <point x="656" y="344" type="qcurve" smooth="yes"/>
      <point x="656.0" y="185.044776119403"/>
      <point x="493.0" y="2.2388059701492535"/>
    </contour>
    <contour>
      <point x="348" y="570" type="qcurve" smooth="yes"/>
      <point x="214" y="570" type="line"/>
      <point x="214" y="109" type="line"/>
      <point x="341" y="109" type="line" smooth="yes"/>
      <point x="422.34328358208955" y="109.0"/>
      <point x="522.0" y="217.8805970149254"/>
      <point x="522" y="344" type="qcurve" smooth="yes"/>
      <point x="522.0" y="449.2238805970149"/>
      <point x="437.55223880597015" y="570.0"/>
    </contour>
  </outline>
</glyph>
<glyph name="E" format="2">
  <advance width="581"/>
  <unicode hex="0045"/>
  <anchor x="440" y="0" name="bottom"/>
  <anchor x="302" y="680" name="topU"/>
  <outline>
    <contour>
      <point x="561" y="0" type="line"/>
      <point x="85" y="0" type="line"/>
      <point x="85" y="680" type="line"/>
      <point x="491" y="680" type="line"/>
      <point x="511" y="578" type="line"/>
      <point x="214" y="578" type="line"/>
      <point x="214" y="395" type="line"/>
      <point x="436" y="395" type="line"/>
      <point x="457" y="292" type="line"/>
      <point x="214" y="292" type="line"/>
      <point x="214" y="101" type="line"/>
      <point x="540" y="101" type="line"/>
    </contour>
  </outline>
</glyph>
<glyph name="F" format="2">
  <advance width="510"/>
  <unicode hex="0046"/>
  <outline>
    <contour>
      <point x="427" y="389" type="line"/>
      <point x="446" y="288" type="line"/>
      <point x="214" y="288" type="line"/>
      <point x="214" y="0" type="line"/>
      <point x="85" y="0" type="line"/>
      <point x="85" y="680" type="line"/>
      <point x="470" y="680" type="line"/>
      <point x="490" y="578" type="line"/>
      <point x="214" y="578" type="line"/>
      <point x="214" y="389" type="line"/>
    </contour>
  </outline>
</glyph>
<glyph name="G" format="2">
  <advance width="630"/>
  <unicode hex="0047"/>
  <anchor x="374" y="0" name="bottom"/>
  <anchor x="389" y="680" name="topU"/>
  <outline>
    <contour>
      <point x="326" y="272" type="line"/>
      <point x="337" y="372" type="line"/>
      <point x="585" y="372" type="line"/>
      <point x="585" y="36" type="line"/>
      <point x="546.1940298507462" y="15.1044776119403"/>
      <point x="435.6865671641791" y="-14.0"/>
      <point x="373" y="-14" type="qcurve" smooth="yes"/>
      <point x="214.7910447761194" y="-14.0"/>
      <point x="35.0" y="191.47761194029852"/>
      <point x="35" y="337" type="qcurve" smooth="yes"/>
      <point x="35.0" y="491.4776119402985"/>
      <point x="236.01492537313433" y="694.0"/>
      <point x="389" y="694" type="qcurve" smooth="yes"/>
      <point x="418.85074626865674" y="694.0"/>
      <point x="530.223880597015" y="673.8805970149253"/>
      <point x="575" y="650" type="qcurve"/>
      <point x="534" y="557" type="line"/>
      <point x="489.97014925373134" y="569.6865671641791"/>
      <point x="435.02985074626866" y="585.0"/>
      <point x="391" y="585" type="qcurve" smooth="yes"/>
      <point x="301.44776119402985" y="585.0"/>
      <point x="170.0" y="461.13432835820896"/>
      <point x="170" y="338" type="qcurve" smooth="yes"/>
      <point x="170.0" y="226.80597014925374"/>
      <point x="281.1940298507463" y="95.0"/>
      <point x="370" y="95" type="qcurve" smooth="yes"/>
      <point x="402.8358208955224" y="95.0"/>
      <point x="451.089552238806" y="102.26865671641791"/>
      <point x="469" y="106" type="qcurve"/>
      <point x="469" y="272" type="line"/>
    </contour>
  </outline>
</glyph>
<glyph name="H" format="2">
  <advance width="696"/>
  <unicode hex="0048"/>
  <outline>
    <contour>
      <point x="611" y="0" type="line"/>
      <point x="482" y="0" type="line"/>
      <point x="482" y="288" type="line"/>
      <point x="214" y="288" type="line"/>
      <point x="214" y="0" type="line"/>
      <point x="85" y="0" type="line"/>
      <point x="85" y="680" type="line"/>
      <point x="214" y="685" type="line"/>
      <point x="214" y="392" type="line"/>
      <point x="482" y="392" type="line"/>
      <point x="482" y="680" type="line"/>
      <point x="611" y="680" type="line"/>
    </contour>
  </outline>
</glyph>
<glyph name="I" format="2">
  <advance width="299"/>
  <unicode hex="0049"/>
  <anchor x="148" y="0" name="bottom"/>
  <anchor x="152" y="680" name="topU"/>
  <outline>
    <contour>
      <point x="214" y="0" type="line"/>
      <point x="85" y="0" type="line"/>
      <point x="85" y="680" type="line"/>
      <point x="214" y="680" type="line"/>
    </contour>
  </outline>
</glyph>
<glyph name="J" format="2">
  <advance width="294"/>
  <unicode hex="004A"/>
  <outline>
    <contour>
      <point x="88" y="87" type="qcurve" smooth="yes"/>
      <point x="88" y="680" type="line"/>
      <point x="219" y="680" type="line"/>
      <point x="219" y="68" type="line" smooth="yes"/>
      <point x="219.0" y="-0.6567164179104452"/>
      <point x="151.55223880597015" y="-72.8955223880597"/>
      <point x="62" y="-102" type="qcurve"/>
      <point x="10" y="-6" type="line"/>
      <point x="62.98507462686567" y="12.656716417910445"/>
      <point x="88.0" y="45.2089552238806"/>
    </contour>
  </outline>
</glyph>
<glyph name="K" format="2">
  <advance width="658"/>
  <unicode hex="004B"/>
  <anchor x="356" y="0" name="bottom"/>
  <outline>
    <contour>
      <point x="487" y="0" type="line"/>
      <point x="648" y="0" type="line"/>
      <point x="371.698" y="376.511" type="line"/>
      <point x="606" y="621" type="line"/>
      <point x="510" y="695" type="line"/>
      <point x="215" y="395" type="line"/>
      <point x="215" y="680" type="line"/>
      <point x="85" y="680" type="line"/>
      <point x="85" y="0" type="line"/>
      <point x="215" y="0" type="line"/>
      <point x="215" y="213" type="line"/>
      <point x="282.384" y="283.314" type="line"/>
    </contour>
  </outline>
</glyph>
<glyph name="L" format="2">
  <advance width="544"/>
  <unicode hex="004C"/>
  <anchor x="369" y="0" name="bottom"/>
  <anchor x="214" y="680" name="topU"/>
  <outline>
    <contour>
      <point x="514" y="101" type="line"/>
      <point x="534" y="0" type="line"/>
      <point x="85" y="0" type="line"/>
      <point x="85" y="680" type="line"/>
      <point x="214" y="680" type="line"/>
      <point x="214" y="101" type="line"/>
    </contour>
  </outline>
</glyph>
<glyph name="M" format="2">
  <advance width="770"/>
  <unicode hex="004D"/>
  <outline>
    <contour>
      <point x="427" y="213" type="line"/>
      <point x="377" y="206" type="line"/>
      <point x="214" y="415" type="line"/>
      <point x="214" y="0" type="line"/>
      <point x="85" y="0" type="line"/>
      <point x="85" y="680" type="line"/>
      <point x="167" y="680" type="line"/>
      <point x="397" y="366" type="line"/>
      <point x="606" y="680" type="line"/>
      <point x="685" y="680" type="line"/>
      <point x="685" y="0" type="line"/>
      <point x="554" y="0" type="line"/>
      <point x="554" y="392" type="line"/>
    </contour>
  </outline>
</glyph>
<glyph name="N" format="2">
  <advance width="744"/>
  <unicode hex="004E"/>
  <anchor x="381" y="0" name="bottom"/>
  <anchor x="378" y="680" name="topU"/>
  <outline>
    <contour>
      <point x="214" y="0" type="line"/>
      <point x="85" y="0" type="line"/>
      <point x="85" y="680" type="line"/>
      <point x="214" y="680" type="line"/>
      <point x="486" y="288" type="line"/>
      <point x="529" y="226" type="line"/>
      <point x="529" y="680" type="line"/>
      <point x="659" y="680" type="line"/>
      <point x="659" y="0" type="line"/>
      <point x="529" y="0" type="line"/>
      <point x="241" y="416" type="line"/>
      <point x="214" y="455" type="line"/>
    </contour>
  </outline>
</glyph>
<glyph name="O" format="2">
  <advance width="737"/>
  <unicode hex="004F"/>
  <anchor x="368" y="680" name="topU"/>
  <outline>
    <contour>
      <point x="368" y="696" type="qcurve" smooth="yes"/>
      <point x="526.955223880597" y="696.0"/>
      <point x="702.0" y="489.5223880597015"/>
      <point x="702" y="344" type="qcurve" smooth="yes"/>
      <point x="702.0" y="186.53731343283584"/>
      <point x="516.5074626865671" y="-11.014925373134329"/>
      <point x="368" y="-14" type="qcurve" smooth="yes"/>
      <point x="209.7910447761194" y="-14.0"/>
      <point x="35.0" y="191.47761194029852"/>
      <point x="35" y="337" type="qcurve" smooth="yes"/>
      <point x="35.0" y="492.97014925373134"/>
      <point x="219.49253731343285" y="693.0149253731344"/>
    </contour>
    <contour>
      <point x="170" y="338" type="qcurve" smooth="yes"/>
      <point x="170.0" y="231.28358208955225"/>
      <point x="276.70149253731347" y="95.0"/>
      <point x="367" y="95" type="qcurve" smooth="yes"/>
      <point x="448.34328358208955" y="95.0"/>
      <point x="567.0" y="217.8805970149254"/>
      <point x="567" y="344" type="qcurve" smooth="yes"/>
      <point x="567.0" y="449.2238805970149"/>
      <point x="460.29850746268653" y="586.0"/>
      <point x="370" y="586" type="qcurve" smooth="yes"/>
      <point x="290.14925373134326" y="586.0"/>
      <point x="170.0" y="451.43283582089555"/>
    </contour>
  </outline>
</glyph>
<glyph name="P" format="2">
  <advance width="592"/>
  <unicode hex="0050"/>
  <outline>
    <contour>
      <point x="214" y="0" type="line"/>
      <point x="85" y="0" type="line"/>
      <point x="85" y="680" type="line"/>
      <point x="298" y="680" type="line" smooth="yes"/>
      <point x="446" y="680"/>
      <point x="567" y="618"/>
      <point x="567" y="462" type="curve" smooth="yes"/>
      <point x="566" y="307"/>
      <point x="433" y="237"/>
      <point x="289" y="237" type="curve" smooth="yes"/>
      <point x="214" y="237" type="line"/>
    </contour>
    <contour>
      <point x="294" y="572" type="curve" smooth="yes"/>
      <point x="214" y="572" type="line"/>
      <point x="214" y="344" type="line"/>
      <point x="296" y="344" type="line" smooth="yes"/>
      <point x="373" y="344"/>
      <point x="425" y="378"/>
      <point x="430" y="454" type="curve"/>
      <point x="430" y="542"/>
      <point x="379" y="572"/>
    </contour>
  </outline>
</glyph>
<glyph name="R" format="2">
  <advance width="628"/>
  <unicode hex="0052"/>
  <anchor x="348" y="0" name="bottom"/>
  <anchor x="299" y="680" name="topU"/>
  <outline>
    <contour>
      <point x="294" y="572" type="curve" smooth="yes"/>
      <point x="214" y="572" type="line"/>
      <point x="214" y="364" type="line"/>
      <point x="296" y="364" type="line" smooth="yes"/>
      <point x="373" y="364"/>
      <point x="430" y="393"/>
      <point x="430" y="465" type="curve" smooth="yes"/>
      <point x="430" y="541"/>
      <point x="379" y="572"/>
    </contour>
    <contour>
      <point x="85" y="680" type="line"/>
      <point x="298" y="680" type="line" smooth="yes"/>
      <point x="446" y="680"/>
      <point x="567" y="614"/>
      <point x="567" y="471" type="curve" smooth="yes"/>
      <point x="567" y="387"/>
      <point x="519" y="325"/>
      <point x="451" y="292" type="curve"/>
      <point x="618" y="0" type="line"/>
      <point x="480" y="0" type="line"/>
      <point x="336" y="258" type="line"/>
      <point x="214" y="258" type="line"/>
      <point x="214" y="0" type="line"/>
      <point x="85" y="0" type="line"/>
    </contour>
  </outline>
</glyph>
<glyph name="S" format="2">
  <advance width="527"/>
  <unicode hex="0053"/>
  <anchor x="248" y="0" name="bottom"/>
  <anchor x="269" y="680" name="topU"/>
  <outline>
    <contour>
      <point x="47" y="45" type="qcurve"/>
      <point x="76" y="150" type="line"/>
      <point x="106.59701492537313" y="134.32835820895522"/>
      <point x="203.46268656716418" y="102.0"/>
      <point x="246" y="102" type="qcurve" smooth="yes"/>
      <point x="306.44776119402985" y="102.0"/>
      <point x="368.0" y="140.17910447761193"/>
      <point x="368" y="176" type="qcurve" smooth="yes"/>
      <point x="368.0" y="209.5820895522388"/>
      <point x="284.2686567164179" y="260.3880597014925"/>
      <point x="238" y="288" type="qcurve" smooth="yes"/>
      <point x="166.3582089552239" y="331.2835820895522"/>
      <point x="35.0" y="435.64179104477614"/>
      <point x="35" y="514" type="qcurve" smooth="yes"/>
      <point x="35.0" y="590.8656716417911"/>
      <point x="157.80597014925374" y="696.0"/>
      <point x="269" y="696" type="qcurve" smooth="yes"/>
      <point x="319.74626865671644" y="696.0"/>
      <point x="422.1940298507463" y="663.6567164179105"/>
      <point x="461" y="645" type="qcurve"/>
      <point x="418" y="541" type="line"/>
      <point x="387.4029850746269" y="555.9253731343283"/>
      <point x="315.02985074626866" y="583.0"/>
      <point x="271" y="583" type="qcurve" smooth="yes"/>
      <point x="228.46268656716418" y="583.0"/>
      <point x="169.0" y="549.0746268656717"/>
      <point x="169" y="514" type="qcurve" smooth="yes"/>
      <point x="169.0" y="475.94029850746267"/>
      <point x="247.0" y="427.85074626865674"/>
      <point x="297" y="398" type="qcurve" smooth="yes"/>
      <point x="369.3880597014925" y="354.7164179104478"/>
      <point x="502.0" y="260.56716417910445"/>
      <point x="502" y="174" type="qcurve" smooth="yes"/>
      <point x="502.0" y="93.40298507462687"/>
      <point x="370.3880597014925" y="-13.0"/>
      <point x="248" y="-13" type="qcurve" smooth="yes"/>
      <point x="205.46268656716418" y="-13.0"/>
      <point x="79.83582089552239" y="24.850746268656717"/>
    </contour>
  </outline>
</glyph>
<glyph name="T" format="2">
  <advance width="591"/>
  <unicode hex="0054"/>
  <anchor x="283" y="0" name="bottom"/>
  <anchor x="284" y="680" name="topU"/>
  <outline>
    <contour>
      <point x="560" y="680" type="line"/>
      <point x="581" y="578" type="line"/>
      <point x="348" y="578" type="line"/>
      <point x="348" y="0" type="line"/>
      <point x="217" y="0" type="line"/>
      <point x="217" y="578" type="line"/>
      <point x="10" y="578" type="line"/>
      <point x="10" y="680" type="line"/>
    </contour>
  </outline>
</glyph>
<glyph name="U" format="2">
  <advance width="710"/>
  <unicode hex="0055"/>
  <anchor x="355" y="0" name="bottom"/>
  <anchor x="355" y="680" name="topU"/>
  <outline>
    <contour>
      <point x="206" y="680" type="line"/>
      <point x="206" y="257" type="line" smooth="yes"/>
      <point x="206" y="144"/>
      <point x="268" y="95"/>
      <point x="355" y="95" type="curve" smooth="yes"/>
      <point x="443" y="95"/>
      <point x="504" y="148"/>
      <point x="504" y="257" type="curve" smooth="yes"/>
      <point x="504" y="680" type="line"/>
      <point x="635" y="680" type="line"/>
      <point x="635" y="247" type="line" smooth="yes"/>
      <point x="635" y="100"/>
      <point x="526" y="-10"/>
      <point x="355" y="-11" type="curve" smooth="yes"/>
      <point x="184" y="-12"/>
      <point x="76" y="100"/>
      <point x="76" y="247" type="curve" smooth="yes"/>
      <point x="75" y="680" type="line"/>
    </contour>
  </outline>
</glyph>
<glyph name="V" format="2">
  <advance width="659"/>
  <unicode hex="0056"/>
  <outline>
    <contour>
      <point x="140" y="690" type="line"/>
      <point x="332" y="178" type="line"/>
      <point x="519" y="680" type="line"/>
      <point x="649" y="680" type="line"/>
      <point x="384" y="0" type="line"/>
      <point x="274" y="0" type="line"/>
      <point x="10" y="672" type="line"/>
    </contour>
  </outline>
</glyph>
<glyph name="W" format="2">
  <advance width="925"/>
  <unicode hex="0057"/>
  <outline>
    <contour>
      <point x="915" y="680" type="line"/>
      <point x="785" y="680" type="line"/>
      <point x="658" y="178" type="line"/>
      <point x="529" y="680" type="line"/>
      <point x="399" y="680" type="line"/>
      <point x="272" y="178" type="line"/>
      <point x="140" y="690" type="line"/>
      <point x="10" y="672" type="line"/>
      <point x="214" y="0" type="line"/>
      <point x="324" y="0" type="line"/>
      <point x="462" y="496" type="line"/>
      <point x="600" y="0" type="line"/>
      <point x="710" y="0" type="line"/>
    </contour>
  </outline>
</glyph>
<glyph name="X" format="2">
  <advance width="637"/>
  <unicode hex="0058"/>
  <outline>
    <contour>
      <point x="143" y="0" type="line"/>
      <point x="10" y="0" type="line"/>
      <point x="248" y="344" type="line"/>
      <point x="22" y="656" type="line"/>
      <point x="135" y="700" type="line"/>
      <point x="325" y="428" type="line"/>
      <point x="492" y="680" type="line"/>
      <point x="627" y="680" type="line"/>
      <point x="390" y="339" type="line"/>
      <point x="614" y="0" type="line"/>
      <point x="478" y="0" type="line"/>
      <point x="314" y="256" type="line"/>
    </contour>
  </outline>
</glyph>
<glyph name="Y" format="2">
  <advance width="608"/>
  <unicode hex="0059"/>
  <anchor x="296" y="680" name="topU"/>
  <outline>
    <contour>
      <point x="362" y="0" type="line"/>
      <point x="232" y="0" type="line"/>
      <point x="232" y="265" type="line"/>
      <point x="10" y="657" type="line"/>
      <point x="138" y="694" type="line"/>
      <point x="296" y="396" type="line"/>
      <point x="461" y="680" type="line"/>
      <point x="598" y="680" type="line"/>
      <point x="362" y="260" type="line"/>
    </contour>
  </outline>
</glyph>
<glyph name="Z" format="2">
  <advance width="577"/>
  <unicode hex="005A"/>
  <anchor x="280" y="680" name="topU"/>
  <outline>
    <contour>
      <point x="547" y="101" type="line"/>
      <point x="562" y="0" type="line"/>
      <point x="30" y="0" type="line"/>
      <point x="15" y="101" type="line"/>
      <point x="403" y="578" type="line"/>
      <point x="59" y="578" type="line"/>
      <point x="44" y="680" type="line"/>
      <point x="539" y="680" type="line"/>
      <point x="554" y="578" type="line"/>
      <point x="155" y="101" type="line"/>
    </contour>
  </outline>
</glyph>
<glyph name="bracketleft" format="2">
  <advance width="362"/>
  <unicode hex="005B"/>
  <outline>
    <contour>
      <point x="100" y="-88" type="line"/>
      <point x="100" y="696" type="line"/>
      <point x="352" y="696" type="line"/>
      <point x="332" y="594" type="line"/>
      <point x="229" y="594" type="line"/>
      <point x="229" y="13" type="line"/>
      <point x="332" y="13" type="line"/>
      <point x="352" y="-88" type="line"/>
    </contour>
  </outline>
</glyph>
<glyph name="backslash" format="2">
  <advance width="454"/>
  <unicode hex="005C"/>
  <outline>
    <contour>
      <point x="444" y="0" type="line"/>
      <point x="308" y="-4" type="line"/>
      <point x="10" y="706" type="line"/>
      <point x="145" y="710" type="line"/>
    </contour>
  </outline>
</glyph>
<glyph name="bracketright" format="2">
  <advance width="362"/>
  <unicode hex="005D"/>
  <outline>
    <contour>
      <point x="262" y="696" type="line"/>
      <point x="262" y="-88" type="line"/>
      <point x="10" y="-88" type="line"/>
      <point x="28" y="13" type="line"/>
      <point x="131" y="13" type="line"/>
      <point x="131" y="594" type="line"/>
      <point x="28" y="594" type="line"/>
      <point x="10" y="696" type="line"/>
    </contour>
  </outline>
</glyph>
<glyph name="asciicircum" format="2">
  <advance width="454"/>
  <unicode hex="005E"/>
  <outline>
    <contour>
      <point x="227" y="258" type="line"/>
      <point x="145" y="143" type="line"/>
      <point x="10" y="143" type="line"/>
      <point x="188" y="390" type="line"/>
      <point x="267" y="390" type="line"/>
      <point x="444" y="143" type="line"/>
      <point x="310" y="143" type="line"/>
    </contour>
  </outline>
</glyph>
<glyph name="underscore" format="2">
  <advance width="442"/>
  <unicode hex="005F"/>
  <outline>
    <contour>
      <point x="402" y="101" type="line"/>
      <point x="412" y="0" type="line"/>
      <point x="41" y="0" type="line"/>
      <point x="30" y="101" type="line"/>
    </contour>
  </outline>
</glyph>
<glyph name="grave" format="2">
  <advance width="205"/>
  <unicode hex="0060"/>
  <anchor x="124" y="485" name="_top"/>
  <outline>
    <contour>
      <point x="105" y="589" type="line"/>
      <point x="10" y="753" type="line"/>
      <point x="144" y="753" type="line"/>
      <point x="195" y="614" type="line"/>
    </contour>
  </outline>
</glyph>
<glyph name="a" format="2">
  <advance width="503"/>
  <unicode hex="0061"/>
  <anchor x="391" y="0" name="bottom"/>
  <anchor x="255" y="485" name="top"/>
  <outline>
    <contour>
      <point x="102" y="346" type="curve"/>
      <point x="67" y="454" type="line"/>
      <point x="104" y="479"/>
      <point x="200" y="498"/>
      <point x="241" y="498" type="curve" smooth="yes"/>
      <point x="357" y="498"/>
      <point x="452" y="423"/>
      <point x="452" y="319" type="curve" smooth="yes"/>
      <point x="452" y="0" type="line"/>
      <point x="367" y="0" type="line"/>
      <point x="345" y="52" type="line"/>
      <point x="309" y="14"/>
      <point x="265" y="-12"/>
      <point x="217" y="-12" type="curve" smooth="yes"/>
      <point x="98" y="-12"/>
      <point x="42" y="52"/>
      <point x="42" y="145" type="curve" smooth="yes"/>
      <point x="42" y="245"/>
      <point x="117" y="300"/>
      <point x="226" y="300" type="curve" smooth="yes"/>
      <point x="321" y="300" type="line"/>
      <point x="320" y="349"/>
      <point x="291" y="378"/>
      <point x="243" y="378" type="curve" smooth="yes"/>
      <point x="198" y="378"/>
      <point x="138" y="363"/>
    </contour>
    <contour>
      <point x="153" y="145" type="curve" smooth="yes"/>
      <point x="153" y="117"/>
      <point x="178" y="91"/>
      <point x="215" y="91" type="curve" smooth="yes"/>
      <point x="251" y="91"/>
      <point x="289" y="107"/>
      <point x="322" y="139" type="curve"/>
      <point x="322" y="213" type="line"/>
      <point x="224" y="213" type="line" smooth="yes"/>
      <point x="179" y="213"/>
      <point x="153" y="180"/>
    </contour>
  </outline>
</glyph>
<glyph name="b" format="2">
  <advance width="554"/>
  <unicode hex="0062"/>
  <outline>
    <contour>
      <point x="131" y="0" type="line"/>
      <point x="65" y="0" type="line"/>
      <point x="65" y="695" type="line"/>
      <point x="194" y="706" type="line"/>
      <point x="194" y="83" type="line"/>
    </contour>
    <contour>
      <point x="150" y="324" type="qcurve"/>
      <point x="113" y="408" type="line"/>
      <point x="146.5820895522388" y="449.04477611940297"/>
      <point x="233.50746268656718" y="498.0"/>
      <point x="285" y="498" type="qcurve" smooth="yes"/>
      <point x="397.6865671641791" y="498.0"/>
      <point x="529.0" y="359.67164179104475"/>
      <point x="529" y="244" type="qcurve" smooth="yes"/>
      <point x="529.0" y="130.56716417910448"/>
      <point x="398.1641791044776" y="-12.0"/>
      <point x="281" y="-12" type="qcurve" smooth="yes"/>
      <point x="234.73134328358208" y="-12.0"/>
      <point x="135.38805970149252" y="44.67164179104478"/>
      <point x="113" y="79" type="qcurve"/>
      <point x="150" y="167" type="line"/>
      <point x="185.07462686567163" y="128.9402985074627"/>
      <point x="246.4179104477612" y="99.0"/>
      <point x="280" y="99" type="qcurve" smooth="yes"/>
      <point x="334.4776119402985" y="99.0"/>
      <point x="395.0" y="182.05970149253733"/>
      <point x="395" y="244" type="qcurve" smooth="yes"/>
      <point x="395.0" y="306.6865671641791"/>
      <point x="334.4776119402985" y="387.0"/>
      <point x="280" y="387" type="qcurve" smooth="yes"/>
      <point x="246.4179104477612" y="387.0"/>
      <point x="185.07462686567163" y="354.5970149253731"/>
    </contour>
  </outline>
</glyph>
<glyph name="c" format="2">
  <advance width="472"/>
  <unicode hex="0063"/>
  <anchor x="270" y="0" name="bottom"/>
  <anchor x="261" y="485" name="top"/>
  <outline>
    <contour>
      <point x="414" y="132" type="curve"/>
      <point x="451" y="38" type="line"/>
      <point x="406" y="3"/>
      <point x="324" y="-12"/>
      <point x="283" y="-12" type="curve" smooth="yes"/>
      <point x="126" y="-12"/>
      <point x="25" y="87"/>
      <point x="25" y="242" type="curve" smooth="yes"/>
      <point x="25" y="397"/>
      <point x="126" y="498"/>
      <point x="283" y="498" type="curve" smooth="yes"/>
      <point x="324" y="498"/>
      <point x="403" y="480"/>
      <point x="451" y="447" type="curve"/>
      <point x="414" y="354" type="line"/>
      <point x="367" y="375"/>
      <point x="329" y="387"/>
      <point x="284" y="387" type="curve" smooth="yes"/>
      <point x="211" y="387"/>
      <point x="159" y="325"/>
      <point x="159" y="242" type="curve" smooth="yes"/>
      <point x="159" y="158"/>
      <point x="211" y="99"/>
      <point x="284" y="99" type="curve" smooth="yes"/>
      <point x="329" y="99"/>
      <point x="367" y="111"/>
    </contour>
  </outline>
</glyph>
<glyph name="e" format="2">
  <advance width="515"/>
  <unicode hex="0065"/>
  <anchor x="344" y="0" name="bottom"/>
  <anchor x="267" y="485" name="top"/>
  <outline>
    <contour>
      <point x="490" y="204" type="line"/>
      <point x="163" y="204" type="line"/>
      <point x="171.955223880597" y="156.23880597014926"/>
      <point x="237.3582089552239" y="99.0"/>
      <point x="309" y="99" type="qcurve" smooth="yes"/>
      <point x="351.53731343283584" y="99.0"/>
      <point x="417.91044776119406" y="123.34328358208955"/>
      <point x="450" y="142" type="qcurve"/>
      <point x="488" y="48" type="line"/>
      <point x="454.4179104477612" y="21.880597014925375"/>
      <point x="368.6865671641791" y="-12.0"/>
      <point x="306" y="-12" type="qcurve" smooth="yes"/>
      <point x="165.70149253731344" y="-12.0"/>
      <point x="25.0" y="126.32835820895524"/>
      <point x="25" y="242" type="qcurve" smooth="yes"/>
      <point x="25.0" y="357.67164179104475"/>
      <point x="156.3134328358209" y="498.0"/>
      <point x="269" y="498" type="qcurve" smooth="yes"/>
      <point x="382.43283582089555" y="498.0"/>
      <point x="490.0" y="346.23880597014926"/>
      <point x="490" y="244" type="qcurve" smooth="yes"/>
    </contour>
    <contour>
      <point x="164" y="291" type="qcurve"/>
      <point x="367" y="291" type="line"/>
      <point x="357.2985074626866" y="339.5074626865672"/>
      <point x="304.8059701492537" y="387.0"/>
      <point x="266" y="387" type="qcurve" smooth="yes"/>
      <point x="226.44776119402985" y="387.0"/>
      <point x="172.2089552238806" y="338.0149253731343"/>
    </contour>
  </outline>
</glyph>
<glyph name="f" format="2">
  <advance width="373"/>
  <unicode hex="0066"/>
  <outline>
    <contour>
      <point x="12" y="384" type="line"/>
      <point x="12" y="484" type="line"/>
      <point x="87" y="484" type="line"/>
      <point x="87" y="521" type="line" smooth="yes"/>
      <point x="87.0" y="604.5820895522388"/>
      <point x="186.44776119402985" y="702.0"/>
      <point x="276" y="702" type="qcurve" smooth="yes"/>
      <point x="299.13432835820896" y="702.0"/>
      <point x="357.32835820895525" y="683.6865671641791"/>
      <point x="373" y="671" type="qcurve"/>
      <point x="336" y="577" type="line"/>
      <point x="321.07462686567163" y="582.9701492537314"/>
      <point x="293.94029850746267" y="590.0"/>
      <point x="282" y="590" type="qcurve" smooth="yes"/>
      <point x="248.4179104477612" y="590.0"/>
      <point x="217.0" y="541.0597014925373"/>
      <point x="217" y="503" type="qcurve" smooth="yes"/>
      <point x="217" y="484" type="line"/>
      <point x="309" y="484" type="line"/>
      <point x="350" y="384" type="line"/>
      <point x="217" y="384" type="line"/>
      <point x="217" y="0" type="line"/>
      <point x="87" y="0" type="line"/>
      <point x="87" y="384" type="line"/>
    </contour>
  </outline>
</glyph>
<glyph name="g" format="2">
  <advance width="568"/>
  <unicode hex="0067"/>
  <anchor x="261" y="485" name="top"/>
  <outline>
    <contour>
      <point x="507" y="485" type="line"/>
      <point x="507" y="-23" type="line" smooth="yes"/>
      <point x="507" y="-159"/>
      <point x="403" y="-230"/>
      <point x="249" y="-230" type="curve" smooth="yes"/>
      <point x="208" y="-230"/>
      <point x="103" y="-210"/>
      <point x="51" y="-175" type="curve"/>
      <point x="90" y="-83" type="line"/>
      <point x="150" y="-112"/>
      <point x="197" y="-125"/>
      <point x="246" y="-126" type="curve" smooth="yes"/>
      <point x="323" y="-125"/>
      <point x="376" y="-86"/>
      <point x="376" y="-22" type="curve" smooth="yes"/>
      <point x="376" y="390" type="line"/>
      <point x="439" y="485" type="line"/>
    </contour>
    <contour>
      <point x="404" y="162" type="curve"/>
      <point x="441" y="78" type="line"/>
      <point x="396" y="23"/>
      <point x="338" y="-12"/>
      <point x="269" y="-12" type="curve" smooth="yes"/>
      <point x="118" y="-12"/>
      <point x="25" y="87"/>
      <point x="25" y="242" type="curve" smooth="yes"/>
      <point x="25" y="394"/>
      <point x="116" y="498"/>
      <point x="273" y="498" type="curve" smooth="yes"/>
      <point x="335" y="498"/>
      <point x="411" y="453"/>
      <point x="441" y="407" type="curve"/>
      <point x="404" y="319" type="line"/>
      <point x="357" y="370"/>
      <point x="319" y="387"/>
      <point x="274" y="387" type="curve" smooth="yes"/>
      <point x="201" y="387"/>
      <point x="159" y="325"/>
      <point x="159" y="242" type="curve" smooth="yes"/>
      <point x="159" y="158"/>
      <point x="201" y="99"/>
      <point x="274" y="99" type="curve" smooth="yes"/>
      <point x="319" y="99"/>
      <point x="357" y="121"/>
    </contour>
  </outline>
</glyph>
<glyph name="h" format="2">
  <advance width="575"/>
  <unicode hex="0068"/>
  <outline>
    <contour>
      <point x="194" y="336" type="curve"/>
      <point x="171" y="433" type="line"/>
      <point x="233" y="477"/>
      <point x="306" y="501"/>
      <point x="358" y="501" type="curve" smooth="yes"/>
      <point x="490" y="501"/>
      <point x="524" y="416"/>
      <point x="524" y="304" type="curve" smooth="yes"/>
      <point x="524" y="0" type="line"/>
      <point x="394" y="0" type="line"/>
      <point x="394" y="298" type="line" smooth="yes"/>
      <point x="394" y="359"/>
      <point x="367" y="393"/>
      <point x="324" y="393" type="curve" smooth="yes"/>
      <point x="273" y="393"/>
      <point x="227" y="360"/>
    </contour>
    <contour>
      <point x="194" y="0" type="line"/>
      <point x="65" y="0" type="line"/>
      <point x="65" y="695" type="line"/>
      <point x="194" y="706" type="line"/>
    </contour>
  </outline>
</glyph>
<glyph name="i" format="2">
  <advance width="240"/>
  <unicode hex="0069"/>
  <anchor x="121" y="0" name="bottom"/>
  <outline>
    <contour>
      <point x="185" y="0" type="line"/>
      <point x="55" y="0" type="line"/>
      <point x="55" y="485" type="line"/>
      <point x="185" y="485" type="line"/>
    </contour>
    <contour>
      <point x="119" y="554" type="curve" smooth="yes"/>
      <point x="79" y="554"/>
      <point x="47" y="586"/>
      <point x="47" y="627" type="curve" smooth="yes"/>
      <point x="47" y="668"/>
      <point x="79" y="700"/>
      <point x="119" y="700" type="curve" smooth="yes"/>
      <point x="160" y="700"/>
      <point x="193" y="668"/>
      <point x="193" y="627" type="curve" smooth="yes"/>
      <point x="193" y="586"/>
      <point x="160" y="554"/>
    </contour>
  </outline>
</glyph>
<glyph name="j" format="2">
  <advance width="261"/>
  <unicode hex="006A"/>
  <outline>
    <contour>
      <point x="136" y="554" type="qcurve" smooth="yes"/>
      <point x="166.59701492537312" y="554.0"/>
      <point x="210.0" y="596.4029850746268"/>
      <point x="210" y="627" type="qcurve" smooth="yes"/>
      <point x="210.0" y="657.5970149253732"/>
      <point x="166.59701492537312" y="700.0"/>
      <point x="136" y="700" type="qcurve" smooth="yes"/>
      <point x="105.40298507462687" y="700.0"/>
      <point x="63.0" y="657.5970149253732"/>
      <point x="63" y="627" type="qcurve" smooth="yes"/>
      <point x="63.0" y="596.4029850746268"/>
      <point x="105.40298507462687" y="554.0"/>
    </contour>
    <contour>
      <point x="202" y="485" type="line"/>
      <point x="71" y="485" type="line"/>
      <point x="71" y="20" type="line" smooth="yes"/>
      <point x="71.0" y="-22.537313432835816"/>
      <point x="47.98507462686567" y="-76.34328358208955"/>
      <point x="-5" y="-95" type="qcurve"/>
      <point x="46" y="-194" type="line"/>
      <point x="140.77611940298505" y="-164.1492537313433"/>
      <point x="202.0" y="-79.65671641791045"/>
      <point x="202" y="-11" type="qcurve" smooth="yes"/>
    </contour>
  </outline>
</glyph>
<glyph name="k" format="2">
  <advance width="517"/>
  <unicode hex="006B"/>
  <anchor x="275" y="0" name="bottom"/>
  <outline>
    <contour>
      <point x="194" y="0" type="line"/>
      <point x="65" y="0" type="line"/>
      <point x="65" y="695" type="line"/>
      <point x="194" y="706" type="line"/>
      <point x="194" y="308" type="line"/>
      <point x="402" y="499" type="line"/>
      <point x="475" y="407" type="line"/>
      <point x="339" y="288" type="line"/>
      <point x="517" y="0" type="line"/>
      <point x="368" y="0" type="line"/>
      <point x="246" y="205" type="line"/>
      <point x="194" y="159" type="line"/>
    </contour>
  </outline>
</glyph>
<glyph name="l" format="2">
  <advance width="259"/>
  <unicode hex="006C"/>
  <anchor x="136" y="0" name="bottom"/>
  <outline>
    <contour>
      <point x="194" y="0" type="line"/>
      <point x="65" y="0" type="line"/>
      <point x="65" y="695" type="line"/>
      <point x="194" y="706" type="line"/>
    </contour>
  </outline>
</glyph>
<glyph name="m" format="2">
  <advance width="855"/>
  <unicode hex="006D"/>
  <outline>
    <contour>
      <point x="185" y="0" type="line"/>
      <point x="55" y="0" type="line"/>
      <point x="55" y="485" type="line"/>
      <point x="140" y="485" type="line"/>
      <point x="162" y="433" type="line"/>
      <point x="208.26865671641792" y="465.8358208955224"/>
      <point x="303.92537313432837" y="501.0"/>
      <point x="339" y="501" type="qcurve" smooth="yes"/>
      <point x="424.82089552238807" y="501.0"/>
      <point x="495.0" y="407.5820895522388"/>
      <point x="495" y="324" type="qcurve" smooth="yes"/>
      <point x="495" y="0" type="line"/>
      <point x="365" y="0" type="line"/>
      <point x="365" y="298" type="line" smooth="yes"/>
      <point x="365.0" y="343.5223880597015"/>
      <point x="337.08955223880594" y="393.0"/>
      <point x="305" y="393" type="qcurve" smooth="yes"/>
      <point x="270.67164179104475" y="393.0"/>
      <point x="209.62686567164178" y="353.910447761194"/>
      <point x="185" y="336" type="qcurve"/>
    </contour>
    <contour>
      <point x="494" y="336" type="qcurve"/>
      <point x="471" y="433" type="line"/>
      <point x="517.2686567164179" y="465.8358208955224"/>
      <point x="612.9253731343283" y="501.0"/>
      <point x="648" y="501" type="qcurve" smooth="yes"/>
      <point x="733.820895522388" y="501.0"/>
      <point x="804.0" y="407.5820895522388"/>
      <point x="804" y="324" type="qcurve" smooth="yes"/>
      <point x="804" y="0" type="line"/>
      <point x="674" y="0" type="line"/>
      <point x="674" y="298" type="line" smooth="yes"/>
      <point x="674.0" y="343.5223880597015"/>
      <point x="646.0895522388059" y="393.0"/>
      <point x="614" y="393" type="qcurve" smooth="yes"/>
      <point x="579.6716417910447" y="393.0"/>
      <point x="518.6268656716418" y="353.910447761194"/>
    </contour>
  </outline>
</glyph>
<glyph name="n" format="2">
  <advance width="566"/>
  <unicode hex="006E"/>
  <anchor x="293" y="0" name="bottom"/>
  <anchor x="296" y="485" name="top"/>
  <outline>
    <contour>
      <point x="185" y="0" type="line"/>
      <point x="55" y="0" type="line"/>
      <point x="55" y="485" type="line"/>
      <point x="140" y="485" type="line"/>
      <point x="162" y="433" type="line"/>
      <point x="208.26865671641792" y="465.8358208955224"/>
      <point x="310.1940298507463" y="501.0"/>
      <point x="349" y="501" type="qcurve" smooth="yes"/>
      <point x="447.5074626865671" y="501.0"/>
      <point x="515.0" y="387.5820895522388"/>
      <point x="515" y="304" type="qcurve" smooth="yes"/>
      <point x="515" y="0" type="line"/>
      <point x="385" y="0" type="line"/>
      <point x="385" y="298" type="line" smooth="yes"/>
      <point x="385.0" y="343.5223880597015"/>
      <point x="347.08955223880594" y="393.0"/>
      <point x="315" y="393" type="qcurve" smooth="yes"/>
      <point x="276.94029850746267" y="393.0"/>
      <point x="209.62686567164178" y="353.910447761194"/>
      <point x="185" y="336" type="qcurve"/>
    </contour>
  </outline>
</glyph>
<glyph name="o" format="2">
  <advance width="568"/>
  <unicode hex="006F"/>
  <anchor x="283" y="485" name="top"/>
  <outline>
    <contour>
      <point x="543" y="244" type="qcurve" smooth="yes"/>
      <point x="543.0" y="359.67164179104475"/>
      <point x="401.1641791044776" y="498.0"/>
      <point x="284" y="498" type="qcurve" smooth="yes"/>
      <point x="166.8358208955224" y="498.0"/>
      <point x="25.0" y="357.67164179104475"/>
      <point x="25" y="242" type="qcurve" smooth="yes"/>
      <point x="25.0" y="126.32835820895524"/>
      <point x="166.8358208955224" y="-12.0"/>
      <point x="284" y="-12" type="qcurve" smooth="yes"/>
      <point x="401.1641791044776" y="-12.0"/>
      <point x="543.0" y="128.32835820895525"/>
    </contour>
    <contour>
      <point x="284" y="99" type="qcurve" smooth="yes"/>
      <point x="229.52238805970148" y="99.0"/>
      <point x="159.0" y="179.3134328358209"/>
      <point x="159" y="242" type="qcurve" smooth="yes"/>
      <point x="159.0" y="303.94029850746267"/>
      <point x="229.52238805970148" y="387.0"/>
      <point x="284" y="387" type="qcurve" smooth="yes"/>
      <point x="338.4776119402985" y="387.0"/>
      <point x="409.0" y="306.6865671641791"/>
      <point x="409" y="244" type="qcurve" smooth="yes"/>
      <point x="409.0" y="182.05970149253733"/>
      <point x="338.4776119402985" y="99.0"/>
    </contour>
  </outline>
</glyph>
<glyph name="p" format="2">
  <advance width="550"/>
  <unicode hex="0070"/>
  <outline>
    <contour>
      <point x="190" y="-209" type="line"/>
      <point x="61" y="-219" type="line"/>
      <point x="61" y="485" type="line"/>
      <point x="127" y="485" type="line"/>
      <point x="190" y="406" type="line"/>
    </contour>
    <contour>
      <point x="146" y="324" type="curve"/>
      <point x="109" y="408" type="line"/>
      <point x="154" y="463"/>
      <point x="212" y="498"/>
      <point x="281" y="498" type="curve" smooth="yes"/>
      <point x="432" y="498"/>
      <point x="525" y="399"/>
      <point x="525" y="244" type="curve" smooth="yes"/>
      <point x="525" y="92"/>
      <point x="434" y="-12"/>
      <point x="277" y="-12" type="curve" smooth="yes"/>
      <point x="215" y="-12"/>
      <point x="139" y="33"/>
      <point x="109" y="79" type="curve"/>
      <point x="146" y="167" type="line"/>
      <point x="193" y="116"/>
      <point x="231" y="99"/>
      <point x="276" y="99" type="curve" smooth="yes"/>
      <point x="349" y="99"/>
      <point x="391" y="161"/>
      <point x="391" y="244" type="curve" smooth="yes"/>
      <point x="391" y="328"/>
      <point x="349" y="387"/>
      <point x="276" y="387" type="curve" smooth="yes"/>
      <point x="231" y="387"/>
      <point x="193" y="365"/>
    </contour>
  </outline>
</glyph>
<glyph name="q" format="2">
  <advance width="568"/>
  <unicode hex="0071"/>
  <outline>
    <contour>
      <point x="439" y="485" type="line"/>
      <point x="507" y="485" type="line"/>
      <point x="507" y="-209" type="line"/>
      <point x="376" y="-219" type="line"/>
      <point x="376" y="389" type="line"/>
    </contour>
    <contour>
      <point x="404" y="162" type="qcurve"/>
      <point x="441" y="78" type="line"/>
      <point x="407.4179104477612" y="36.95522388059702"/>
      <point x="320.4925373134328" y="-12.0"/>
      <point x="269" y="-12" type="qcurve" smooth="yes"/>
      <point x="156.3134328358209" y="-12.0"/>
      <point x="25.0" y="126.32835820895524"/>
      <point x="25" y="242" type="qcurve" smooth="yes"/>
      <point x="25.0" y="355.43283582089555"/>
      <point x="155.8358208955224" y="498.0"/>
      <point x="273" y="498" type="qcurve" smooth="yes"/>
      <point x="319.2686567164179" y="498.0"/>
      <point x="418.6119402985075" y="441.32835820895525"/>
      <point x="441" y="407" type="qcurve"/>
      <point x="404" y="319" type="line"/>
      <point x="368.92537313432837" y="357.05970149253733"/>
      <point x="307.5820895522388" y="387.0"/>
      <point x="274" y="387" type="qcurve" smooth="yes"/>
      <point x="219.52238805970148" y="387.0"/>
      <point x="159.0" y="303.94029850746267"/>
      <point x="159" y="242" type="qcurve" smooth="yes"/>
      <point x="159.0" y="179.3134328358209"/>
      <point x="219.52238805970148" y="99.0"/>
      <point x="274" y="99" type="qcurve" smooth="yes"/>
      <point x="307.5820895522388" y="99.0"/>
      <point x="368.92537313432837" y="131.40298507462688"/>
    </contour>
  </outline>
</glyph>
<glyph name="r" format="2">
  <advance width="367"/>
  <unicode hex="0072"/>
  <anchor x="121" y="0" name="bottom"/>
  <anchor x="199" y="485" name="top"/>
  <outline>
    <contour>
      <point x="185" y="0" type="line"/>
      <point x="55" y="0" type="line"/>
      <point x="55" y="485" type="line"/>
      <point x="123" y="485" type="line"/>
      <point x="166" y="404" type="line"/>
      <point x="206" y="439"/>
      <point x="279" y="485"/>
      <point x="331" y="485" type="curve"/>
      <point x="357" y="381" type="line"/>
      <point x="313" y="381"/>
      <point x="241" y="345"/>
      <point x="185" y="296" type="curve"/>
    </contour>
  </outline>
</glyph>
<glyph name="s" format="2">
  <advance width="422"/>
  <unicode hex="0073"/>
  <anchor x="195" y="0" name="bottom"/>
  <anchor x="218" y="485" name="top"/>
  <outline>
    <contour>
      <point x="27" y="38" type="curve"/>
      <point x="66" y="126" type="line"/>
      <point x="113" y="105"/>
      <point x="157" y="93"/>
      <point x="193" y="93" type="curve" smooth="yes"/>
      <point x="227" y="93"/>
      <point x="273" y="106"/>
      <point x="273" y="135" type="curve" smooth="yes"/>
      <point x="273" y="162"/>
      <point x="243" y="183"/>
      <point x="188" y="200" type="curve" smooth="yes"/>
      <point x="111" y="225"/>
      <point x="27" y="270"/>
      <point x="27" y="350" type="curve" smooth="yes"/>
      <point x="27" y="442"/>
      <point x="100" y="498"/>
      <point x="216" y="498" type="curve" smooth="yes"/>
      <point x="257" y="498"/>
      <point x="333" y="480"/>
      <point x="382" y="447" type="curve"/>
      <point x="343" y="360" type="line"/>
      <point x="296" y="381"/>
      <point x="259" y="393"/>
      <point x="214" y="393" type="curve" smooth="yes"/>
      <point x="181" y="393"/>
      <point x="156" y="374"/>
      <point x="156" y="351" type="curve" smooth="yes"/>
      <point x="156" y="331"/>
      <point x="199" y="316"/>
      <point x="232" y="304" type="curve" smooth="yes"/>
      <point x="313" y="275"/>
      <point x="397" y="224"/>
      <point x="397" y="140" type="curve" smooth="yes"/>
      <point x="397" y="44"/>
      <point x="327" y="-12"/>
      <point x="195" y="-12" type="curve" smooth="yes"/>
      <point x="154" y="-12"/>
      <point x="72" y="3"/>
    </contour>
  </outline>
</glyph>
<glyph name="t" format="2">
  <advance width="381"/>
  <unicode hex="0074"/>
  <anchor x="227" y="0" name="bottom"/>
  <outline>
    <contour>
      <point x="292" y="484" type="line"/>
      <point x="332" y="384" type="line"/>
      <point x="204" y="384" type="line"/>
      <point x="204" y="178" type="line" smooth="yes"/>
      <point x="204.0" y="139.9402985074627"/>
      <point x="239.92537313432837" y="91.0"/>
      <point x="275" y="91" type="qcurve" smooth="yes"/>
      <point x="287.6865671641791" y="91.0"/>
      <point x="313.82089552238807" y="97.28358208955224"/>
      <point x="328" y="104" type="qcurve"/>
      <point x="366" y="10" type="line"/>
      <point x="350.32835820895525" y="-2.6865671641791025"/>
      <point x="291.13432835820896" y="-20.0"/>
      <point x="268" y="-20" type="qcurve" smooth="yes"/>
      <point x="178.44776119402985" y="-20.0"/>
      <point x="75.0" y="71.4179104477612"/>
      <point x="75" y="155" type="qcurve" smooth="yes"/>
      <point x="75" y="384" type="line"/>
      <point x="10" y="384" type="line"/>
      <point x="10" y="484" type="line"/>
      <point x="75" y="484" type="line"/>
      <point x="75" y="599" type="line"/>
      <point x="204" y="622" type="line"/>
      <point x="204" y="484" type="line"/>
    </contour>
  </outline>
</glyph>
<glyph name="u" format="2">
  <advance width="566"/>
  <unicode hex="0075"/>
  <anchor x="468" y="0" name="bottom"/>
  <anchor x="287" y="485" name="top"/>
  <outline>
    <contour>
      <point x="381" y="485" type="line"/>
      <point x="511" y="485" type="line"/>
      <point x="511" y="0" type="line"/>
      <point x="426" y="0" type="line"/>
      <point x="404" y="52" type="line"/>
      <point x="342" y="8"/>
      <point x="269" y="-16"/>
      <point x="217" y="-16" type="curve" smooth="yes"/>
      <point x="85" y="-16"/>
      <point x="51" y="69"/>
      <point x="51" y="181" type="curve" smooth="yes"/>
      <point x="51" y="485" type="line"/>
      <point x="181" y="485" type="line"/>
      <point x="181" y="187" type="line" smooth="yes"/>
      <point x="181" y="126"/>
      <point x="208" y="92"/>
      <point x="251" y="92" type="curve" smooth="yes"/>
      <point x="302" y="92"/>
      <point x="348" y="125"/>
      <point x="381" y="149" type="curve"/>
    </contour>
  </outline>
</glyph>
<glyph name="v" format="2">
  <advance width="502"/>
  <unicode hex="0076"/>
  <outline>
    <contour>
      <point x="301" y="0" type="line"/>
      <point x="189" y="0" type="line"/>
      <point x="10" y="465" type="line"/>
      <point x="137" y="503" type="line"/>
      <point x="249" y="191" type="line"/>
      <point x="355" y="485" type="line"/>
      <point x="492" y="485" type="line"/>
    </contour>
  </outline>
</glyph>
<glyph name="w" format="2">
  <advance width="717"/>
  <unicode hex="0077"/>
  <outline>
    <contour>
      <point x="552" y="0" type="line"/>
      <point x="443" y="0" type="line"/>
      <point x="352" y="297" type="line"/>
      <point x="265" y="0" type="line"/>
      <point x="155" y="0" type="line"/>
      <point x="10" y="465" type="line"/>
      <point x="138" y="503" type="line"/>
      <point x="213" y="203" type="line"/>
      <point x="283" y="485" type="line"/>
      <point x="426" y="485" type="line"/>
      <point x="501" y="203" type="line"/>
      <point x="570" y="485" type="line"/>
      <point x="707" y="485" type="line"/>
    </contour>
  </outline>
</glyph>
<glyph name="x" format="2">
  <advance width="510"/>
  <unicode hex="0078"/>
  <outline>
    <contour>
      <point x="154" y="0" type="line"/>
      <point x="10" y="0" type="line"/>
      <point x="175" y="247" type="line"/>
      <point x="27" y="464" type="line"/>
      <point x="148" y="501" type="line"/>
      <point x="258" y="330" type="line"/>
      <point x="358" y="485" type="line"/>
      <point x="500" y="485" type="line"/>
      <point x="335" y="228" type="line"/>
      <point x="484" y="0" type="line"/>
      <point x="341" y="0" type="line"/>
      <point x="251" y="146" type="line"/>
    </contour>
  </outline>
</glyph>
<glyph name="y" format="2">
  <advance width="503"/>
  <unicode hex="0079"/>
  <anchor x="247" y="486" name="top"/>
  <outline>
    <contour>
      <point x="154" y="-23" type="qcurve" smooth="yes"/>
      <point x="177" y="34" type="line"/>
      <point x="10" y="465" type="line"/>
      <point x="138" y="503" type="line"/>
      <point x="250" y="191" type="line"/>
      <point x="356" y="485" type="line"/>
      <point x="493" y="485" type="line"/>
      <point x="276" y="-64" type="line" smooth="yes"/>
      <point x="252.86567164179104" y="-122.955223880597"/>
      <point x="136.43283582089552" y="-207.07462686567163"/>
      <point x="73" y="-222" type="qcurve"/>
      <point x="27" y="-115" type="line"/>
      <point x="62.07462686567164" y="-100.07462686567165"/>
      <point x="141.3134328358209" y="-56.582089552238806"/>
    </contour>
  </outline>
</glyph>
<glyph name="z" format="2">
  <advance width="443"/>
  <unicode hex="007A"/>
  <anchor x="215" y="485" name="top"/>
  <outline>
    <contour>
      <point x="413" y="485" type="line"/>
      <point x="420" y="411" type="line"/>
      <point x="176" y="105" type="line"/>
      <point x="420" y="105" type="line"/>
      <point x="430" y="0" type="line"/>
      <point x="30" y="0" type="line"/>
      <point x="13" y="69" type="line"/>
      <point x="254" y="378" type="line"/>
      <point x="50" y="378" type="line"/>
      <point x="25" y="485" type="line"/>
    </contour>
  </outline>
</glyph>
<glyph name="braceleft" format="2">
  <advance width="294"/>
  <unicode hex="007B"/>
  <outline>
    <contour>
      <point x="191" y="309" type="curve"/>
      <point x="215" y="285"/>
      <point x="226" y="250"/>
      <point x="226" y="209" type="curve" smooth="yes"/>
      <point x="226" y="184"/>
      <point x="218" y="166"/>
      <point x="209" y="148" type="curve" smooth="yes"/>
      <point x="200" y="129"/>
      <point x="191" y="111"/>
      <point x="191" y="85" type="curve" smooth="yes"/>
      <point x="191" y="74"/>
      <point x="204" y="58"/>
      <point x="229" y="58" type="curve" smooth="yes"/>
      <point x="271" y="58" type="line"/>
      <point x="284" y="-42" type="line"/>
      <point x="226" y="-42" type="line" smooth="yes"/>
      <point x="127" y="-42"/>
      <point x="84" y="9"/>
      <point x="84" y="85" type="curve" smooth="yes"/>
      <point x="84" y="103"/>
      <point x="91" y="125"/>
      <point x="98" y="148" type="curve" smooth="yes"/>
      <point x="107" y="175"/>
      <point x="117" y="202"/>
      <point x="117" y="221" type="curve" smooth="yes"/>
      <point x="117" y="248"/>
      <point x="96" y="265"/>
      <point x="75" y="265" type="curve" smooth="yes"/>
      <point x="30" y="265" type="line"/>
      <point x="30" y="351" type="line"/>
      <point x="75" y="351" type="line" smooth="yes"/>
      <point x="96" y="351"/>
      <point x="117" y="368"/>
      <point x="117" y="395" type="curve" smooth="yes"/>
      <point x="117" y="412"/>
      <point x="104" y="443"/>
      <point x="95" y="476" type="curve" smooth="yes"/>
      <point x="89" y="496"/>
      <point x="84" y="516"/>
      <point x="84" y="533" type="curve" smooth="yes"/>
      <point x="84" y="609"/>
      <point x="127" y="659"/>
      <point x="226" y="659" type="curve" smooth="yes"/>
      <point x="284" y="659" type="line"/>
      <point x="271" y="559" type="line"/>
      <point x="229" y="559" type="line" smooth="yes"/>
      <point x="204" y="559"/>
      <point x="191" y="543"/>
      <point x="191" y="532" type="curve" smooth="yes"/>
      <point x="191" y="509"/>
      <point x="199" y="492"/>
      <point x="207" y="476" type="curve" smooth="yes"/>
      <point x="216" y="457"/>
      <point x="226" y="438"/>
      <point x="226" y="408" type="curve" smooth="yes"/>
      <point x="226" y="363"/>
      <point x="216" y="332"/>
    </contour>
  </outline>
</glyph>
<glyph name="bar" format="2">
  <advance width="299"/>
  <unicode hex="007C"/>
  <outline>
    <contour>
      <point x="85" y="713" type="line"/>
      <point x="214" y="703" type="line"/>
      <point x="214" y="-10" type="line"/>
      <point x="85" y="0" type="line"/>
    </contour>
  </outline>
</glyph>
<glyph name="braceright" format="2">
  <advance width="292"/>
  <unicode hex="007D"/>
  <outline>
    <contour>
      <point x="101" y="309" type="qcurve"/>
      <point x="82" y="326"/>
      <point x="66" y="374"/>
      <point x="66" y="408" type="qcurve" smooth="yes"/>
      <point x="66" y="428"/>
      <point x="76" y="457"/>
      <point x="82" y="470" type="qcurve" smooth="yes"/>
      <point x="89" y="484"/>
      <point x="101" y="513"/>
      <point x="101" y="532" type="qcurve" smooth="yes"/>
      <point x="101" y="540"/>
      <point x="82" y="559"/>
      <point x="63" y="559" type="qcurve" smooth="yes"/>
      <point x="21" y="559" type="line"/>
      <point x="8" y="659" type="line"/>
      <point x="66" y="659" type="line" smooth="yes"/>
      <point x="140" y="659"/>
      <point x="208" y="590"/>
      <point x="208" y="533" type="qcurve" smooth="yes"/>
      <point x="208" y="518"/>
      <point x="199" y="481"/>
      <point x="193" y="463" type="qcurve" smooth="yes"/>
      <point x="187" y="442"/>
      <point x="175" y="406"/>
      <point x="175" y="395" type="qcurve" smooth="yes"/>
      <point x="175" y="375"/>
      <point x="201" y="351"/>
      <point x="217" y="351" type="qcurve" smooth="yes"/>
      <point x="262" y="351" type="line"/>
      <point x="262" y="265" type="line"/>
      <point x="217" y="265" type="line" smooth="yes"/>
      <point x="201" y="265"/>
      <point x="175" y="241"/>
      <point x="175" y="221" type="qcurve" smooth="yes"/>
      <point x="175" y="208"/>
      <point x="185" y="175"/>
      <point x="191" y="157" type="qcurve" smooth="yes"/>
      <point x="197" y="138"/>
      <point x="208" y="100"/>
      <point x="208" y="85" type="qcurve" smooth="yes"/>
      <point x="208" y="28"/>
      <point x="140" y="-42"/>
      <point x="66" y="-42" type="qcurve" smooth="yes"/>
      <point x="8" y="-42" type="line"/>
      <point x="21" y="58" type="line"/>
      <point x="63" y="58" type="line" smooth="yes"/>
      <point x="82" y="58"/>
      <point x="101" y="77"/>
      <point x="101" y="85" type="qcurve" smooth="yes"/>
      <point x="101" y="102"/>
      <point x="91" y="130"/>
      <point x="85" y="143" type="qcurve" smooth="yes"/>
      <point x="78" y="157"/>
      <point x="66" y="188"/>
      <point x="66" y="209" type="qcurve" smooth="yes"/>
      <point x="66" y="240"/>
      <point x="83" y="291"/>
    </contour>
  </outline>
</glyph>
<glyph name="asciitilde" format="2">
  <advance width="479"/>
  <unicode hex="007E"/>
  <outline>
    <contour>
      <point x="30" y="172" type="line"/>
      <point x="30" y="262"/>
      <point x="107" y="339"/>
      <point x="156" y="339" type="qcurve" smooth="yes"/>
      <point x="186" y="339"/>
      <point x="224" y="328"/>
      <point x="241" y="322" type="qcurve" smooth="yes"/>
      <point x="254" y="317"/>
      <point x="284" y="308"/>
      <point x="306" y="308" type="qcurve" smooth="yes"/>
      <point x="314" y="308"/>
      <point x="332" y="326"/>
      <point x="333" y="346" type="qcurve"/>
      <point x="449" y="346" type="line"/>
      <point x="449" y="256"/>
      <point x="372" y="178"/>
      <point x="323" y="178" type="qcurve" smooth="yes"/>
      <point x="296" y="178"/>
      <point x="261" y="187"/>
      <point x="246" y="193" type="qcurve" smooth="yes"/>
      <point x="230" y="199"/>
      <point x="197" y="210"/>
      <point x="172" y="210" type="qcurve" smooth="yes"/>
      <point x="165" y="210"/>
      <point x="147" y="192"/>
      <point x="146" y="172" type="qcurve"/>
    </contour>
  </outline>
</glyph>
<glyph name="exclamdown" format="2">
  <advance width="207"/>
  <unicode hex="00A1"/>
  <outline>
    <contour>
      <point x="103" y="555" type="qcurve" smooth="yes"/>
      <point x="73.1492537313433" y="555.0"/>
      <point x="30.0" y="598.4029850746268"/>
      <point x="30" y="629" type="qcurve" smooth="yes"/>
      <point x="30.0" y="658.8507462686567"/>
      <point x="73.1492537313433" y="702.0"/>
      <point x="103" y="702" type="qcurve" smooth="yes"/>
      <point x="133.59701492537312" y="702.0"/>
      <point x="177.0" y="658.8507462686567"/>
      <point x="177" y="629" type="qcurve" smooth="yes"/>
      <point x="177.0" y="598.4029850746268"/>
      <point x="133.59701492537312" y="555.0"/>
    </contour>
    <contour>
      <point x="156" y="458" type="line"/>
      <point x="170" y="0" type="line"/>
      <point x="35" y="0" type="line"/>
      <point x="51" y="505" type="line"/>
    </contour>
  </outline>
</glyph>
<glyph name="cent" format="2">
  <advance width="472"/>
  <unicode hex="00A2"/>
  <outline>
    <contour>
      <point x="357" y="451" type="line"/>
      <point x="227" y="455" type="line"/>
      <point x="227" y="598" type="line"/>
      <point x="357" y="611" type="line"/>
    </contour>
    <contour>
      <point x="359" y="36" type="line"/>
      <point x="359" y="-115" type="line"/>
      <point x="229" y="-115" type="line"/>
      <point x="229" y="34" type="line"/>
    </contour>
    <contour>
      <point x="414" y="132" type="qcurve"/>
      <point x="451" y="38" type="line"/>
      <point x="417.4179104477612" y="11.880597014925375"/>
      <point x="313.5970149253731" y="-12.0"/>
      <point x="283" y="-12" type="qcurve" smooth="yes"/>
      <point x="165.8358208955224" y="-12.0"/>
      <point x="25.0" y="126.32835820895524"/>
      <point x="25" y="242" type="qcurve" smooth="yes"/>
      <point x="25.0" y="357.67164179104475"/>
      <point x="165.8358208955224" y="498.0"/>
      <point x="283" y="498" type="qcurve" smooth="yes"/>
      <point x="313.5970149253731" y="498.0"/>
      <point x="415.17910447761193" y="471.6268656716418"/>
      <point x="451" y="447" type="qcurve"/>
      <point x="414" y="354" type="line"/>
      <point x="378.92537313432837" y="369.67164179104475"/>
      <point x="317.5820895522388" y="387.0"/>
      <point x="284" y="387" type="qcurve" smooth="yes"/>
      <point x="229.52238805970148" y="387.0"/>
      <point x="159.0" y="303.94029850746267"/>
      <point x="159" y="242" type="qcurve" smooth="yes"/>
      <point x="159.0" y="179.3134328358209"/>
      <point x="229.52238805970148" y="99.0"/>
      <point x="284" y="99" type="qcurve" smooth="yes"/>
      <point x="317.5820895522388" y="99.0"/>
      <point x="378.92537313432837" y="116.32835820895522"/>
    </contour>
  </outline>
</glyph>
<glyph name="sterling" format="2">
  <advance width="506"/>
  <unicode hex="00A3"/>
  <outline>
    <contour>
      <point x="57" y="0" type="line"/>
      <point x="47" y="101" type="line"/>
      <point x="106" y="102"/>
      <point x="120" y="136"/>
      <point x="120" y="187" type="curve" smooth="yes"/>
      <point x="120" y="291" type="line"/>
      <point x="45" y="291" type="line"/>
      <point x="45" y="390" type="line"/>
      <point x="120" y="390" type="line"/>
      <point x="120" y="503" type="line" smooth="yes"/>
      <point x="120" y="615"/>
      <point x="190" y="684"/>
      <point x="310" y="684" type="curve" smooth="yes"/>
      <point x="342" y="684"/>
      <point x="387" y="671"/>
      <point x="408" y="652" type="curve"/>
      <point x="370" y="560" type="line"/>
      <point x="351" y="568"/>
      <point x="332" y="572"/>
      <point x="316" y="572" type="curve" smooth="yes"/>
      <point x="269" y="572"/>
      <point x="251" y="535"/>
      <point x="251" y="486" type="curve" smooth="yes"/>
      <point x="251" y="390" type="line"/>
      <point x="369" y="390" type="line"/>
      <point x="412" y="291" type="line"/>
      <point x="251" y="291" type="line"/>
      <point x="251" y="200" type="line" smooth="yes"/>
      <point x="251" y="163"/>
      <point x="245" y="128"/>
      <point x="230" y="101" type="curve"/>
      <point x="476" y="101" type="line"/>
      <point x="496" y="0" type="line"/>
    </contour>
  </outline>
</glyph>
<glyph name="currency" format="2">
  <advance width="701"/>
  <unicode hex="00A4"/>
  <outline>
    <contour>
      <point x="110" y="-85" type="line"/>
      <point x="30" y="11" type="line"/>
      <point x="128" y="111" type="line"/>
      <point x="112.32835820895522" y="138.61194029850745"/>
      <point x="94.0" y="204.43283582089552"/>
      <point x="94" y="241" type="qcurve" smooth="yes"/>
      <point x="94.0" y="277.56716417910445"/>
      <point x="113.32835820895522" y="345.8805970149254"/>
      <point x="129" y="372" type="qcurve"/>
      <point x="30" y="473" type="line"/>
      <point x="110" y="569" type="line"/>
      <point x="216" y="462" type="line"/>
      <point x="245.8507462686567" y="477.67164179104475"/>
      <point x="314.94029850746267" y="497.25373134328356"/>
      <point x="353" y="498" type="qcurve"/>
      <point x="389.56716417910445" y="497.25373134328356"/>
      <point x="455.8955223880597" y="478.67164179104475"/>
      <point x="485" y="463" type="qcurve"/>
      <point x="591" y="569" type="line"/>
      <point x="671" y="473" type="line"/>
      <point x="575" y="376" type="line"/>
      <point x="592.1641791044776" y="348.3880597014925"/>
      <point x="611.2537313432836" y="279.56716417910445"/>
      <point x="612" y="243" type="qcurve"/>
      <point x="611.2537313432836" y="204.1940298507463"/>
      <point x="592.1641791044776" y="135.61194029850745"/>
      <point x="575" y="108" type="qcurve"/>
      <point x="671" y="11" type="line"/>
      <point x="591" y="-85" type="line"/>
      <point x="485" y="21" type="line"/>
      <point x="455.8955223880597" y="5.328358208955226"/>
      <point x="389.56716417910445" y="-12.253731343283583"/>
      <point x="353" y="-13" type="qcurve"/>
      <point x="314.94029850746267" y="-12.253731343283583"/>
      <point x="245.8507462686567" y="7.328358208955226"/>
      <point x="216" y="23" type="qcurve"/>
    </contour>
    <contour>
      <point x="478" y="242" type="qcurve"/>
      <point x="477.25373134328356" y="296.4776119402985"/>
      <point x="401.0" y="372.0"/>
      <point x="351" y="372" type="qcurve" smooth="yes"/>
      <point x="302.4925373134328" y="371.25373134328356"/>
      <point x="228.7462686567164" y="295.7313432835821"/>
      <point x="228" y="242" type="qcurve" smooth="yes"/>
      <point x="228.7462686567164" y="188.26865671641792"/>
      <point x="302.4925373134328" y="111.74626865671642"/>
      <point x="351" y="111" type="qcurve" smooth="yes"/>
      <point x="401.0" y="111.0"/>
      <point x="477.25373134328356" y="188.26865671641792"/>
    </contour>
  </outline>
</glyph>
<glyph name="yen" format="2">
  <advance width="608"/>
  <unicode hex="00A5"/>
  <outline>
    <contour>
      <point x="75" y="314" type="line"/>
      <point x="522" y="314" type="line"/>
      <point x="532" y="218" type="line"/>
      <point x="86" y="218" type="line"/>
    </contour>
    <contour>
      <point x="75" y="162" type="line"/>
      <point x="522" y="162" type="line"/>
      <point x="532" y="66" type="line"/>
      <point x="86" y="66" type="line"/>
    </contour>
    <contour>
      <point x="362" y="0" type="line"/>
      <point x="232" y="0" type="line"/>
      <point x="232" y="265" type="line"/>
      <point x="10" y="657" type="line"/>
      <point x="138" y="694" type="line"/>
      <point x="296" y="396" type="line"/>
      <point x="461" y="680" type="line"/>
      <point x="598" y="680" type="line"/>
      <point x="362" y="260" type="line"/>
    </contour>
  </outline>
</glyph>
<glyph name="brokenbar" format="2">
  <advance width="299"/>
  <unicode hex="00A6"/>
  <outline>
    <contour>
      <point x="85" y="713" type="line"/>
      <point x="214" y="703" type="line"/>
      <point x="214" y="406" type="line"/>
      <point x="85" y="417" type="line"/>
    </contour>
    <contour>
      <point x="85" y="297" type="line"/>
      <point x="214" y="288" type="line"/>
      <point x="214" y="-10" type="line"/>
      <point x="85" y="0" type="line"/>
    </contour>
  </outline>
</glyph>
<glyph name="section" format="2">
  <advance width="601"/>
  <unicode hex="00A7"/>
  <outline>
    <contour>
      <point x="413" y="80" type="qcurve"/>
      <point x="320" y="186" type="line"/>
      <point x="380.44776119402985" y="186.0"/>
      <point x="442.0" y="224.17910447761193"/>
      <point x="442" y="260" type="qcurve" smooth="yes"/>
      <point x="442.0" y="293.5820895522388"/>
      <point x="358.2686567164179" y="344.3880597014925"/>
      <point x="312" y="372" type="qcurve" smooth="yes"/>
      <point x="240.3582089552239" y="415.2835820895522"/>
      <point x="109.0" y="519.6417910447761"/>
      <point x="109" y="598" type="qcurve" smooth="yes"/>
      <point x="109.0" y="674.8656716417911"/>
      <point x="231.80597014925374" y="780.0"/>
      <point x="343" y="780" type="qcurve" smooth="yes"/>
      <point x="393.74626865671644" y="780.0"/>
      <point x="496.1940298507463" y="747.6567164179105"/>
      <point x="535" y="729" type="qcurve"/>
      <point x="492" y="625" type="line"/>
      <point x="461.4029850746269" y="639.9253731343283"/>
      <point x="389.02985074626866" y="667.0"/>
      <point x="345" y="667" type="qcurve" smooth="yes"/>
      <point x="302.46268656716416" y="667.0"/>
      <point x="243.0" y="633.0746268656717"/>
      <point x="243" y="598" type="qcurve" smooth="yes"/>
      <point x="243.0" y="559.9402985074627"/>
      <point x="321.0" y="511.85074626865674"/>
      <point x="371" y="482" type="qcurve" smooth="yes"/>
      <point x="443.3880597014925" y="438.7164179104478"/>
      <point x="576.0" y="344.56716417910445"/>
      <point x="576" y="258" type="qcurve" smooth="yes"/>
      <point x="576.0" y="193.82089552238807"/>
      <point x="492.1044776119403" y="98.65671641791045"/>
    </contour>
    <contour>
      <point x="47" y="-61" type="qcurve"/>
      <point x="76" y="44" type="line"/>
      <point x="106.59701492537313" y="28.328358208955226"/>
      <point x="203.46268656716418" y="-4.0"/>
      <point x="246" y="-4" type="qcurve" smooth="yes"/>
      <point x="306.44776119402985" y="-4.0"/>
      <point x="368.0" y="34.17910447761194"/>
      <point x="368" y="70" type="qcurve" smooth="yes"/>
      <point x="368.0" y="103.58208955223881"/>
      <point x="284.2686567164179" y="154.38805970149255"/>
      <point x="238" y="182" type="qcurve" smooth="yes"/>
      <point x="166.3582089552239" y="225.28358208955223"/>
      <point x="35.0" y="329.64179104477614"/>
      <point x="35" y="408" type="qcurve" smooth="yes"/>
      <point x="35.0" y="469.19402985074623"/>
      <point x="113.86567164179105" y="563.0895522388059"/>
      <point x="187" y="581" type="qcurve"/>
      <point x="271" y="477" type="line"/>
      <point x="228.46268656716418" y="477.0"/>
      <point x="169.0" y="443.07462686567163"/>
      <point x="169" y="408" type="qcurve" smooth="yes"/>
      <point x="169.0" y="369.94029850746267"/>
      <point x="247.0" y="321.85074626865674"/>
      <point x="297" y="292" type="qcurve" smooth="yes"/>
      <point x="369.3880597014925" y="248.71641791044777"/>
      <point x="502.0" y="154.56716417910445"/>
      <point x="502" y="68" type="qcurve" smooth="yes"/>
      <point x="502.0" y="-12.59701492537313"/>
      <point x="370.3880597014925" y="-119.0"/>
      <point x="248" y="-119" type="qcurve" smooth="yes"/>
      <point x="205.46268656716418" y="-119.0"/>
      <point x="79.83582089552239" y="-81.14925373134328"/>
    </contour>
  </outline>
</glyph>
<glyph name="dieresis" format="2">
  <advance width="341"/>
  <unicode hex="00A8"/>
  <anchor x="182" y="485" name="_top"/>
  <outline>
    <contour>
      <point x="76" y="603" type="curve" smooth="yes"/>
      <point x="39" y="603"/>
      <point x="10" y="631"/>
      <point x="10" y="667" type="curve" smooth="yes"/>
      <point x="10" y="703"/>
      <point x="39" y="732"/>
      <point x="76" y="732" type="curve" smooth="yes"/>
      <point x="112" y="732"/>
      <point x="139" y="703"/>
      <point x="139" y="667" type="curve" smooth="yes"/>
      <point x="139" y="631"/>
      <point x="112" y="603"/>
    </contour>
    <contour>
      <point x="266" y="603" type="curve" smooth="yes"/>
      <point x="231" y="603"/>
      <point x="201" y="631"/>
      <point x="201" y="667" type="curve" smooth="yes"/>
      <point x="201" y="703"/>
      <point x="231" y="732"/>
      <point x="266" y="732" type="curve" smooth="yes"/>
      <point x="303" y="732"/>
      <point x="331" y="703"/>
      <point x="331" y="667" type="curve" smooth="yes"/>
      <point x="331" y="631"/>
      <point x="303" y="603"/>
    </contour>
  </outline>
</glyph>
<glyph name="copyright" format="2">
  <advance width="823"/>
  <unicode hex="00A9"/>
  <outline>
    <contour>
      <point x="798" y="336" type="curve" smooth="yes"/>
      <point x="798" y="124"/>
      <point x="648" y="-46"/>
      <point x="411" y="-46" type="curve" smooth="yes"/>
      <point x="174" y="-46"/>
      <point x="25" y="124"/>
      <point x="25" y="336" type="curve" smooth="yes"/>
      <point x="25" y="549"/>
      <point x="174" y="719"/>
      <point x="411" y="719" type="curve" smooth="yes"/>
      <point x="648" y="719"/>
      <point x="798" y="549"/>
    </contour>
    <contour>
      <point x="108" y="337" type="curve" smooth="yes"/>
      <point x="108" y="162"/>
      <point x="224" y="29"/>
      <point x="411" y="29" type="curve" smooth="yes"/>
      <point x="599" y="29"/>
      <point x="714" y="162"/>
      <point x="714" y="337" type="curve" smooth="yes"/>
      <point x="714" y="512"/>
      <point x="599" y="645"/>
      <point x="411" y="645" type="curve" smooth="yes"/>
      <point x="224" y="645"/>
      <point x="108" y="512"/>
    </contour>
    <contour>
      <point x="430" y="102" type="curve" smooth="yes"/>
      <point x="287" y="102"/>
      <point x="199" y="193"/>
      <point x="199" y="337" type="curve" smooth="yes"/>
      <point x="199" y="480"/>
      <point x="298" y="571"/>
      <point x="430" y="571" type="curve" smooth="yes"/>
      <point x="467" y="571"/>
      <point x="535" y="555"/>
      <point x="579" y="526" type="curve"/>
      <point x="544" y="428" type="line"/>
      <point x="501" y="449"/>
      <point x="473" y="459"/>
      <point x="432" y="459" type="curve" smooth="yes"/>
      <point x="371" y="459"/>
      <point x="333" y="413"/>
      <point x="333" y="337" type="curve" smooth="yes"/>
      <point x="333" y="258"/>
      <point x="371" y="213"/>
      <point x="432" y="213" type="curve" smooth="yes"/>
      <point x="473" y="213"/>
      <point x="501" y="224"/>
      <point x="544" y="245" type="curve"/>
      <point x="579" y="148" type="line"/>
      <point x="538" y="115"/>
      <point x="467" y="102"/>
    </contour>
  </outline>
</glyph>
<glyph name="ordfeminine" format="2">
  <advance width="327"/>
  <unicode hex="00AA"/>
  <outline>
    <contour>
      <point x="121" y="475" type="qcurve" smooth="yes"/>
      <point x="121.0" y="466.04477611940297"/>
      <point x="132.3134328358209" y="453.0"/>
      <point x="145" y="453" type="qcurve" smooth="yes"/>
      <point x="160.67164179104478" y="453.0"/>
      <point x="191.82089552238807" y="461.2985074626866"/>
      <point x="206" y="471" type="qcurve"/>
      <point x="206" y="498" type="line"/>
      <point x="152" y="498" type="line" smooth="yes"/>
      <point x="136.32835820895522" y="498.0"/>
      <point x="121.0" y="483.95522388059703"/>
    </contour>
    <contour>
      <point x="65" y="591" type="qcurve"/>
      <point x="42" y="673" type="line"/>
      <point x="60" y="683"/>
      <point x="125" y="702"/>
      <point x="158" y="702" type="qcurve" smooth="yes"/>
      <point x="228" y="702"/>
      <point x="302" y="634"/>
      <point x="302" y="583" type="qcurve" smooth="yes"/>
      <point x="302" y="371" type="line"/>
      <point x="253" y="371" type="line"/>
      <point x="229" y="397" type="line"/>
      <point x="212" y="384"/>
      <point x="164" y="363"/>
      <point x="141" y="363" type="qcurve" smooth="yes"/>
      <point x="82" y="363"/>
      <point x="25" y="423"/>
      <point x="25" y="469" type="qcurve" smooth="yes"/>
      <point x="25" y="518"/>
      <point x="94" y="577"/>
      <point x="148" y="576" type="qcurve" smooth="yes"/>
      <point x="203" y="576" type="line"/>
      <point x="202" y="581" type="line" smooth="yes"/>
      <point x="199" y="596"/>
      <point x="177" y="612"/>
      <point x="159" y="612" type="qcurve" smooth="yes"/>
      <point x="137" y="612"/>
      <point x="83" y="598"/>
    </contour>
  </outline>
</glyph>
<glyph name="guillemotleft" format="2">
  <advance width="401"/>
  <unicode hex="00AB"/>
  <outline>
    <contour>
      <point x="199" y="221" type="line"/>
      <point x="199" y="269" type="line"/>
      <point x="360" y="408" type="line"/>
      <point x="381" y="321" type="line"/>
      <point x="297" y="245" type="line"/>
      <point x="381" y="169" type="line"/>
      <point x="360" y="83" type="line"/>
    </contour>
    <contour>
      <point x="30" y="221" type="line"/>
      <point x="30" y="269" type="line"/>
      <point x="190" y="408" type="line"/>
      <point x="213" y="321" type="line"/>
      <point x="128" y="245" type="line"/>
      <point x="213" y="169" type="line"/>
      <point x="190" y="83" type="line"/>
    </contour>
  </outline>
</glyph>
<glyph name="logicalnot" format="2">
  <advance width="514"/>
  <unicode hex="00AC"/>
  <outline>
    <contour>
      <point x="476" y="406" type="line"/>
      <point x="484" y="356" type="line"/>
      <point x="484" y="112" type="line"/>
      <point x="375" y="117" type="line"/>
      <point x="375" y="304" type="line"/>
      <point x="18" y="304" type="line"/>
      <point x="10" y="406" type="line"/>
    </contour>
  </outline>
</glyph>
<glyph name="registered" format="2">
  <advance width="733"/>
  <unicode hex="00AE"/>
  <outline>
    <contour>
      <point x="708" y="487" type="curve" smooth="yes"/>
      <point x="708" y="299"/>
      <point x="577" y="150"/>
      <point x="366" y="150" type="curve" smooth="yes"/>
      <point x="157" y="150"/>
      <point x="25" y="299"/>
      <point x="25" y="487" type="curve" smooth="yes"/>
      <point x="25" y="678"/>
      <point x="157" y="827"/>
      <point x="366" y="827" type="curve" smooth="yes"/>
      <point x="577" y="827"/>
      <point x="708" y="678"/>
    </contour>
    <contour>
      <point x="103" y="488" type="curve" smooth="yes"/>
      <point x="103" y="336"/>
      <point x="201" y="222"/>
      <point x="366" y="221" type="curve" smooth="yes"/>
      <point x="530" y="222"/>
      <point x="630" y="336"/>
      <point x="630" y="488" type="curve" smooth="yes"/>
      <point x="630" y="643"/>
      <point x="530" y="755"/>
      <point x="366" y="755" type="curve" smooth="yes"/>
      <point x="201" y="755"/>
      <point x="103" y="643"/>
    </contour>
    <contour>
      <point x="354" y="605" type="curve" smooth="yes"/>
      <point x="320" y="605" type="line"/>
      <point x="320" y="521" type="line"/>
      <point x="355" y="521" type="line" smooth="yes"/>
      <point x="399" y="521"/>
      <point x="429" y="529"/>
      <point x="429" y="562" type="curve" smooth="yes"/>
      <point x="429" y="599"/>
      <point x="401" y="605"/>
    </contour>
    <contour>
      <point x="539" y="304" type="line"/>
      <point x="436" y="304" type="line"/>
      <point x="374" y="447" type="line"/>
      <point x="320" y="447" type="line"/>
      <point x="320" y="304" type="line"/>
      <point x="228" y="304" type="line"/>
      <point x="228" y="681" type="line"/>
      <point x="378" y="681" type="line" smooth="yes"/>
      <point x="459" y="681"/>
      <point x="525" y="645"/>
      <point x="525" y="566" type="curve" smooth="yes"/>
      <point x="525" y="517"/>
      <point x="497" y="484"/>
      <point x="460" y="465" type="curve"/>
    </contour>
  </outline>
</glyph>
<glyph name="degree" format="2">
  <advance width="259"/>
  <unicode hex="00B0"/>
  <outline>
    <contour>
      <point x="130" y="724" type="qcurve" smooth="yes"/>
      <point x="177.01492537313433" y="724.0"/>
      <point x="249.0" y="657.0149253731344"/>
      <point x="249" y="610" type="qcurve" smooth="yes"/>
      <point x="249.0" y="561.4925373134329"/>
      <point x="177.01492537313433" y="497.0"/>
      <point x="130" y="497" type="qcurve" smooth="yes"/>
      <point x="81.49253731343285" y="497.0"/>
      <point x="10.0" y="561.4925373134329"/>
      <point x="10" y="610" type="qcurve" smooth="yes"/>
      <point x="10.0" y="657.0149253731344"/>
      <point x="81.49253731343285" y="724.0"/>
    </contour>
    <contour>
      <point x="169" y="607" type="qcurve" smooth="yes"/>
      <point x="169.0" y="622.6716417910447"/>
      <point x="145.67164179104478" y="648.0"/>
      <point x="130" y="648" type="qcurve" smooth="yes"/>
      <point x="114.32835820895522" y="648.0"/>
      <point x="91.0" y="624.179104477612"/>
      <point x="91" y="610" type="qcurve" smooth="yes"/>
      <point x="91.0" y="594.3283582089553"/>
      <point x="114.32835820895522" y="568.0"/>
      <point x="130" y="568" type="qcurve" smooth="yes"/>
      <point x="145.67164179104478" y="568.0"/>
      <point x="169.0" y="592.0746268656717"/>
    </contour>
  </outline>
</glyph>
<glyph name="plusminus" format="2">
  <advance width="469"/>
  <unicode hex="00B1"/>
  <outline>
    <contour>
      <point x="430" y="387" type="line"/>
      <point x="439" y="298" type="line"/>
      <point x="293" y="298" type="line"/>
      <point x="293" y="140" type="line"/>
      <point x="182" y="145" type="line"/>
      <point x="182" y="298" type="line"/>
      <point x="40" y="298" type="line"/>
      <point x="30" y="387" type="line"/>
      <point x="182" y="387" type="line"/>
      <point x="182" y="534" type="line"/>
      <point x="293" y="531" type="line"/>
      <point x="293" y="387" type="line"/>
    </contour>
    <contour>
      <point x="435" y="90" type="line"/>
      <point x="439" y="0" type="line"/>
      <point x="40" y="0" type="line"/>
      <point x="33" y="90" type="line"/>
    </contour>
  </outline>
</glyph>
<glyph name="twosuperior" format="2">
  <advance width="372"/>
  <unicode hex="00B2"/>
  <outline>
    <contour>
      <point x="175" y="771" type="curve" smooth="yes"/>
      <point x="288" y="771"/>
      <point x="340" y="699"/>
      <point x="340" y="636" type="curve" smooth="yes"/>
      <point x="340" y="576"/>
      <point x="309" y="531"/>
      <point x="236" y="470" type="curve" smooth="yes"/>
      <point x="183" y="427" type="line"/>
      <point x="338" y="427" type="line"/>
      <point x="352" y="337" type="line"/>
      <point x="25" y="337" type="line"/>
      <point x="25" y="419" type="line"/>
      <point x="162" y="531" type="line" smooth="yes"/>
      <point x="199" y="562"/>
      <point x="219" y="589"/>
      <point x="219" y="636" type="curve" smooth="yes"/>
      <point x="219" y="656"/>
      <point x="200" y="675"/>
      <point x="168" y="675" type="curve" smooth="yes"/>
      <point x="131" y="675"/>
      <point x="92" y="662"/>
      <point x="57" y="644" type="curve"/>
      <point x="13" y="728" type="line"/>
      <point x="50" y="749"/>
      <point x="104" y="771"/>
    </contour>
  </outline>
</glyph>
<glyph name="threesuperior" format="2">
  <advance width="371"/>
  <unicode hex="00B3"/>
  <outline>
    <contour>
      <point x="174" y="771" type="qcurve" smooth="yes"/>
      <point x="253.8507462686567" y="771.0"/>
      <point x="333.0" y="691.9850746268656"/>
      <point x="333" y="639" type="qcurve" smooth="yes"/>
      <point x="333.0" y="605.4179104477612"/>
      <point x="292.64179104477614" y="548.955223880597"/>
      <point x="271" y="540" type="qcurve"/>
      <point x="292.64179104477614" y="534.776119402985"/>
      <point x="341.0" y="472.5223880597015"/>
      <point x="341" y="427" type="qcurve" smooth="yes"/>
      <point x="341.0" y="365.05970149253733"/>
      <point x="244.59701492537312" y="279.0"/>
      <point x="164" y="279" type="qcurve" smooth="yes"/>
      <point x="122.2089552238806" y="279.0"/>
      <point x="33.582089552238806" y="302.86567164179104"/>
      <point x="0" y="326" type="qcurve"/>
      <point x="50" y="409" type="line"/>
      <point x="79.8507462686567" y="391.089552238806"/>
      <point x="122.38805970149254" y="374.0"/>
      <point x="150" y="374" type="qcurve" smooth="yes"/>
      <point x="182.83582089552237" y="374.0"/>
      <point x="220.0" y="404.35820895522386"/>
      <point x="220" y="426" type="qcurve" smooth="yes"/>
      <point x="220.0" y="458.8358208955224"/>
      <point x="177.55223880597015" y="493.0"/>
      <point x="138" y="493" type="qcurve" smooth="yes"/>
      <point x="107" y="493" type="line"/>
      <point x="94" y="583" type="line"/>
      <point x="143" y="583" type="line" smooth="yes"/>
      <point x="188.52238805970148" y="583.0"/>
      <point x="212.0" y="620.8358208955224"/>
      <point x="212" y="638" type="qcurve" smooth="yes"/>
      <point x="212.0" y="656.6567164179105"/>
      <point x="182.11940298507463" y="674.0"/>
      <point x="156" y="674" type="qcurve" smooth="yes"/>
      <point x="123.91044776119404" y="674.0"/>
      <point x="80.65671641791045" y="650.9253731343283"/>
      <point x="62" y="636" type="qcurve"/>
      <point x="15" y="717" type="line"/>
      <point x="51.56716417910447" y="740.8805970149253"/>
      <point x="128.47761194029852" y="771.0"/>
    </contour>
  </outline>
</glyph>
<glyph name="acute" format="2">
  <advance width="205"/>
  <unicode hex="00B4"/>
  <anchor x="91" y="485" name="_top"/>
  <outline>
    <contour>
      <point x="100" y="589" type="line"/>
      <point x="10" y="614" type="line"/>
      <point x="61" y="753" type="line"/>
      <point x="195" y="753" type="line"/>
    </contour>
  </outline>
</glyph>
<glyph name="mu" format="2">
  <advance width="576"/>
  <unicode hex="00B5"/>
  <outline>
    <contour>
      <point x="191" y="-209" type="line"/>
      <point x="61" y="-219" type="line"/>
      <point x="61" y="316" type="line"/>
      <point x="191" y="350" type="line"/>
    </contour>
    <contour>
      <point x="391" y="485" type="line"/>
      <point x="521" y="485" type="line"/>
      <point x="521" y="0" type="line"/>
      <point x="436" y="0" type="line"/>
      <point x="414" y="52" type="line"/>
      <point x="367.7313432835821" y="19.16417910447761"/>
      <point x="265.8059701492537" y="-16.0"/>
      <point x="227" y="-16" type="qcurve" smooth="yes"/>
      <point x="128.49253731343285" y="-16.0"/>
      <point x="61.0" y="97.4179104477612"/>
      <point x="61" y="181" type="qcurve" smooth="yes"/>
      <point x="61" y="485" type="line"/>
      <point x="191" y="485" type="line"/>
      <point x="191" y="187" type="line" smooth="yes"/>
      <point x="191.0" y="141.47761194029852"/>
      <point x="228.91044776119404" y="92.0"/>
      <point x="261" y="92" type="qcurve" smooth="yes"/>
      <point x="299.05970149253733" y="92.0"/>
      <point x="366.3731343283582" y="131.08955223880596"/>
      <point x="391" y="149" type="qcurve"/>
    </contour>
  </outline>
</glyph>
<glyph name="paragraph" format="2">
  <advance width="910"/>
  <unicode hex="00B6"/>
  <outline>
    <contour>
      <point x="458" y="0" type="line"/>
      <point x="327" y="0" type="line"/>
      <point x="327" y="237" type="line"/>
      <point x="304" y="237" type="line" smooth="yes"/>
      <point x="157" y="237"/>
      <point x="26" y="307"/>
      <point x="25" y="462" type="curve"/>
      <point x="25" y="618"/>
      <point x="146" y="680"/>
      <point x="293" y="680" type="curve" smooth="yes"/>
      <point x="885" y="680" type="line"/>
      <point x="885" y="578" type="line"/>
      <point x="791" y="578" type="line"/>
      <point x="791" y="0" type="line"/>
      <point x="660" y="0" type="line"/>
      <point x="660" y="578" type="line"/>
      <point x="458" y="578" type="line"/>
    </contour>
  </outline>
</glyph>
<glyph name="periodcentered" format="2">
  <advance width="206"/>
  <unicode hex="00B7"/>
  <outline>
    <contour>
      <point x="104" y="189" type="qcurve" smooth="yes"/>
      <point x="73.40298507462687" y="189.0"/>
      <point x="30.0" y="231.40298507462688"/>
      <point x="30" y="262" type="qcurve" smooth="yes"/>
      <point x="30.0" y="292.5970149253731"/>
      <point x="73.40298507462687" y="335.0"/>
      <point x="104" y="335" type="qcurve" smooth="yes"/>
      <point x="134.59701492537312" y="335.0"/>
      <point x="176.0" y="292.5970149253731"/>
      <point x="176" y="262" type="qcurve" smooth="yes"/>
      <point x="176.0" y="231.40298507462688"/>
      <point x="134.59701492537312" y="189.0"/>
    </contour>
  </outline>
</glyph>
<glyph name="cedilla" format="2">
  <advance width="241"/>
  <unicode hex="00B8"/>
  <anchor x="127" y="0" name="_bottom"/>
  <outline>
    <contour>
      <point x="51" y="-75" type="curve"/>
      <point x="86" y="13" type="line"/>
      <point x="179" y="13" type="line"/>
      <point x="161" y="-29" type="line"/>
      <point x="201" y="-45"/>
      <point x="231" y="-83"/>
      <point x="231" y="-118" type="curve" smooth="yes"/>
      <point x="231" y="-189"/>
      <point x="170" y="-221"/>
      <point x="105" y="-221" type="curve" smooth="yes"/>
      <point x="80" y="-221"/>
      <point x="31" y="-210"/>
      <point x="10" y="-193" type="curve"/>
      <point x="40" y="-117" type="line"/>
      <point x="57" y="-126"/>
      <point x="88" y="-137"/>
      <point x="105" y="-137" type="curve" smooth="yes"/>
      <point x="121" y="-137"/>
      <point x="139" y="-133"/>
      <point x="139" y="-120" type="curve" smooth="yes"/>
      <point x="139" y="-95"/>
      <point x="96" y="-80"/>
    </contour>
  </outline>
</glyph>
<glyph name="onesuperior" format="2">
  <advance width="309"/>
  <unicode hex="00B9"/>
  <outline>
    <contour>
      <point x="244" y="337" type="line"/>
      <point x="126" y="337" type="line"/>
      <point x="126" y="643" type="line"/>
      <point x="56" y="611" type="line"/>
      <point x="10" y="694" type="line"/>
      <point x="167" y="763" type="line"/>
      <point x="244" y="763" type="line"/>
    </contour>
  </outline>
</glyph>
<glyph name="ordmasculine" format="2">
  <advance width="385"/>
  <unicode hex="00BA"/>
  <outline>
    <contour>
      <point x="192" y="702" type="qcurve" smooth="yes"/>
      <point x="272.5970149253731" y="702.0"/>
      <point x="360.0" y="607.8656716417911"/>
      <point x="360" y="531" type="qcurve" smooth="yes"/>
      <point x="360.0" y="454.13432835820896"/>
      <point x="264.6119402985074" y="363.74626865671644"/>
      <point x="187" y="363" type="qcurve" smooth="yes"/>
      <point x="110.13432835820896" y="363.74626865671644"/>
      <point x="25.0" y="455.3880597014926"/>
      <point x="25" y="533" type="qcurve" smooth="yes"/>
      <point x="25.0" y="610.6119402985074"/>
      <point x="115.13432835820896" y="702.0"/>
    </contour>
    <contour>
      <point x="194" y="612" type="qcurve" smooth="yes"/>
      <point x="167.13432835820896" y="612.0"/>
      <point x="135.0" y="574.7910447761194"/>
      <point x="135" y="533" type="qcurve" smooth="yes"/>
      <point x="135.0" y="493.44776119402985"/>
      <point x="159.8955223880597" y="452.0"/>
      <point x="189" y="452" type="qcurve" smooth="yes"/>
      <point x="219.59701492537312" y="452.0"/>
      <point x="250.0" y="490.44776119402985"/>
      <point x="250" y="530" type="qcurve" smooth="yes"/>
      <point x="250.0" y="568.0597014925373"/>
      <point x="226.08955223880596" y="612.0"/>
    </contour>
  </outline>
</glyph>
<glyph name="guillemotright" format="2">
  <advance width="403"/>
  <unicode hex="00BB"/>
  <outline>
    <contour>
      <point x="202" y="269" type="line"/>
      <point x="202" y="221" type="line"/>
      <point x="43" y="83" type="line"/>
      <point x="20" y="169" type="line"/>
      <point x="105" y="245" type="line"/>
      <point x="20" y="321" type="line"/>
      <point x="43" y="408" type="line"/>
    </contour>
    <contour>
      <point x="373" y="269" type="line"/>
      <point x="373" y="221" type="line"/>
      <point x="212" y="83" type="line"/>
      <point x="190" y="169" type="line"/>
      <point x="275" y="245" type="line"/>
      <point x="190" y="321" type="line"/>
      <point x="212" y="408" type="line"/>
    </contour>
  </outline>
</glyph>
<glyph name="onehalf" format="2">
  <advance width="927"/>
  <unicode hex="00BD"/>
  <outline>
    <contour>
      <point x="621" y="700" type="line"/>
      <point x="762" y="700" type="line"/>
      <point x="175" y="-134" type="line"/>
      <point x="35" y="-134" type="line"/>
    </contour>
    <contour>
      <point x="244" y="337" type="line"/>
      <point x="126" y="337" type="line"/>
      <point x="126" y="643" type="line"/>
      <point x="56" y="611" type="line"/>
      <point x="10" y="694" type="line"/>
      <point x="167" y="763" type="line"/>
      <point x="244" y="763" type="line"/>
    </contour>
    <contour>
      <point x="730" y="324" type="curve" smooth="yes"/>
      <point x="843" y="324"/>
      <point x="895" y="252"/>
      <point x="895" y="189" type="curve" smooth="yes"/>
      <point x="895" y="129"/>
      <point x="864" y="84"/>
      <point x="791" y="23" type="curve" smooth="yes"/>
      <point x="738" y="-20" type="line"/>
      <point x="893" y="-20" type="line"/>
      <point x="907" y="-110" type="line"/>
      <point x="580" y="-110" type="line"/>
      <point x="580" y="-28" type="line"/>
      <point x="717" y="84" type="line" smooth="yes"/>
      <point x="754" y="115"/>
      <point x="774" y="134"/>
      <point x="774" y="181" type="curve" smooth="yes"/>
      <point x="774" y="201"/>
      <point x="755" y="228"/>
      <point x="723" y="228" type="curve" smooth="yes"/>
      <point x="686" y="228"/>
      <point x="647" y="215"/>
      <point x="612" y="197" type="curve"/>
      <point x="568" y="281" type="line"/>
      <point x="605" y="302"/>
      <point x="659" y="324"/>
    </contour>
  </outline>
</glyph>
<glyph name="threequarters" format="2">
  <advance width="901"/>
  <unicode hex="00BE"/>
  <outline>
    <contour>
      <point x="174" y="771" type="qcurve" smooth="yes"/>
      <point x="254" y="771.0"/>
      <point x="333.0" y="692"/>
      <point x="333" y="639" type="qcurve" smooth="yes"/>
      <point x="333.0" y="605"/>
      <point x="293" y="549"/>
      <point x="271" y="540" type="qcurve"/>
      <point x="293" y="535"/>
      <point x="341.0" y="473"/>
      <point x="341" y="427" type="qcurve" smooth="yes"/>
      <point x="341.0" y="365"/>
      <point x="245" y="279.0"/>
      <point x="164" y="279" type="qcurve" smooth="yes"/>
      <point x="122" y="279.0"/>
      <point x="34" y="303"/>
      <point x="0" y="326" type="qcurve"/>
      <point x="50" y="409" type="line"/>
      <point x="80" y="391"/>
      <point x="122" y="374.0"/>
      <point x="150" y="374" type="qcurve" smooth="yes"/>
      <point x="183" y="374.0"/>
      <point x="220.0" y="404"/>
      <point x="220" y="426" type="qcurve" smooth="yes"/>
      <point x="220.0" y="459"/>
      <point x="178" y="493.0"/>
      <point x="138" y="493" type="qcurve" smooth="yes"/>
      <point x="107" y="493" type="line"/>
      <point x="94" y="583" type="line"/>
      <point x="143" y="583" type="line" smooth="yes"/>
      <point x="189" y="583.0"/>
      <point x="212.0" y="621"/>
      <point x="212" y="638" type="qcurve" smooth="yes"/>
      <point x="212.0" y="657"/>
      <point x="182" y="674.0"/>
      <point x="156" y="674" type="qcurve" smooth="yes"/>
      <point x="124" y="674.0"/>
      <point x="81" y="651"/>
      <point x="62" y="636" type="qcurve"/>
      <point x="15" y="717" type="line"/>
      <point x="52" y="741"/>
      <point x="128" y="771.0"/>
    </contour>
    <contour>
      <point x="881" y="15" type="line"/>
      <point x="871" y="-81" type="line"/>
      <point x="791" y="-81" type="line"/>
      <point x="791" y="-165" type="line"/>
      <point x="672" y="-165" type="line"/>
      <point x="672" y="-81" type="line"/>
      <point x="474" y="-81" type="line"/>
      <point x="461" y="15" type="line"/>
      <point x="709" y="322" type="line"/>
      <point x="791" y="322" type="line"/>
      <point x="791" y="15" type="line"/>
    </contour>
    <contour>
      <point x="672" y="122" type="line"/>
      <point x="581" y="15" type="line"/>
      <point x="672" y="15" type="line"/>
    </contour>
    <contour>
      <point x="660" y="700" type="line"/>
      <point x="801" y="700" type="line"/>
      <point x="214" y="-134" type="line"/>
      <point x="74" y="-134" type="line"/>
    </contour>
  </outline>
</glyph>
<glyph name="questiondown" format="2">
  <advance width="434"/>
  <unicode hex="00BF"/>
  <outline>
    <contour>
      <point x="264" y="517" type="qcurve" smooth="yes"/>
      <point x="233.40298507462688" y="517.0"/>
      <point x="191.0" y="560.4029850746268"/>
      <point x="191" y="591" type="qcurve" smooth="yes"/>
      <point x="191.0" y="620.8507462686567"/>
      <point x="233.40298507462688" y="664.0"/>
      <point x="264" y="664" type="qcurve" smooth="yes"/>
      <point x="294.5970149253731" y="664.0"/>
      <point x="338.0" y="620.8507462686567"/>
      <point x="338" y="591" type="qcurve" smooth="yes"/>
      <point x="338.0" y="560.4029850746268"/>
      <point x="294.5970149253731" y="517.0"/>
    </contour>
    <contour>
      <point x="229" y="-37" type="qcurve" smooth="yes"/>
      <point x="130.49253731343285" y="-37.0"/>
      <point x="30.0" y="63.64179104477613"/>
      <point x="30" y="142" type="qcurve" smooth="yes"/>
      <point x="30.0" y="196.47761194029852"/>
      <point x="125.34328358208955" y="310.94029850746267"/>
      <point x="194" y="349" type="qcurve"/>
      <point x="211" y="485" type="line"/>
      <point x="303" y="447" type="line"/>
      <point x="312" y="282" type="line"/>
      <point x="240.3582089552239" y="258.86567164179104"/>
      <point x="148.0" y="184.7910447761194"/>
      <point x="148" y="143" type="qcurve" smooth="yes"/>
      <point x="148.0" y="110.16417910447761"/>
      <point x="197.17910447761193" y="71.0"/>
      <point x="233" y="71" type="qcurve" smooth="yes"/>
      <point x="265.08955223880594" y="71.0"/>
      <point x="357.0" y="100.17910447761194"/>
      <point x="407" y="136" type="qcurve"/>
      <point x="424" y="19" type="line"/>
      <point x="378.4776119402985" y="-10.104477611940297"/>
      <point x="283.4776119402985" y="-37.0"/>
    </contour>
  </outline>
</glyph>
<glyph name="AE" format="2">
  <advance width="962"/>
  <unicode hex="00C6"/>
  <outline>
    <contour>
      <point x="466" y="0" type="line"/>
      <point x="466" y="160" type="line"/>
      <point x="234" y="160" type="line"/>
      <point x="124" y="-10" type="line"/>
      <point x="0" y="8" type="line"/>
      <point x="453" y="680" type="line"/>
      <point x="874" y="680" type="line"/>
      <point x="893" y="578" type="line"/>
      <point x="597" y="578" type="line"/>
      <point x="597" y="395" type="line"/>
      <point x="819" y="395" type="line"/>
      <point x="840" y="292" type="line"/>
      <point x="597" y="292" type="line"/>
      <point x="597" y="101" type="line"/>
      <point x="922" y="101" type="line"/>
      <point x="942" y="0" type="line"/>
    </contour>
    <contour>
      <point x="466" y="502" type="line"/>
      <point x="304" y="265" type="line"/>
      <point x="466" y="265" type="line"/>
    </contour>
  </outline>
</glyph>
<glyph name="Eth" format="2">
  <advance width="691"/>
  <unicode hex="00D0"/>
  <outline>
    <contour>
      <point x="295" y="291" type="line"/>
      <point x="29" y="291" type="line"/>
      <point x="18" y="392" type="line"/>
      <point x="286" y="392" type="line"/>
    </contour>
    <contour>
      <point x="343" y="-1" type="qcurve"/>
      <point x="85" y="0" type="line"/>
      <point x="85" y="680" type="line"/>
      <point x="343" y="680" type="line" smooth="yes"/>
      <point x="501.2089552238806" y="680.0"/>
      <point x="656.0" y="489.5223880597015"/>
      <point x="656" y="344" type="qcurve" smooth="yes"/>
      <point x="656.0" y="186.53731343283584"/>
      <point x="491.5074626865671" y="1.9850746268656714"/>
    </contour>
    <contour>
      <point x="348" y="570" type="qcurve" smooth="yes"/>
      <point x="214" y="570" type="line"/>
      <point x="214" y="109" type="line"/>
      <point x="341" y="109" type="line" smooth="yes"/>
      <point x="422.34328358208955" y="109.0"/>
      <point x="522.0" y="217.8805970149254"/>
      <point x="522" y="344" type="qcurve" smooth="yes"/>
      <point x="522.0" y="449.2238805970149"/>
      <point x="437.55223880597015" y="570.0"/>
    </contour>
  </outline>
</glyph>
<glyph name="multiply" format="2">
  <advance width="569"/>
  <unicode hex="00D7"/>
  <outline>
    <contour>
      <point x="346" y="256" type="line"/>
      <point x="539" y="484" type="line"/>
      <point x="405" y="484" type="line"/>
      <point x="286" y="347" type="line"/>
      <point x="179" y="484" type="line"/>
      <point x="46" y="484" type="line"/>
      <point x="223" y="257" type="line"/>
      <point x="30" y="29" type="line"/>
      <point x="164" y="29" type="line"/>
      <point x="283" y="166" type="line"/>
      <point x="390" y="29" type="line"/>
      <point x="523" y="29" type="line"/>
    </contour>
  </outline>
</glyph>
<glyph name="Oslash" format="2">
  <advance width="737"/>
  <unicode hex="00D8"/>
  <outline>
    <contour>
      <point x="368" y="-14" type="curve" smooth="yes"/>
      <point x="567" y="-10"/>
      <point x="702" y="133"/>
      <point x="702" y="344" type="curve" smooth="yes"/>
      <point x="702" y="539"/>
      <point x="581" y="696"/>
      <point x="368" y="696" type="curve" smooth="yes"/>
      <point x="169" y="692"/>
      <point x="35" y="546"/>
      <point x="35" y="337" type="curve" smooth="yes"/>
      <point x="35" y="142"/>
      <point x="156" y="-14"/>
    </contour>
    <contour>
      <point x="367" y="95" type="curve" smooth="yes"/>
      <point x="246" y="95"/>
      <point x="170" y="195"/>
      <point x="170" y="338" type="curve" smooth="yes"/>
      <point x="170" y="490"/>
      <point x="263" y="586"/>
      <point x="370" y="586" type="curve" smooth="yes"/>
      <point x="491" y="586"/>
      <point x="567" y="485"/>
      <point x="567" y="344" type="curve" smooth="yes"/>
      <point x="567" y="175"/>
      <point x="476" y="95"/>
    </contour>
    <contour>
      <point x="322" y="52" type="line"/>
      <point x="531" y="549" type="line"/>
      <point x="423" y="622" type="line"/>
      <point x="215" y="123" type="line"/>
    </contour>
  </outline>
</glyph>
<glyph name="Thorn" format="2">
  <advance width="607"/>
  <unicode hex="00DE"/>
  <outline>
    <contour>
      <point x="298" y="600" type="qcurve" smooth="yes"/>
      <point x="214" y="600" type="line"/>
      <point x="214" y="680" type="line"/>
      <point x="85" y="680" type="line"/>
      <point x="85" y="0" type="line"/>
      <point x="214" y="0" type="line"/>
      <point x="214" y="157" type="line"/>
      <point x="289" y="157" type="line" smooth="yes"/>
      <point x="396.46268656716416" y="157.0"/>
      <point x="566.2537313432836" y="266.32835820895525"/>
      <point x="567" y="382" type="qcurve" smooth="yes"/>
      <point x="567.0" y="498.4179104477612"/>
      <point x="408.44776119402985" y="600.0"/>
    </contour>
    <contour>
      <point x="296" y="264" type="qcurve" smooth="yes"/>
      <point x="214" y="264" type="line"/>
      <point x="214" y="492" type="line"/>
      <point x="294" y="492" type="line" smooth="yes"/>
      <point x="357.43283582089555" y="492.0"/>
      <point x="430.0" y="439.67164179104475"/>
      <point x="430" y="374" type="qcurve"/>
      <point x="426.2686567164179" y="317.2835820895522"/>
      <point x="353.46268656716416" y="264.0"/>
    </contour>
  </outline>
</glyph>
<glyph name="germandbls" format="2">
  <advance width="626"/>
  <unicode hex="00DF"/>
  <outline>
    <contour>
      <point x="65" y="0" type="line"/>
      <point x="65" y="473" type="line" smooth="yes"/>
      <point x="65" y="609"/>
      <point x="151" y="702"/>
      <point x="300" y="702" type="curve" smooth="yes"/>
      <point x="439" y="702"/>
      <point x="547" y="636"/>
      <point x="547" y="508" type="curve" smooth="yes"/>
      <point x="547" y="455"/>
      <point x="511" y="393"/>
      <point x="466" y="372" type="curve"/>
      <point x="529" y="356"/>
      <point x="596" y="284"/>
      <point x="596" y="195" type="curve" smooth="yes"/>
      <point x="596" y="75"/>
      <point x="499" y="0"/>
      <point x="354" y="0" type="curve" smooth="yes"/>
      <point x="254" y="0" type="line"/>
      <point x="254" y="107" type="line"/>
      <point x="345" y="107" type="line" smooth="yes"/>
      <point x="406" y="107"/>
      <point x="459" y="146"/>
      <point x="459" y="199" type="curve" smooth="yes"/>
      <point x="459" y="256"/>
      <point x="410" y="299"/>
      <point x="354" y="299" type="curve" smooth="yes"/>
      <point x="260" y="299" type="line"/>
      <point x="260" y="403" type="line"/>
      <point x="295" y="403" type="line" smooth="yes"/>
      <point x="367" y="403"/>
      <point x="411" y="447"/>
      <point x="411" y="499" type="curve" smooth="yes"/>
      <point x="411" y="556"/>
      <point x="363" y="590"/>
      <point x="306" y="590" type="curve" smooth="yes"/>
      <point x="241" y="590"/>
      <point x="194" y="544"/>
      <point x="194" y="471" type="curve" smooth="yes"/>
      <point x="194" y="0" type="line"/>
    </contour>
  </outline>
</glyph>
<glyph name="ae" format="2">
  <advance width="813"/>
  <unicode hex="00E6"/>
  <outline>
    <contour>
      <point x="788" y="204" type="line"/>
      <point x="788" y="244" type="line" smooth="yes"/>
      <point x="788" y="346"/>
      <point x="680" y="498"/>
      <point x="567" y="498" type="qcurve" smooth="yes"/>
      <point x="515" y="498"/>
      <point x="430" y="467"/>
      <point x="399" y="439" type="qcurve"/>
      <point x="371" y="467"/>
      <point x="288" y="498"/>
      <point x="241" y="498" type="qcurve" smooth="yes"/>
      <point x="210" y="498"/>
      <point x="95" y="473"/>
      <point x="67" y="454" type="qcurve"/>
      <point x="102" y="346" type="line"/>
      <point x="129" y="359"/>
      <point x="209" y="378"/>
      <point x="243" y="378" type="qcurve" smooth="yes"/>
      <point x="277" y="378"/>
      <point x="321.0" y="340.0"/>
      <point x="321" y="307" type="qcurve" smooth="yes"/>
      <point x="321" y="300" type="line"/>
      <point x="226" y="300" type="line" smooth="yes"/>
      <point x="145" y="300"/>
      <point x="42" y="220"/>
      <point x="42" y="145" type="qcurve" smooth="yes"/>
      <point x="42" y="76"/>
      <point x="128" y="-12"/>
      <point x="217" y="-12" type="qcurve" smooth="yes"/>
      <point x="282" y="-12"/>
      <point x="361" y="37"/>
      <point x="387" y="63" type="qcurve"/>
      <point x="422" y="27"/>
      <point x="531" y="-12"/>
      <point x="604" y="-12" type="qcurve" smooth="yes"/>
      <point x="667" y="-12"/>
      <point x="752" y="22"/>
      <point x="786" y="48" type="qcurve"/>
      <point x="748" y="142" type="line"/>
      <point x="716" y="123"/>
      <point x="650" y="99"/>
      <point x="607" y="99" type="qcurve" smooth="yes"/>
      <point x="535" y="99"/>
      <point x="470" y="156"/>
      <point x="461" y="204" type="qcurve"/>
    </contour>
    <contour>
      <point x="462" y="291" type="line"/>
      <point x="470" y="338"/>
      <point x="524" y="387"/>
      <point x="564" y="387" type="qcurve" smooth="yes"/>
      <point x="603" y="387"/>
      <point x="655" y="340"/>
      <point x="665" y="291" type="qcurve"/>
    </contour>
    <contour>
      <point x="324" y="213" type="line"/>
      <point x="326" y="194"/>
      <point x="333" y="160"/>
      <point x="338" y="144" type="qcurve"/>
      <point x="317" y="121"/>
      <point x="262" y="91"/>
      <point x="215" y="91" type="qcurve" smooth="yes"/>
      <point x="187" y="91"/>
      <point x="153" y="124"/>
      <point x="153" y="145" type="qcurve" smooth="yes"/>
      <point x="153" y="171"/>
      <point x="190" y="213"/>
      <point x="224" y="213" type="qcurve" smooth="yes"/>
    </contour>
  </outline>
</glyph>
<glyph name="eth" format="2">
  <advance width="568"/>
  <unicode hex="00F0"/>
  <outline>
    <contour>
      <point x="543" y="270" type="curve" smooth="yes"/>
      <point x="543" y="93"/>
      <point x="441" y="-12"/>
      <point x="284" y="-12" type="curve" smooth="yes"/>
      <point x="127" y="-12"/>
      <point x="25" y="87"/>
      <point x="25" y="242" type="curve" smooth="yes"/>
      <point x="25" y="397"/>
      <point x="127" y="498"/>
      <point x="274" y="498" type="curve" smooth="yes"/>
      <point x="358" y="498"/>
      <point x="436" y="452"/>
      <point x="482" y="402" type="curve"/>
      <point x="437" y="331" type="line"/>
      <point x="403" y="363"/>
      <point x="354" y="387"/>
      <point x="284" y="387" type="curve" smooth="yes"/>
      <point x="211" y="387"/>
      <point x="159" y="325"/>
      <point x="159" y="242" type="curve" smooth="yes"/>
      <point x="159" y="158"/>
      <point x="211" y="99"/>
      <point x="284" y="99" type="curve" smooth="yes"/>
      <point x="357" y="99"/>
      <point x="409" y="161"/>
      <point x="409" y="244" type="curve" smooth="yes"/>
      <point x="409" y="428"/>
      <point x="258" y="573"/>
      <point x="64" y="655" type="curve"/>
      <point x="114" y="749" type="line"/>
      <point x="333" y="686"/>
      <point x="543" y="473"/>
    </contour>
    <contour>
      <point x="105" y="485" type="line"/>
      <point x="54" y="577" type="line"/>
      <point x="367" y="742" type="line"/>
      <point x="417" y="653" type="line"/>
    </contour>
  </outline>
</glyph>
<glyph name="divide" format="2">
  <advance width="509"/>
  <unicode hex="00F7"/>
  <outline>
    <contour>
      <point x="253" y="360" type="qcurve" smooth="yes"/>
      <point x="220.91044776119404" y="360.0"/>
      <point x="176.0" y="405.4029850746269"/>
      <point x="176" y="436" type="qcurve" smooth="yes"/>
      <point x="176.0" y="468.8358208955224"/>
      <point x="220.91044776119404" y="514.0"/>
      <point x="253" y="514" type="qcurve" smooth="yes"/>
      <point x="285.08955223880594" y="514.0"/>
      <point x="331.0" y="468.8358208955224"/>
      <point x="331" y="436" type="qcurve" smooth="yes"/>
      <point x="331.0" y="405.4029850746269"/>
      <point x="285.08955223880594" y="360.0"/>
    </contour>
    <contour>
      <point x="468" y="325" type="line"/>
      <point x="479" y="223" type="line"/>
      <point x="39" y="223" type="line"/>
      <point x="30" y="325" type="line"/>
    </contour>
    <contour>
      <point x="253" y="24" type="qcurve" smooth="yes"/>
      <point x="220.91044776119404" y="24.0"/>
      <point x="176.0" y="70.40298507462687"/>
      <point x="176" y="101" type="qcurve" smooth="yes"/>
      <point x="176.0" y="133.83582089552237"/>
      <point x="220.91044776119404" y="179.0"/>
      <point x="253" y="179" type="qcurve" smooth="yes"/>
      <point x="285.08955223880594" y="179.0"/>
      <point x="331.0" y="133.83582089552237"/>
      <point x="331" y="101" type="qcurve" smooth="yes"/>
      <point x="331.0" y="70.40298507462687"/>
      <point x="285.08955223880594" y="24.0"/>
    </contour>
  </outline>
</glyph>
<glyph name="oslash" format="2">
  <advance width="568"/>
  <unicode hex="00F8"/>
  <outline>
    <contour>
      <point x="155" y="118" type="line"/>
      <point x="248" y="76" type="line"/>
      <point x="404" y="339" type="line"/>
      <point x="314" y="397" type="line"/>
    </contour>
    <contour>
      <point x="543" y="244" type="curve" smooth="yes"/>
      <point x="543" y="399"/>
      <point x="441" y="498"/>
      <point x="284" y="498" type="curve" smooth="yes"/>
      <point x="127" y="498"/>
      <point x="25" y="397"/>
      <point x="25" y="242" type="curve" smooth="yes"/>
      <point x="25" y="87"/>
      <point x="127" y="-12"/>
      <point x="284" y="-12" type="curve" smooth="yes"/>
      <point x="441" y="-12"/>
      <point x="543" y="89"/>
    </contour>
    <contour>
      <point x="284" y="99" type="curve" smooth="yes"/>
      <point x="211" y="99"/>
      <point x="159" y="158"/>
      <point x="159" y="242" type="curve" smooth="yes"/>
      <point x="159" y="325"/>
      <point x="211" y="387"/>
      <point x="284" y="387" type="curve" smooth="yes"/>
      <point x="357" y="387"/>
      <point x="409" y="328"/>
      <point x="409" y="244" type="curve" smooth="yes"/>
      <point x="409" y="161"/>
      <point x="357" y="99"/>
    </contour>
  </outline>
</glyph>
<glyph name="thorn" format="2">
  <advance width="550"/>
  <unicode hex="00FE"/>
  <outline>
    <contour>
      <point x="281" y="498" type="curve" smooth="yes"/>
      <point x="251.582" y="498"/>
      <point x="219.926" y="489.298"/>
      <point x="190" y="473.755" type="curve"/>
      <point x="190" y="706" type="line"/>
      <point x="61" y="695" type="line"/>
      <point x="61" y="-219" type="line"/>
      <point x="190" y="-209" type="line"/>
      <point x="190" y="13.504" type="line"/>
      <point x="220.261" y="-1.951"/>
      <point x="252.427" y="-12"/>
      <point x="277" y="-12" type="curve" smooth="yes"/>
      <point x="434" y="-12"/>
      <point x="525" y="92"/>
      <point x="525" y="244" type="curve" smooth="yes"/>
      <point x="525" y="399"/>
      <point x="432" y="498"/>
    </contour>
    <contour>
      <point x="276" y="99" type="curve" smooth="yes"/>
      <point x="245.792" y="99"/>
      <point x="218.739" y="106.661"/>
      <point x="190" y="127.124" type="curve"/>
      <point x="190" y="358.166" type="line"/>
      <point x="218.739" y="377.086"/>
      <point x="245.792" y="387"/>
      <point x="276" y="387" type="curve" smooth="yes"/>
      <point x="349" y="387"/>
      <point x="391" y="328"/>
      <point x="391" y="244" type="curve" smooth="yes"/>
      <point x="391" y="161"/>
      <point x="349" y="99"/>
    </contour>
  </outline>
</glyph>
<glyph name="Aogonek" format="2">
  <advance width="659"/>
  <unicode hex="0104"/>
  <anchor x="586" y="4" name="_bottom"/>
  <outline>
    <contour>
      <point x="532" y="9" type="qcurve"/>
      <point x="650" y="9" type="line"/>
      <point x="635.820895522388" y="-3.6865671641791025"/>
      <point x="606.0" y="-58.1044776119403"/>
      <point x="606" y="-79" type="qcurve" smooth="yes"/>
      <point x="606.0" y="-90.19402985074626"/>
      <point x="621.3283582089553" y="-107.0"/>
      <point x="637" y="-107" type="qcurve" smooth="yes"/>
      <point x="642.9701492537314" y="-107.0"/>
      <point x="666.8059701492538" y="-98.2089552238806"/>
      <point x="678" y="-90" type="qcurve"/>
      <point x="715" y="-170" type="line"/>
      <point x="691.1194029850747" y="-187.91044776119404"/>
      <point x="640.6119402985074" y="-203.0"/>
      <point x="613" y="-203" type="qcurve" smooth="yes"/>
      <point x="561.5074626865671" y="-203.0"/>
      <point x="494.0" y="-135.52238805970148"/>
      <point x="494" y="-90" type="qcurve" smooth="yes"/>
      <point x="494.0" y="-68.35820895522389"/>
      <point x="519.3134328358209" y="-5.925373134328357"/>
    </contour>
    <component base="A"/>
  </outline>
</glyph>
<glyph name="aogonek" format="2">
  <advance width="503"/>
  <unicode hex="0105"/>
  <outline>
    <contour>
      <point x="359" y="33" type="qcurve"/>
      <point x="452" y="0" type="line"/>
      <point x="437.82089552238807" y="-12.686567164179102"/>
      <point x="408.0" y="-67.1044776119403"/>
      <point x="408" y="-88" type="qcurve" smooth="yes"/>
      <point x="408.0" y="-99.19402985074626"/>
      <point x="423.32835820895525" y="-116.0"/>
      <point x="439" y="-116" type="qcurve" smooth="yes"/>
      <point x="444.97014925373134" y="-116.0"/>
      <point x="468.8059701492537" y="-107.2089552238806"/>
      <point x="480" y="-99" type="qcurve"/>
      <point x="517" y="-179" type="line"/>
      <point x="493.11940298507466" y="-196.91044776119404"/>
      <point x="442.6119402985075" y="-212.0"/>
      <point x="415" y="-212" type="qcurve" smooth="yes"/>
      <point x="363.5074626865672" y="-212.0"/>
      <point x="299.0" y="-144.52238805970148"/>
      <point x="299" y="-99" type="qcurve" smooth="yes"/>
      <point x="299.0" y="-47.507462686567166"/>
      <point x="338.85074626865674" y="10.611940298507463"/>
    </contour>
    <component base="a"/>
  </outline>
</glyph>
<glyph name="dcaron" format="2">
  <advance width="767"/>
  <unicode hex="010F"/>
  <outline>
    <contour>
      <point x="661" y="742" type="qcurve" smooth="yes"/>
      <point x="691.5970149253732" y="742.0"/>
      <point x="737.0" y="692.5522388059701"/>
      <point x="737" y="653" type="qcurve" smooth="yes"/>
      <point x="737.0" y="597.0298507462687"/>
      <point x="661.7164179104477" y="475.08955223880594"/>
      <point x="605" y="443" type="qcurve"/>
      <point x="577" y="504" type="line"/>
      <point x="601.6268656716418" y="525.6417910447761"/>
      <point x="637.2835820895523" y="564.9104477611941"/>
      <point x="644" y="597" type="qcurve"/>
      <point x="626.8358208955224" y="597.0"/>
      <point x="588.0" y="641.1343283582089"/>
      <point x="588" y="668" type="qcurve" smooth="yes"/>
      <point x="588.0" y="694.1194029850747"/>
      <point x="630.4029850746268" y="742.0"/>
    </contour>
    <component base="d"/>
  </outline>
</glyph>
<glyph name="Dcroat" format="2">
  <advance width="691"/>
  <unicode hex="0110"/>
  <outline>
    <contour>
      <point x="295" y="291" type="line"/>
      <point x="29" y="291" type="line"/>
      <point x="18" y="392" type="line"/>
      <point x="286" y="392" type="line"/>
    </contour>
    <contour>
      <point x="343" y="0" type="curve" smooth="yes"/>
      <point x="85" y="0" type="line"/>
      <point x="85" y="680" type="line"/>
      <point x="343" y="680" type="line" smooth="yes"/>
      <point x="555" y="680"/>
      <point x="656" y="539"/>
      <point x="656" y="344" type="curve" smooth="yes"/>
      <point x="656" y="131"/>
      <point x="544" y="3"/>
    </contour>
    <contour>
      <point x="348" y="570" type="curve" smooth="yes"/>
      <point x="214" y="570" type="line"/>
      <point x="214" y="109" type="line"/>
      <point x="341" y="109" type="line" smooth="yes"/>
      <point x="450" y="109"/>
      <point x="522" y="175"/>
      <point x="522" y="344" type="curve" smooth="yes"/>
      <point x="522" y="485"/>
      <point x="468" y="570"/>
    </contour>
  </outline>
</glyph>
<glyph name="dcroat" format="2">
  <advance width="572"/>
  <unicode hex="0111"/>
  <outline>
    <contour>
      <point x="404" y="162" type="line"/>
      <point x="357" y="121"/>
      <point x="319" y="99"/>
      <point x="274" y="99" type="curve" smooth="yes"/>
      <point x="201" y="99"/>
      <point x="159" y="158"/>
      <point x="159" y="242" type="curve" smooth="yes"/>
      <point x="159" y="325"/>
      <point x="201" y="387"/>
      <point x="274" y="387" type="curve" smooth="yes"/>
      <point x="319" y="387"/>
      <point x="357" y="370"/>
      <point x="404" y="319" type="curve"/>
      <point x="441" y="407" type="line"/>
      <point x="411" y="453"/>
      <point x="325" y="498"/>
      <point x="273" y="498" type="curve" smooth="yes"/>
      <point x="116" y="498"/>
      <point x="25" y="394"/>
      <point x="25" y="242" type="curve" smooth="yes"/>
      <point x="25" y="87"/>
      <point x="118" y="-12"/>
      <point x="269" y="-12" type="curve" smooth="yes"/>
      <point x="328" y="-12"/>
      <point x="396" y="23"/>
      <point x="441" y="78" type="curve"/>
    </contour>
    <contour>
      <point x="507" y="545" type="line"/>
      <point x="577" y="545" type="line"/>
      <point x="566" y="640" type="line"/>
      <point x="507" y="640" type="line"/>
      <point x="507" y="706" type="line"/>
      <point x="376" y="695" type="line"/>
      <point x="376" y="640" type="line"/>
      <point x="304" y="640" type="line"/>
      <point x="316" y="545" type="line"/>
      <point x="376" y="545" type="line"/>
      <point x="376" y="91" type="line"/>
      <point x="439" y="0" type="line"/>
      <point x="507" y="0" type="line"/>
    </contour>
  </outline>
</glyph>
<glyph name="gcommaaccent" format="2">
  <advance width="568"/>
  <unicode hex="0123"/>
  <outline>
    <contour>
      <point x="270" y="540" type="qcurve" smooth="yes"/>
      <point x="239.40298507462688" y="540.0"/>
      <point x="195.0" y="591.4477611940299"/>
      <point x="195" y="631" type="qcurve" smooth="yes"/>
      <point x="195.0" y="684.7313432835821"/>
      <point x="263.9850746268657" y="779.3731343283582"/>
      <point x="311" y="804" type="qcurve"/>
      <point x="339" y="742" type="line"/>
      <point x="326.3134328358209" y="738.2686567164179"/>
      <point x="293.97014925373134" y="707.8955223880597"/>
      <point x="288" y="687" type="qcurve"/>
      <point x="303.67164179104475" y="687.0"/>
      <point x="344.0" y="641.8656716417911"/>
      <point x="344" y="615" type="qcurve" smooth="yes"/>
      <point x="344.0" y="588.1343283582089"/>
      <point x="300.5970149253731" y="540.0"/>
    </contour>
    <contour>
      <point x="507" y="485" type="line"/>
      <point x="507" y="-23" type="line" smooth="yes"/>
      <point x="507.0" y="-124.49253731343282"/>
      <point x="363.92537313432837" y="-230.0"/>
      <point x="249" y="-230" type="qcurve" smooth="yes"/>
      <point x="218.40298507462688" y="-230.0"/>
      <point x="89.80597014925372" y="-201.11940298507463"/>
      <point x="51" y="-175" type="qcurve"/>
      <point x="90" y="-83" type="line"/>
      <point x="134.77611940298507" y="-104.64179104477611"/>
      <point x="209.43283582089552" y="-125.25373134328358"/>
      <point x="246" y="-126" type="qcurve" smooth="yes"/>
      <point x="303.46268656716416" y="-125.25373134328358"/>
      <point x="376.0" y="-69.76119402985074"/>
      <point x="376" y="-22" type="qcurve" smooth="yes"/>
      <point x="376" y="390" type="line"/>
      <point x="439" y="485" type="line"/>
    </contour>
    <contour>
      <point x="404" y="162" type="qcurve"/>
      <point x="441" y="78" type="line"/>
      <point x="407.4179104477612" y="36.95522388059702"/>
      <point x="313.02985074626866" y="-12.0"/>
      <point x="269" y="-12" type="qcurve" smooth="yes"/>
      <point x="156.3134328358209" y="-12.0"/>
      <point x="25.0" y="126.32835820895524"/>
      <point x="25" y="242" type="qcurve" smooth="yes"/>
      <point x="25.0" y="355.43283582089555"/>
      <point x="155.8358208955224" y="498.0"/>
      <point x="273" y="498" type="qcurve" smooth="yes"/>
      <point x="311.8059701492537" y="498.0"/>
      <point x="418.6119402985075" y="441.32835820895525"/>
      <point x="441" y="407" type="qcurve"/>
      <point x="404" y="319" type="line"/>
      <point x="368.92537313432837" y="357.05970149253733"/>
      <point x="307.5820895522388" y="387.0"/>
      <point x="274" y="387" type="qcurve" smooth="yes"/>
      <point x="219.52238805970148" y="387.0"/>
      <point x="159.0" y="303.94029850746267"/>
      <point x="159" y="242" type="qcurve" smooth="yes"/>
      <point x="159.0" y="179.3134328358209"/>
      <point x="219.52238805970148" y="99.0"/>
      <point x="274" y="99" type="qcurve" smooth="yes"/>
      <point x="307.5820895522388" y="99.0"/>
      <point x="368.92537313432837" y="131.40298507462688"/>
    </contour>
  </outline>
</glyph>
<glyph name="Iogonek" format="2">
  <advance width="299"/>
  <unicode hex="012E"/>
  <anchor x="148" y="0" name="_bottom"/>
  <outline>
    <contour>
      <point x="85" y="0" type="qcurve"/>
      <point x="214" y="0" type="line"/>
      <point x="199.82089552238807" y="-12.686567164179102"/>
      <point x="170.0" y="-67.1044776119403"/>
      <point x="170" y="-88" type="qcurve" smooth="yes"/>
      <point x="170.0" y="-99.19402985074626"/>
      <point x="185.32835820895522" y="-116.0"/>
      <point x="201" y="-116" type="qcurve" smooth="yes"/>
      <point x="206.97014925373134" y="-116.0"/>
      <point x="230.80597014925374" y="-107.2089552238806"/>
      <point x="242" y="-99" type="qcurve"/>
      <point x="279" y="-179" type="line"/>
      <point x="255.11940298507463" y="-196.91044776119404"/>
      <point x="204.61194029850745" y="-212.0"/>
      <point x="177" y="-212" type="qcurve" smooth="yes"/>
      <point x="125.50746268656717" y="-212.0"/>
      <point x="61.0" y="-144.52238805970148"/>
      <point x="61" y="-99" type="qcurve" smooth="yes"/>
      <point x="61.0" y="-77.35820895522389"/>
      <point x="73.05970149253731" y="-17.16417910447761"/>
    </contour>
    <component base="I"/>
  </outline>
</glyph>
<glyph name="iogonek" format="2">
  <advance width="240"/>
  <unicode hex="012F"/>
  <outline>
    <contour>
      <point x="55" y="0" type="curve"/>
      <point x="185" y="0" type="line"/>
      <point x="166" y="-17"/>
      <point x="141" y="-60"/>
      <point x="141" y="-88" type="curve" smooth="yes"/>
      <point x="141" y="-103"/>
      <point x="151" y="-116"/>
      <point x="172" y="-116" type="curve" smooth="yes"/>
      <point x="180" y="-116"/>
      <point x="198" y="-110"/>
      <point x="213" y="-99" type="curve"/>
      <point x="250" y="-179" type="line"/>
      <point x="218" y="-203"/>
      <point x="185" y="-212"/>
      <point x="148" y="-212" type="curve" smooth="yes"/>
      <point x="79" y="-212"/>
      <point x="32" y="-160"/>
      <point x="32" y="-99" type="curve" smooth="yes"/>
      <point x="32" y="-70"/>
      <point x="39" y="-23"/>
    </contour>
    <component base="dotlessi"/>
    <component base="dotaccent" xOffset="34"/>
  </outline>
</glyph>
<glyph name="dotlessi" format="2">
  <advance width="240"/>
  <unicode hex="0131"/>
  <anchor x="120" y="485" name="top"/>
  <outline>
    <contour>
      <point x="185" y="0" type="line"/>
      <point x="55" y="0" type="line"/>
      <point x="55" y="485" type="line"/>
      <point x="185" y="485" type="line"/>
    </contour>
  </outline>
</glyph>
<glyph name="lacute" format="2">
  <advance width="259"/>
  <unicode hex="013A"/>
  <outline>
    <contour>
      <point x="194" y="0" type="line"/>
      <point x="65" y="0" type="line"/>
      <point x="65" y="673" type="line"/>
      <point x="194" y="685" type="line"/>
    </contour>
    <contour>
      <point x="177" y="739" type="line"/>
      <point x="87" y="764" type="line"/>
      <point x="138" y="903" type="line"/>
      <point x="272" y="903" type="line"/>
    </contour>
  </outline>
</glyph>
<glyph name="lcaron" format="2">
  <advance width="452"/>
  <unicode hex="013E"/>
  <outline>
    <contour>
      <point x="346" y="742" type="qcurve" smooth="yes"/>
      <point x="376.5970149253731" y="742.0"/>
      <point x="422.0" y="692.5522388059701"/>
      <point x="422" y="653" type="qcurve" smooth="yes"/>
      <point x="422.0" y="597.0298507462687"/>
      <point x="346.7164179104478" y="475.08955223880594"/>
      <point x="290" y="443" type="qcurve"/>
      <point x="262" y="504" type="line"/>
      <point x="286.6268656716418" y="525.6417910447761"/>
      <point x="322.2835820895522" y="564.9104477611941"/>
      <point x="329" y="597" type="qcurve"/>
      <point x="311.8358208955224" y="597.0"/>
      <point x="273.0" y="641.1343283582089"/>
      <point x="273" y="668" type="qcurve" smooth="yes"/>
      <point x="273.0" y="694.1194029850747"/>
      <point x="315.4029850746269" y="742.0"/>
    </contour>
    <component base="l"/>
  </outline>
</glyph>
<glyph name="Lslash" format="2">
  <advance width="556"/>
  <unicode hex="0141"/>
  <outline>
    <contour>
      <point x="85" y="0" type="line"/>
      <point x="534" y="0" type="line"/>
      <point x="514" y="101" type="line"/>
      <point x="214" y="101" type="line"/>
      <point x="214" y="305.506" type="line"/>
      <point x="370" y="423" type="line"/>
      <point x="320" y="514" type="line"/>
      <point x="214" y="433.911" type="line"/>
      <point x="214" y="680" type="line"/>
      <point x="85" y="680" type="line"/>
      <point x="85" y="336.445" type="line"/>
      <point x="5" y="276" type="line"/>
      <point x="54" y="185" type="line"/>
      <point x="85" y="208.348" type="line"/>
    </contour>
  </outline>
</glyph>
<glyph name="lslash" format="2">
  <advance width="366"/>
  <unicode hex="0142"/>
  <outline>
    <contour>
      <point x="315" y="535" type="line"/>
      <point x="366" y="445" type="line"/>
      <point x="248" y="356" type="line"/>
      <point x="248" y="0" type="line"/>
      <point x="119" y="0" type="line"/>
      <point x="119" y="257" type="line"/>
      <point x="50" y="206" type="line"/>
      <point x="0" y="296" type="line"/>
      <point x="119" y="386" type="line"/>
      <point x="119" y="695" type="line"/>
      <point x="248" y="706" type="line"/>
      <point x="248" y="484" type="line"/>
    </contour>
  </outline>
</glyph>
<glyph name="OE" format="2">
  <advance width="986"/>
  <unicode hex="0152"/>
  <outline>
    <contour>
      <point x="543" y="650" type="curve"/>
      <point x="503" y="557" type="line"/>
      <point x="444" y="574"/>
      <point x="418" y="585"/>
      <point x="359" y="585" type="curve" smooth="yes"/>
      <point x="251" y="585"/>
      <point x="170" y="491"/>
      <point x="170" y="338" type="curve" smooth="yes"/>
      <point x="170" y="206"/>
      <point x="235" y="95"/>
      <point x="351" y="95" type="curve" smooth="yes"/>
      <point x="408" y="95"/>
      <point x="459" y="109"/>
      <point x="500" y="126" type="curve"/>
      <point x="549" y="30" type="line"/>
      <point x="497" y="3"/>
      <point x="414" y="-14"/>
      <point x="358" y="-14" type="curve" smooth="yes"/>
      <point x="146" y="-14"/>
      <point x="35" y="141"/>
      <point x="35" y="337" type="curve" smooth="yes"/>
      <point x="35" y="546"/>
      <point x="164" y="694"/>
      <point x="363" y="694" type="curve" smooth="yes"/>
      <point x="403" y="694"/>
      <point x="484" y="682"/>
    </contour>
    <contour>
      <point x="966" y="0" type="line"/>
      <point x="490" y="0" type="line"/>
      <point x="490" y="680" type="line"/>
      <point x="896" y="680" type="line"/>
      <point x="916" y="578" type="line"/>
      <point x="619" y="578" type="line"/>
      <point x="619" y="395" type="line"/>
      <point x="841" y="395" type="line"/>
      <point x="862" y="292" type="line"/>
      <point x="619" y="292" type="line"/>
      <point x="619" y="101" type="line"/>
      <point x="945" y="101" type="line"/>
    </contour>
  </outline>
</glyph>
<glyph name="oe" format="2">
  <advance width="842"/>
  <unicode hex="0153"/>
  <outline>
    <contour>
      <point x="414" y="132" type="curve"/>
      <point x="451" y="38" type="line"/>
      <point x="406" y="3"/>
      <point x="324" y="-12"/>
      <point x="283" y="-12" type="curve" smooth="yes"/>
      <point x="126" y="-12"/>
      <point x="25" y="87"/>
      <point x="25" y="242" type="curve" smooth="yes"/>
      <point x="25" y="397"/>
      <point x="126" y="498"/>
      <point x="283" y="498" type="curve" smooth="yes"/>
      <point x="324" y="498"/>
      <point x="403" y="480"/>
      <point x="451" y="447" type="curve"/>
      <point x="414" y="354" type="line"/>
      <point x="367" y="375"/>
      <point x="329" y="387"/>
      <point x="284" y="387" type="curve" smooth="yes"/>
      <point x="211" y="387"/>
      <point x="159" y="325"/>
      <point x="159" y="242" type="curve" smooth="yes"/>
      <point x="159" y="158"/>
      <point x="211" y="99"/>
      <point x="284" y="99" type="curve" smooth="yes"/>
      <point x="329" y="99"/>
      <point x="367" y="111"/>
    </contour>
    <contour>
      <point x="817" y="204" type="line"/>
      <point x="490" y="204" type="line"/>
      <point x="502" y="140"/>
      <point x="540" y="99"/>
      <point x="636" y="99" type="curve" smooth="yes"/>
      <point x="693" y="99"/>
      <point x="734" y="117"/>
      <point x="777" y="142" type="curve"/>
      <point x="815" y="48" type="line"/>
      <point x="770" y="13"/>
      <point x="717" y="-12"/>
      <point x="633" y="-12" type="curve" smooth="yes"/>
      <point x="445" y="-12"/>
      <point x="352" y="87"/>
      <point x="352" y="242" type="curve" smooth="yes"/>
      <point x="352" y="397"/>
      <point x="445" y="498"/>
      <point x="596" y="498" type="curve" smooth="yes"/>
      <point x="748" y="498"/>
      <point x="817" y="381"/>
      <point x="817" y="244" type="curve" smooth="yes"/>
    </contour>
    <contour>
      <point x="491" y="291" type="curve"/>
      <point x="694" y="291" type="line"/>
      <point x="681" y="356"/>
      <point x="645" y="387"/>
      <point x="593" y="387" type="curve" smooth="yes"/>
      <point x="540" y="387"/>
      <point x="502" y="354"/>
    </contour>
  </outline>
</glyph>
<glyph name="tcaron" format="2">
  <advance width="550"/>
  <unicode hex="0165"/>
  <outline>
    <contour>
      <point x="444" y="742" type="qcurve" smooth="yes"/>
      <point x="474.5970149253731" y="742.0"/>
      <point x="520.0" y="692.5522388059701"/>
      <point x="520" y="653" type="qcurve" smooth="yes"/>
      <point x="520.0" y="597.0298507462687"/>
      <point x="444.7164179104478" y="475.08955223880594"/>
      <point x="388" y="443" type="qcurve"/>
      <point x="360" y="504" type="line"/>
      <point x="384.6268656716418" y="525.6417910447761"/>
      <point x="420.2835820895522" y="564.9104477611941"/>
      <point x="427" y="597" type="qcurve"/>
      <point x="409.8358208955224" y="597.0"/>
      <point x="371.0" y="641.1343283582089"/>
      <point x="371" y="668" type="qcurve" smooth="yes"/>
      <point x="371.0" y="694.1194029850747"/>
      <point x="413.4029850746269" y="742.0"/>
    </contour>
    <component base="t"/>
  </outline>
</glyph>
<glyph name="uogonek" format="2">
  <advance width="566"/>
  <unicode hex="0173"/>
  <outline>
    <contour>
      <point x="418" y="33" type="curve"/>
      <point x="511" y="0" type="line"/>
      <point x="492" y="-17"/>
      <point x="467" y="-60"/>
      <point x="467" y="-88" type="curve" smooth="yes"/>
      <point x="467" y="-103"/>
      <point x="477" y="-116"/>
      <point x="498" y="-116" type="curve" smooth="yes"/>
      <point x="506" y="-116"/>
      <point x="524" y="-110"/>
      <point x="539" y="-99" type="curve"/>
      <point x="576" y="-179" type="line"/>
      <point x="544" y="-203"/>
      <point x="511" y="-212"/>
      <point x="474" y="-212" type="curve" smooth="yes"/>
      <point x="405" y="-212"/>
      <point x="358" y="-160"/>
      <point x="358" y="-99" type="curve" smooth="yes"/>
      <point x="358" y="-30"/>
      <point x="391" y="3"/>
    </contour>
    <component base="u"/>
  </outline>
</glyph>
<glyph name="florin" format="2">
  <advance width="442"/>
  <unicode hex="0192"/>
  <outline>
    <contour>
      <point x="81" y="484" type="line"/>
      <point x="156" y="484" type="line"/>
      <point x="156" y="521" type="line" smooth="yes"/>
      <point x="156.0" y="604.5820895522388"/>
      <point x="255.44776119402985" y="702.0"/>
      <point x="345" y="702" type="qcurve" smooth="yes"/>
      <point x="368.13432835820896" y="702.0"/>
      <point x="426.32835820895525" y="683.6865671641791"/>
      <point x="442" y="671" type="qcurve"/>
      <point x="405" y="577" type="line"/>
      <point x="390.07462686567163" y="582.9701492537314"/>
      <point x="362.94029850746267" y="590.0"/>
      <point x="351" y="590" type="qcurve" smooth="yes"/>
      <point x="317.4179104477612" y="590.0"/>
      <point x="286.0" y="541.0597014925373"/>
      <point x="286" y="503" type="qcurve" smooth="yes"/>
      <point x="286" y="484" type="line"/>
      <point x="378" y="484" type="line"/>
      <point x="419" y="384" type="line"/>
      <point x="286" y="384" type="line"/>
      <point x="286" y="58" type="line" smooth="yes"/>
      <point x="286.0" y="-25.5820895522388"/>
      <point x="186.55223880597015" y="-123.0"/>
      <point x="97" y="-123" type="qcurve" smooth="yes"/>
      <point x="73.86567164179104" y="-123.0"/>
      <point x="15.671641791044774" y="-104.68656716417911"/>
      <point x="0" y="-92" type="qcurve"/>
      <point x="37" y="2" type="line"/>
      <point x="51.92537313432835" y="-3.9701492537313428"/>
      <point x="79.05970149253731" y="-11.0"/>
      <point x="91" y="-11" type="qcurve" smooth="yes"/>
      <point x="124.58208955223881" y="-11.0"/>
      <point x="156.0" y="37.94029850746269"/>
      <point x="156" y="76" type="qcurve" smooth="yes"/>
      <point x="156" y="384" type="line"/>
      <point x="81" y="384" type="line"/>
    </contour>
  </outline>
</glyph>
<glyph name="circumflex" format="2">
  <advance width="395"/>
  <unicode hex="02C6"/>
  <anchor x="205" y="485" name="_top"/>
  <outline>
    <contour>
      <point x="200" y="654" type="line"/>
      <point x="133" y="589" type="line"/>
      <point x="10" y="605" type="line"/>
      <point x="162" y="753" type="line"/>
      <point x="233" y="753" type="line"/>
      <point x="385" y="605" type="line"/>
      <point x="266" y="589" type="line"/>
    </contour>
  </outline>
</glyph>
<glyph name="caron" format="2">
  <advance width="395"/>
  <unicode hex="02C7"/>
  <anchor x="198" y="485" name="_top"/>
  <outline>
    <contour>
      <point x="200" y="688" type="line"/>
      <point x="266" y="753" type="line"/>
      <point x="385" y="737" type="line"/>
      <point x="233" y="589" type="line"/>
      <point x="162" y="589" type="line"/>
      <point x="10" y="737" type="line"/>
      <point x="133" y="753" type="line"/>
    </contour>
  </outline>
</glyph>
<glyph name="uni02C9" format="2">
  <advance width="282"/>
  <unicode hex="02C9"/>
  <outline>
    <contour>
      <point x="10" y="613" type="line"/>
      <point x="10" y="716" type="line"/>
      <point x="262" y="716" type="line"/>
      <point x="272" y="613" type="line"/>
    </contour>
  </outline>
</glyph>
<glyph name="breve" format="2">
  <advance width="314"/>
  <unicode hex="02D8"/>
  <anchor x="158" y="485" name="_top"/>
  <outline>
    <contour>
      <point x="217" y="753" type="qcurve"/>
      <point x="304" y="753" type="line"/>
      <point x="304.0" y="690.3134328358209"/>
      <point x="231.62686567164178" y="589.7462686567164"/>
      <point x="157" y="589" type="qcurve" smooth="yes"/>
      <point x="82.37313432835822" y="589.7462686567164"/>
      <point x="10.0" y="690.3134328358209"/>
      <point x="10" y="753" type="qcurve"/>
      <point x="99" y="753" type="line"/>
      <point x="99.0" y="726.8805970149253"/>
      <point x="124.16417910447761" y="682.0"/>
      <point x="157" y="682" type="qcurve" smooth="yes"/>
      <point x="189.08955223880596" y="682.0"/>
      <point x="217.0" y="726.8805970149253"/>
    </contour>
  </outline>
</glyph>
<glyph name="dotaccent" format="2">
  <advance width="166"/>
  <unicode hex="02D9"/>
  <anchor x="86" y="485" name="_top"/>
  <outline>
    <contour>
      <point x="84" y="594" type="qcurve" smooth="yes"/>
      <point x="53.40298507462687" y="594.0"/>
      <point x="10.0" y="636.4029850746268"/>
      <point x="10" y="667" type="qcurve" smooth="yes"/>
      <point x="10.0" y="697.5970149253732"/>
      <point x="53.40298507462687" y="741.0"/>
      <point x="84" y="741" type="qcurve" smooth="yes"/>
      <point x="114.59701492537313" y="741.0"/>
      <point x="156.0" y="697.5970149253732"/>
      <point x="156" y="667" type="qcurve" smooth="yes"/>
      <point x="156.0" y="636.4029850746268"/>
      <point x="114.59701492537313" y="594.0"/>
    </contour>
  </outline>
</glyph>
<glyph name="ring" format="2">
  <advance width="234"/>
  <unicode hex="02DA"/>
  <anchor x="126" y="485" name="_top"/>
  <outline>
    <contour>
      <point x="117" y="793" type="qcurve" smooth="yes"/>
      <point x="159.53731343283582" y="793.0"/>
      <point x="224.0" y="734.5373134328358"/>
      <point x="224" y="692" type="qcurve" smooth="yes"/>
      <point x="224.0" y="649.4626865671642"/>
      <point x="159.53731343283582" y="594.0"/>
      <point x="117" y="594" type="qcurve" smooth="yes"/>
      <point x="74.46268656716418" y="594.0"/>
      <point x="10.0" y="649.4626865671642"/>
      <point x="10" y="692" type="qcurve" smooth="yes"/>
      <point x="10.0" y="734.5373134328358"/>
      <point x="74.46268656716418" y="793.0"/>
    </contour>
    <contour>
      <point x="117" y="652" type="qcurve" smooth="yes"/>
      <point x="132.67164179104478" y="652.0"/>
      <point x="156.0" y="676.3283582089553"/>
      <point x="156" y="692" type="qcurve" smooth="yes"/>
      <point x="156.0" y="707.6716417910447"/>
      <point x="132.67164179104478" y="731.0"/>
      <point x="117" y="731" type="qcurve" smooth="yes"/>
      <point x="101.32835820895522" y="731.0"/>
      <point x="77.0" y="707.6716417910447"/>
      <point x="77" y="692" type="qcurve" smooth="yes"/>
      <point x="77.0" y="676.3283582089553"/>
      <point x="101.32835820895522" y="652.0"/>
    </contour>
  </outline>
</glyph>
<glyph name="ogonek" format="2">
  <advance width="238"/>
  <unicode hex="02DB"/>
  <anchor x="99" y="0" name="_bottom"/>
  <outline>
    <contour>
      <point x="48" y="5" type="qcurve"/>
      <point x="163" y="5" type="line"/>
      <point x="148.82089552238807" y="-7.6865671641791025"/>
      <point x="119.0" y="-62.1044776119403"/>
      <point x="119" y="-83" type="qcurve" smooth="yes"/>
      <point x="119.0" y="-94.19402985074626"/>
      <point x="134.32835820895522" y="-111.0"/>
      <point x="150" y="-111" type="qcurve" smooth="yes"/>
      <point x="155.97014925373134" y="-111.0"/>
      <point x="179.80597014925374" y="-102.2089552238806"/>
      <point x="191" y="-94" type="qcurve"/>
      <point x="228" y="-174" type="line"/>
      <point x="204.11940298507463" y="-191.91044776119404"/>
      <point x="153.61194029850745" y="-207.0"/>
      <point x="126" y="-207" type="qcurve" smooth="yes"/>
      <point x="74.50746268656717" y="-207.0"/>
      <point x="10.0" y="-139.52238805970148"/>
      <point x="10" y="-94" type="qcurve" smooth="yes"/>
      <point x="10.0" y="-72.35820895522389"/>
      <point x="35.3134328358209" y="-9.925373134328357"/>
    </contour>
  </outline>
</glyph>
<glyph name="tilde" format="2">
  <advance width="347"/>
  <unicode hex="02DC"/>
  <anchor x="179" y="485" name="_top"/>
  <outline>
    <contour>
      <point x="256" y="716" type="curve"/>
      <point x="337" y="716" type="line"/>
      <point x="337" y="625"/>
      <point x="283" y="595"/>
      <point x="230" y="595" type="curve" smooth="yes"/>
      <point x="200" y="595"/>
      <point x="187" y="605"/>
      <point x="173" y="615" type="curve" smooth="yes"/>
      <point x="161" y="623"/>
      <point x="148" y="631"/>
      <point x="124" y="631" type="curve" smooth="yes"/>
      <point x="109" y="631"/>
      <point x="96" y="613"/>
      <point x="96" y="600" type="curve"/>
      <point x="10" y="600" type="line"/>
      <point x="10" y="689"/>
      <point x="64" y="720"/>
      <point x="117" y="720" type="curve" smooth="yes"/>
      <point x="144" y="720"/>
      <point x="159" y="712"/>
      <point x="173" y="703" type="curve" smooth="yes"/>
      <point x="188" y="694"/>
      <point x="202" y="685"/>
      <point x="229" y="685" type="curve" smooth="yes"/>
      <point x="244" y="685"/>
      <point x="256" y="700"/>
    </contour>
  </outline>
</glyph>
<glyph name="hungarumlaut" format="2">
  <advance width="405"/>
  <unicode hex="02DD"/>
  <anchor x="163" y="485" name="_top"/>
  <outline>
    <contour>
      <point x="100" y="589" type="line"/>
      <point x="10" y="614" type="line"/>
      <point x="61" y="753" type="line"/>
      <point x="195" y="753" type="line"/>
    </contour>
    <contour>
      <point x="300" y="589" type="line"/>
      <point x="210" y="614" type="line"/>
      <point x="261" y="753" type="line"/>
      <point x="395" y="753" type="line"/>
    </contour>
  </outline>
</glyph>
<glyph name="pi" format="2">
  <advance width="658"/>
  <unicode hex="03C0"/>
  <outline>
    <contour>
      <point x="244" y="0" type="line"/>
      <point x="115" y="0" type="line"/>
      <point x="115" y="384" type="line"/>
      <point x="10" y="384" type="line"/>
      <point x="10" y="485" type="line"/>
      <point x="648" y="485" type="line"/>
      <point x="648" y="384" type="line"/>
      <point x="543" y="384" type="line"/>
      <point x="543" y="0" type="line"/>
      <point x="413" y="0" type="line"/>
      <point x="413" y="384" type="line"/>
      <point x="244" y="384" type="line"/>
    </contour>
  </outline>
</glyph>
<glyph name="tm_Anusvara" format="2">
  <unicode hex="0B82"/>
  <outline>
    <contour>
      <point x="0" y="612" type="qcurve" smooth="yes"/>
      <point x="-49.99999999999999" y="612.0"/>
      <point x="-128.0" y="685.7462686567164"/>
      <point x="-128" y="735" type="qcurve" smooth="yes"/>
      <point x="-128.0" y="786.4925373134329"/>
      <point x="-49.99999999999999" y="861.0"/>
      <point x="0" y="861" type="qcurve" smooth="yes"/>
      <point x="50.74626865671641" y="861.0"/>
      <point x="130.0" y="786.4925373134329"/>
      <point x="130" y="735" type="qcurve" smooth="yes"/>
      <point x="130.0" y="685.7462686567164"/>
      <point x="50.74626865671641" y="612.0"/>
    </contour>
    <contour>
      <point x="0" y="696" type="qcurve" smooth="yes"/>
      <point x="17.16417910447761" y="696.0"/>
      <point x="40.0" y="718.8358208955224"/>
      <point x="40" y="736" type="qcurve" smooth="yes"/>
      <point x="40.0" y="753.9104477611941"/>
      <point x="17.16417910447761" y="777.0"/>
      <point x="0" y="777" type="qcurve" smooth="yes"/>
      <point x="-17.91044776119403" y="777.0"/>
      <point x="-41.0" y="753.9104477611941"/>
      <point x="-41" y="736" type="qcurve" smooth="yes"/>
      <point x="-41.0" y="718.8358208955224"/>
      <point x="-17.91044776119403" y="696.0"/>
    </contour>
  </outline>
</glyph>
<glyph name="tm_Visarga" format="2">
  <advance width="678"/>
  <unicode hex="0B83"/>
  <outline>
    <contour>
      <point x="338" y="278" type="qcurve" smooth="yes"/>
      <point x="288.0" y="278.0"/>
      <point x="210.0" y="351.74626865671644"/>
      <point x="210" y="401" type="qcurve" smooth="yes"/>
      <point x="210.0" y="452.4925373134328"/>
      <point x="288.0" y="527.0"/>
      <point x="338" y="527" type="qcurve" smooth="yes"/>
      <point x="388.74626865671644" y="527.0"/>
      <point x="468.0" y="452.4925373134328"/>
      <point x="468" y="401" type="qcurve" smooth="yes"/>
      <point x="468.0" y="351.74626865671644"/>
      <point x="388.74626865671644" y="278.0"/>
    </contour>
    <contour>
      <point x="339" y="362" type="qcurve" smooth="yes"/>
      <point x="356.1641791044776" y="362.0"/>
      <point x="379.0" y="384.8358208955224"/>
      <point x="379" y="402" type="qcurve" smooth="yes"/>
      <point x="379.0" y="419.910447761194"/>
      <point x="356.1641791044776" y="443.0"/>
      <point x="339" y="443" type="qcurve" smooth="yes"/>
      <point x="321.089552238806" y="443.0"/>
      <point x="298.0" y="419.910447761194"/>
      <point x="298" y="402" type="qcurve" smooth="yes"/>
      <point x="298.0" y="384.8358208955224"/>
      <point x="321.089552238806" y="362.0"/>
    </contour>
    <contour>
      <point x="172" y="-14" type="qcurve" smooth="yes"/>
      <point x="122.74626865671642" y="-14.0"/>
      <point x="45.0" y="60.00000000000001"/>
      <point x="45" y="110" type="qcurve" smooth="yes"/>
      <point x="45.0" y="160.7462686567164"/>
      <point x="122.74626865671642" y="235.0"/>
      <point x="172" y="235" type="qcurve" smooth="yes"/>
      <point x="223.49253731343282" y="235.0"/>
      <point x="302.0" y="160.7462686567164"/>
      <point x="302" y="110" type="qcurve" smooth="yes"/>
      <point x="302.0" y="60.00000000000001"/>
      <point x="223.49253731343282" y="-14.0"/>
    </contour>
    <contour>
      <point x="173" y="70" type="qcurve" smooth="yes"/>
      <point x="190.91044776119404" y="70.0"/>
      <point x="214.0" y="93.08955223880596"/>
      <point x="214" y="111" type="qcurve" smooth="yes"/>
      <point x="214.0" y="128.16417910447763"/>
      <point x="190.91044776119404" y="151.0"/>
      <point x="173" y="151" type="qcurve" smooth="yes"/>
      <point x="155.83582089552237" y="151.0"/>
      <point x="133.0" y="128.16417910447763"/>
      <point x="133" y="111" type="qcurve" smooth="yes"/>
      <point x="133.0" y="93.08955223880596"/>
      <point x="155.83582089552237" y="70.0"/>
    </contour>
    <contour>
      <point x="504" y="-14" type="qcurve" smooth="yes"/>
      <point x="454.0" y="-14.0"/>
      <point x="376.0" y="60.00000000000001"/>
      <point x="376" y="110" type="qcurve" smooth="yes"/>
      <point x="376.0" y="160.7462686567164"/>
      <point x="454.0" y="235.0"/>
      <point x="504" y="235" type="qcurve" smooth="yes"/>
      <point x="554.7462686567164" y="235.0"/>
      <point x="633.0" y="160.7462686567164"/>
      <point x="633" y="110" type="qcurve" smooth="yes"/>
      <point x="633.0" y="60.00000000000001"/>
      <point x="554.7462686567164" y="-14.0"/>
    </contour>
    <contour>
      <point x="504" y="70" type="qcurve" smooth="yes"/>
      <point x="521.9104477611941" y="70.0"/>
      <point x="545.0" y="93.08955223880596"/>
      <point x="545" y="111" type="qcurve" smooth="yes"/>
      <point x="545.0" y="128.16417910447763"/>
      <point x="521.9104477611941" y="151.0"/>
      <point x="504" y="151" type="qcurve" smooth="yes"/>
      <point x="486.8358208955224" y="151.0"/>
      <point x="464.0" y="128.16417910447763"/>
      <point x="464" y="111" type="qcurve" smooth="yes"/>
      <point x="464.0" y="93.08955223880596"/>
      <point x="486.8358208955224" y="70.0"/>
    </contour>
  </outline>
</glyph>
<glyph name="tm_A" format="2">
  <advance width="1097"/>
  <unicode hex="0B85"/>
  <outline>
    <contour>
      <point x="1012" y="-126" type="line"/>
      <point x="896" y="-126" type="line"/>
      <point x="896" y="513" type="line"/>
      <point x="1012" y="513" type="line"/>
    </contour>
    <contour>
      <point x="438" y="531" type="curve" smooth="yes"/>
      <point x="619" y="531"/>
      <point x="744" y="399"/>
      <point x="744" y="224" type="curve" smooth="yes"/>
      <point x="744" y="7"/>
      <point x="584" y="-144"/>
      <point x="321" y="-144" type="curve" smooth="yes"/>
      <point x="149" y="-144"/>
      <point x="25" y="-73"/>
      <point x="25" y="26" type="curve" smooth="yes"/>
      <point x="25" y="94"/>
      <point x="70" y="142"/>
      <point x="184" y="142" type="curve" smooth="yes"/>
      <point x="896" y="142" type="line"/>
      <point x="896" y="51" type="line"/>
      <point x="179" y="51" type="line" smooth="yes"/>
      <point x="155" y="51"/>
      <point x="146" y="41"/>
      <point x="146" y="26" type="curve" smooth="yes"/>
      <point x="146" y="-14"/>
      <point x="214" y="-48"/>
      <point x="321" y="-48" type="curve" smooth="yes"/>
      <point x="517" y="-48"/>
      <point x="622" y="66"/>
      <point x="622" y="224" type="curve" smooth="yes"/>
      <point x="622" y="347"/>
      <point x="552" y="435"/>
      <point x="438" y="435" type="curve" smooth="yes"/>
      <point x="350" y="435"/>
      <point x="286" y="393"/>
      <point x="286" y="329" type="curve" smooth="yes"/>
      <point x="286" y="303"/>
      <point x="305" y="284"/>
      <point x="331" y="284" type="curve" smooth="yes"/>
      <point x="358" y="284"/>
      <point x="376" y="303"/>
      <point x="376" y="329" type="curve" smooth="yes"/>
      <point x="376" y="354"/>
      <point x="358" y="372"/>
      <point x="332" y="372" type="curve" smooth="yes"/>
      <point x="305" y="372"/>
      <point x="286" y="354"/>
      <point x="286" y="329" type="curve"/>
      <point x="220" y="329" type="line"/>
      <point x="219" y="398"/>
      <point x="268" y="456"/>
      <point x="337" y="456" type="curve" smooth="yes"/>
      <point x="421" y="456"/>
      <point x="480" y="403"/>
      <point x="479" y="329" type="curve" smooth="yes"/>
      <point x="478" y="248"/>
      <point x="416" y="190"/>
      <point x="331" y="191" type="curve" smooth="yes"/>
      <point x="246" y="192"/>
      <point x="184" y="250"/>
      <point x="184" y="329" type="curve" smooth="yes"/>
      <point x="184" y="446"/>
      <point x="290" y="531"/>
    </contour>
  </outline>
</glyph>
<glyph name="tm_Aa" format="2">
  <advance width="1299"/>
  <unicode hex="0B86"/>
  <outline>
    <contour>
      <point x="896" y="51" type="line"/>
      <point x="179" y="51" type="line" smooth="yes"/>
      <point x="161.08955223880596" y="51.0"/>
      <point x="146.0" y="37.19402985074627"/>
      <point x="146" y="26" type="qcurve" smooth="yes"/>
      <point x="146.0" y="-3.8507462686567138"/>
      <point x="241.1492537313433" y="-48.0"/>
      <point x="321" y="-48" type="qcurve" smooth="yes"/>
      <point x="467.2686567164179" y="-48.0"/>
      <point x="622.0" y="106.08955223880598"/>
      <point x="622" y="224" type="qcurve" smooth="yes"/>
      <point x="622.0" y="315.7910447761194"/>
      <point x="523.0746268656717" y="435.0"/>
      <point x="438" y="435" type="qcurve" smooth="yes"/>
      <point x="372.32835820895525" y="435.0"/>
      <point x="286.0" y="376.76119402985074"/>
      <point x="286" y="329" type="qcurve" smooth="yes"/>
      <point x="286.0" y="309.5970149253731"/>
      <point x="311.5970149253731" y="284.0"/>
      <point x="331" y="284" type="qcurve" smooth="yes"/>
      <point x="351.14925373134326" y="284.0"/>
      <point x="376.0" y="309.5970149253731"/>
      <point x="376" y="329" type="qcurve" smooth="yes"/>
      <point x="376.0" y="347.65671641791045"/>
      <point x="351.4029850746269" y="372.0"/>
      <point x="332" y="372" type="qcurve" smooth="yes"/>
      <point x="311.85074626865674" y="372.0"/>
      <point x="286.0" y="347.65671641791045"/>
      <point x="286" y="329" type="qcurve"/>
      <point x="220" y="329" type="line"/>
      <point x="219.2537313432836" y="380.4925373134328"/>
      <point x="285.5074626865672" y="456.0"/>
      <point x="337" y="456" type="qcurve" smooth="yes"/>
      <point x="399.6865671641791" y="456.0"/>
      <point x="479.74626865671644" y="384.2238805970149"/>
      <point x="479" y="329" type="qcurve" smooth="yes"/>
      <point x="478.25373134328356" y="268.55223880597015"/>
      <point x="394.43283582089555" y="190.2537313432836"/>
      <point x="331" y="191" type="qcurve" smooth="yes"/>
      <point x="267.56716417910445" y="191.7462686567164"/>
      <point x="184.0" y="270.04477611940297"/>
      <point x="184" y="329" type="qcurve" smooth="yes"/>
      <point x="184.0" y="416.3134328358209"/>
      <point x="327.55223880597015" y="531.0"/>
      <point x="438" y="531" type="qcurve" smooth="yes"/>
      <point x="573.0746268656717" y="531.0"/>
      <point x="744.0" y="354.5970149253731"/>
      <point x="744" y="224" type="qcurve" smooth="yes"/>
      <point x="744.0" y="62.05970149253733"/>
      <point x="517.2686567164179" y="-144.0"/>
      <point x="321" y="-144" type="qcurve" smooth="yes"/>
      <point x="192.64179104477614" y="-144.0"/>
      <point x="25.0" y="-47.88059701492537"/>
      <point x="25" y="26" type="qcurve" smooth="yes"/>
      <point x="25.0" y="76.74626865671641"/>
      <point x="98.92537313432837" y="142.0"/>
      <point x="184" y="142" type="qcurve" smooth="yes"/>
      <point x="896" y="142" type="line"/>
    </contour>
    <contour>
      <point x="1109" y="111" type="qcurve" smooth="yes"/>
      <point x="1082.134328358209" y="111.0"/>
      <point x="1032.8955223880596" y="97.94029850746269"/>
      <point x="1012" y="86" type="qcurve"/>
      <point x="1012" y="513" type="line"/>
      <point x="896" y="513" type="line"/>
      <point x="896" y="-126" type="line"/>
      <point x="1012" y="-126" type="line"/>
      <point x="1012" y="-66" type="line" smooth="yes"/>
      <point x="1012.0" y="-33.16417910447761"/>
      <point x="1059.4328358208954" y="14.0"/>
      <point x="1096" y="14" type="qcurve" smooth="yes"/>
      <point x="1129.5820895522388" y="14.0"/>
      <point x="1168.0" y="-34.92537313432836"/>
      <point x="1168" y="-70" type="qcurve" smooth="yes"/>
      <point x="1168.0" y="-161.7910447761194"/>
      <point x="1008.3880597014925" y="-281.0"/>
      <point x="886" y="-281" type="qcurve" smooth="yes"/>
      <point x="824.0597014925373" y="-281.0"/>
      <point x="743.0" y="-243.11940298507463"/>
      <point x="743" y="-217" type="qcurve" smooth="yes"/>
      <point x="743.0" y="-198.34328358208955"/>
      <point x="771.6119402985074" y="-173.0"/>
      <point x="794" y="-173" type="qcurve" smooth="yes"/>
      <point x="815" y="-173" type="line"/>
      <point x="815" y="-82" type="line"/>
      <point x="794" y="-82" type="line" smooth="yes"/>
      <point x="717.1343283582089" y="-82.0"/>
      <point x="631.0" y="-158.7910447761194"/>
      <point x="631" y="-217" type="qcurve" smooth="yes"/>
      <point x="631.0" y="-286.4029850746268"/>
      <point x="768.8358208955224" y="-377.0"/>
      <point x="886" y="-377" type="qcurve" smooth="yes"/>
      <point x="1060.6268656716418" y="-377.0"/>
      <point x="1289.0" y="-202.83582089552237"/>
      <point x="1289" y="-70" type="qcurve" smooth="yes"/>
      <point x="1289.0" y="12.089552238805965"/>
      <point x="1188.8507462686566" y="111.0"/>
    </contour>
  </outline>
</glyph>
